G04 #@! TF.GenerationSoftware,KiCad,Pcbnew,(5.0.0)*
G04 #@! TF.CreationDate,2019-01-26T20:20:51+09:00*
G04 #@! TF.ProjectId,Manta60BLE_Top,4D616E74613630424C455F546F702E6B,rev?*
G04 #@! TF.SameCoordinates,Original*
G04 #@! TF.FileFunction,Profile,NP*
%FSLAX46Y46*%
G04 Gerber Fmt 4.6, Leading zero omitted, Abs format (unit mm)*
G04 Created by KiCad (PCBNEW (5.0.0)) date 01/26/19 20:20:51*
%MOMM*%
%LPD*%
G01*
G04 APERTURE LIST*
%ADD10C,0.200000*%
G04 APERTURE END LIST*
D10*
X167474418Y-102187794D02*
X166608393Y-101687794D01*
X153980507Y-132559934D02*
X153580507Y-133252754D01*
X150083393Y-130309934D02*
X150949418Y-130809934D01*
X167474418Y-102187794D02*
X167874418Y-101494974D01*
X159247177Y-97437794D02*
X142722177Y-126059934D01*
X170905507Y-103244974D02*
X170505507Y-103937794D01*
X160513202Y-97244974D02*
X163544291Y-98994974D01*
X160113202Y-97937794D02*
X160513202Y-97244974D01*
X184677194Y-110491741D02*
X184277194Y-111184561D01*
X143588202Y-126559934D02*
X142722177Y-126059934D01*
X187308283Y-112934561D02*
X187708283Y-112241741D01*
X170783283Y-141556701D02*
X171649308Y-142056701D01*
X167352194Y-140499521D02*
X170383283Y-142249521D01*
X159990978Y-136249521D02*
X163022067Y-137999521D01*
X146219291Y-129002754D02*
X143188202Y-127252754D01*
X167874418Y-101494974D02*
X170905507Y-103244974D01*
X160390978Y-135556701D02*
X159990978Y-136249521D01*
X165478262Y-97415383D02*
X163566000Y-96311338D01*
X159247177Y-97437794D02*
X160113202Y-97937794D01*
X146619291Y-128309934D02*
X146219291Y-129002754D01*
X170505507Y-103937794D02*
X171371533Y-104437794D01*
X190566000Y-106548260D02*
X195090142Y-114505950D01*
X154846533Y-133059934D02*
X153980507Y-132559934D01*
X150549418Y-131502754D02*
X150949418Y-130809934D01*
X163566000Y-85415383D02*
X163566000Y-95915383D01*
X163544291Y-98994974D02*
X163144291Y-99687794D01*
X188174308Y-113434561D02*
X187308283Y-112934561D01*
X176915978Y-106934561D02*
X176049953Y-106434561D01*
X153580507Y-133252754D02*
X150549418Y-131502754D01*
X177315978Y-106241741D02*
X176915978Y-106934561D01*
X143188202Y-127252754D02*
X143588202Y-126559934D01*
X164010317Y-100187794D02*
X163144291Y-99687794D01*
X150083393Y-130309934D02*
X147485317Y-128809934D01*
X166608393Y-101687794D02*
X164010317Y-100187794D01*
X147485317Y-128809934D02*
X146619291Y-128309934D01*
X170383283Y-142249521D02*
X170783283Y-141556701D01*
X171371533Y-104437794D02*
X154846533Y-133059934D01*
X180347067Y-107991741D02*
X177315978Y-106241741D01*
X179947067Y-108684561D02*
X180347067Y-107991741D01*
X187708283Y-112241741D02*
X184677194Y-110491741D01*
X167752194Y-139806701D02*
X167352194Y-140499521D01*
X159524953Y-135056701D02*
X160390978Y-135556701D01*
X163022067Y-137999521D02*
X163422067Y-137306701D01*
X163566000Y-95915383D02*
X163566000Y-96311338D01*
X167474418Y-102187794D02*
X166608393Y-101687794D01*
X150083393Y-130309934D02*
X150949418Y-130809934D01*
X147485317Y-128809934D02*
X146619291Y-128309934D01*
X164010317Y-100187794D02*
X163144291Y-99687794D01*
X165478262Y-97415383D02*
X190566000Y-97415383D01*
X190566000Y-97415383D02*
X190566000Y-106548260D01*
X65786000Y-113372000D02*
X65786000Y-114372000D01*
X176035110Y-147510234D02*
X195090142Y-114505950D01*
X26206000Y-26142000D02*
X26206000Y-121402000D01*
X26206000Y-121402000D02*
X68311000Y-121402000D01*
X32736000Y-114372000D02*
X32736000Y-113372000D01*
X32736000Y-110372000D02*
X32736000Y-109372000D01*
X65786000Y-110372000D02*
X65786000Y-109372000D01*
X147824346Y-131222742D02*
X176035110Y-147510234D01*
X164288092Y-137806701D02*
X163422067Y-137306701D01*
X159524953Y-135056701D02*
X166524953Y-122932345D01*
X177783283Y-129432345D02*
X178649308Y-129932345D01*
X180308283Y-125058917D02*
X179908283Y-125751737D01*
X183411169Y-110684561D02*
X184277194Y-111184561D01*
X173813092Y-121308917D02*
X176411169Y-122808917D01*
X174752194Y-127682345D02*
X173886169Y-127182345D01*
X181174308Y-125558917D02*
X180308283Y-125058917D01*
X176411169Y-122808917D02*
X177277194Y-123308917D01*
X167752194Y-139806701D02*
X166886169Y-139306701D01*
X169515978Y-119751737D02*
X169915978Y-119058917D01*
X169049953Y-118558917D02*
X176049953Y-106434561D01*
X166886169Y-139306701D02*
X164288092Y-137806701D01*
X169915978Y-119058917D02*
X169049953Y-118558917D01*
X176877194Y-124001737D02*
X177277194Y-123308917D01*
X171288092Y-125682345D02*
X170422067Y-125182345D01*
X167790978Y-122739525D02*
X170822067Y-124489525D01*
X166524953Y-122932345D02*
X167390978Y-123432345D01*
X174752194Y-127682345D02*
X175152194Y-126989525D01*
X173886169Y-127182345D02*
X171288092Y-125682345D01*
X178183283Y-128739525D02*
X177783283Y-129432345D01*
X172547067Y-121501737D02*
X169515978Y-119751737D01*
X183411169Y-110684561D02*
X180813092Y-109184561D01*
X176411169Y-122808917D02*
X177277194Y-123308917D01*
X181174308Y-125558917D02*
X188174308Y-113434561D01*
X172947067Y-120808917D02*
X173813092Y-121308917D01*
X180813092Y-109184561D02*
X179947067Y-108684561D01*
X175152194Y-126989525D02*
X178183283Y-128739525D01*
X183411169Y-110684561D02*
X184277194Y-111184561D01*
X164288092Y-137806701D02*
X163422067Y-137306701D01*
X167752194Y-139806701D02*
X166886169Y-139306701D01*
X180813092Y-109184561D02*
X179947067Y-108684561D01*
X172947067Y-120808917D02*
X172547067Y-121501737D01*
X179908283Y-125751737D02*
X176877194Y-124001737D01*
X174752194Y-127682345D02*
X173886169Y-127182345D01*
X170822067Y-124489525D02*
X170422067Y-125182345D01*
X167390978Y-123432345D02*
X167790978Y-122739525D01*
X172947067Y-120808917D02*
X173813092Y-121308917D01*
X171288092Y-125682345D02*
X170422067Y-125182345D01*
X171649308Y-142056701D02*
X178649308Y-129932345D01*
X89086000Y-41672000D02*
X89886000Y-41672000D01*
X89086000Y-29672000D02*
X89086000Y-33172000D01*
X89886000Y-42672000D02*
X103886000Y-42672000D01*
X103886000Y-29672000D02*
X103886000Y-28672000D01*
X122936000Y-29672000D02*
X122936000Y-28672000D01*
X123736000Y-29672000D02*
X122936000Y-29672000D01*
X123736000Y-33172000D02*
X123736000Y-29672000D01*
X89886000Y-33172000D02*
X89886000Y-38172000D01*
X89086000Y-33172000D02*
X89886000Y-33172000D01*
X122936000Y-33172000D02*
X123736000Y-33172000D01*
X122936000Y-38172000D02*
X122936000Y-33172000D01*
X123736000Y-38172000D02*
X122936000Y-38172000D01*
X89886000Y-38172000D02*
X89086000Y-38172000D01*
X103886000Y-28672000D02*
X89886000Y-28672000D01*
X122936000Y-41672000D02*
X123736000Y-41672000D01*
X123736000Y-41672000D02*
X123736000Y-38172000D01*
X103886000Y-42672000D02*
X103886000Y-41672000D01*
X89086000Y-38172000D02*
X89086000Y-41672000D01*
X89886000Y-28672000D02*
X89886000Y-29672000D01*
X89886000Y-29672000D02*
X89086000Y-29672000D01*
X89886000Y-41672000D02*
X89886000Y-42672000D01*
X108936000Y-28672000D02*
X108936000Y-29672000D01*
X122936000Y-28672000D02*
X108936000Y-28672000D01*
X32736000Y-105872000D02*
X31936000Y-105872000D01*
X32736000Y-104872000D02*
X32736000Y-105872000D01*
X127986000Y-99822000D02*
X141986000Y-99822000D01*
X127986000Y-98822000D02*
X127986000Y-99822000D01*
X127186000Y-98822000D02*
X127986000Y-98822000D01*
X127986000Y-90322000D02*
X127986000Y-95322000D01*
X127986000Y-95322000D02*
X127186000Y-95322000D01*
X118174000Y-105872000D02*
X118174000Y-104872000D01*
X118974000Y-105872000D02*
X118174000Y-105872000D01*
X118174000Y-117872000D02*
X118974000Y-117872000D01*
X118174000Y-109372000D02*
X118974000Y-109372000D01*
X118174000Y-114372000D02*
X118174000Y-109372000D01*
X118974000Y-114372000D02*
X118174000Y-114372000D01*
X118974000Y-117872000D02*
X118974000Y-114372000D01*
X127186000Y-86822000D02*
X127186000Y-90322000D01*
X127186000Y-95322000D02*
X127186000Y-98822000D01*
X141986000Y-85822000D02*
X127986000Y-85822000D01*
X141986000Y-99822000D02*
X141986000Y-98822000D01*
X127186000Y-90322000D02*
X127986000Y-90322000D01*
X127986000Y-85822000D02*
X127986000Y-86822000D01*
X141986000Y-86822000D02*
X141986000Y-85822000D01*
X127986000Y-86822000D02*
X127186000Y-86822000D01*
X104174000Y-114372000D02*
X103374000Y-114372000D01*
X104174000Y-109372000D02*
X104174000Y-114372000D01*
X103374000Y-109372000D02*
X104174000Y-109372000D01*
X103374000Y-105872000D02*
X103374000Y-109372000D01*
X104174000Y-105872000D02*
X103374000Y-105872000D01*
X104174000Y-104872000D02*
X104174000Y-105872000D01*
X118174000Y-104872000D02*
X104174000Y-104872000D01*
X118974000Y-109372000D02*
X118974000Y-105872000D01*
X137606300Y-121913300D02*
X138379000Y-122120400D01*
X126283300Y-110079500D02*
X124989200Y-114909100D01*
X65786000Y-113372000D02*
X65786000Y-110372000D01*
X77841000Y-111872000D02*
X92124000Y-111872000D01*
X124083300Y-118289800D02*
X123824500Y-119255800D01*
X122078516Y-121402000D02*
X147826856Y-131218395D01*
X101649000Y-121397000D02*
X92124000Y-111872000D01*
X127448000Y-105732800D02*
X127189200Y-106698700D01*
X103374000Y-117872000D02*
X104174000Y-117872000D01*
X163566000Y-85415383D02*
X163566000Y-26142000D01*
X124989200Y-114909100D02*
X124216500Y-114702100D01*
X140579000Y-113910000D02*
X141484900Y-110529300D01*
X104174000Y-117872000D02*
X104174000Y-118872000D01*
X126416400Y-106491700D02*
X125510600Y-109872400D01*
X140970900Y-109356300D02*
X127448000Y-105732800D01*
X123310600Y-118082800D02*
X124083300Y-118289800D01*
X124216500Y-114702100D02*
X123310600Y-118082800D01*
X104174000Y-118872000D02*
X118174000Y-118872000D01*
X32736000Y-113372000D02*
X32736000Y-110372000D01*
X127189200Y-106698700D02*
X126416400Y-106491700D01*
X118174000Y-118872000D02*
X118174000Y-117872000D01*
X139284900Y-118739600D02*
X138512200Y-118532600D01*
X101649000Y-121397000D02*
X122078516Y-121402000D01*
X123824500Y-119255800D02*
X137347500Y-122879200D01*
X68311000Y-121402000D02*
X77841000Y-111872000D01*
X138512200Y-118532600D02*
X139806300Y-113702900D01*
X137347500Y-122879200D02*
X137606300Y-121913300D01*
X139806300Y-113702900D02*
X140579000Y-113910000D01*
X125510600Y-109872400D02*
X126283300Y-110079500D01*
X103374000Y-114372000D02*
X103374000Y-117872000D01*
X140712100Y-110322200D02*
X140970900Y-109356300D01*
X141484900Y-110529300D02*
X140712100Y-110322200D01*
X138379000Y-122120400D02*
X139284900Y-118739600D01*
X141986000Y-90322000D02*
X142786000Y-90322000D01*
X123736000Y-90322000D02*
X123736000Y-86822000D01*
X108136000Y-86822000D02*
X108136000Y-90322000D01*
X108936000Y-85822000D02*
X108936000Y-86822000D01*
X142786000Y-95322000D02*
X141986000Y-95322000D01*
X142786000Y-98822000D02*
X142786000Y-95322000D01*
X108136000Y-90322000D02*
X108936000Y-90322000D01*
X122936000Y-98822000D02*
X123736000Y-98822000D01*
X122936000Y-99822000D02*
X122936000Y-98822000D01*
X122936000Y-85822000D02*
X108936000Y-85822000D01*
X122936000Y-90322000D02*
X123736000Y-90322000D01*
X123736000Y-98822000D02*
X123736000Y-95322000D01*
X122936000Y-95322000D02*
X122936000Y-90322000D01*
X103886000Y-99822000D02*
X103886000Y-98822000D01*
X122936000Y-86822000D02*
X122936000Y-85822000D01*
X142786000Y-86822000D02*
X141986000Y-86822000D01*
X141986000Y-95322000D02*
X141986000Y-90322000D01*
X123736000Y-95322000D02*
X122936000Y-95322000D01*
X108136000Y-98822000D02*
X108936000Y-98822000D01*
X108936000Y-98822000D02*
X108936000Y-99822000D01*
X123736000Y-86822000D02*
X122936000Y-86822000D01*
X108936000Y-99822000D02*
X122936000Y-99822000D01*
X141986000Y-98822000D02*
X142786000Y-98822000D01*
X108136000Y-95322000D02*
X108136000Y-98822000D01*
X142786000Y-90322000D02*
X142786000Y-86822000D01*
X108936000Y-86822000D02*
X108136000Y-86822000D01*
X108936000Y-95322000D02*
X108136000Y-95322000D01*
X108936000Y-90322000D02*
X108936000Y-95322000D01*
X65786000Y-86822000D02*
X65786000Y-85822000D01*
X50986000Y-90322000D02*
X51786000Y-90322000D01*
X89886000Y-90322000D02*
X89886000Y-95322000D01*
X103886000Y-86822000D02*
X103886000Y-85822000D01*
X65786000Y-90322000D02*
X66586000Y-90322000D01*
X70836000Y-85822000D02*
X70836000Y-86822000D01*
X85636000Y-98822000D02*
X85636000Y-95322000D01*
X84836000Y-98822000D02*
X85636000Y-98822000D01*
X66586000Y-90322000D02*
X66586000Y-86822000D01*
X89086000Y-90322000D02*
X89886000Y-90322000D01*
X51786000Y-85822000D02*
X51786000Y-86822000D01*
X51786000Y-95322000D02*
X50986000Y-95322000D01*
X31936000Y-98822000D02*
X32736000Y-98822000D01*
X89086000Y-86822000D02*
X89086000Y-90322000D01*
X103886000Y-85822000D02*
X89886000Y-85822000D01*
X51786000Y-90322000D02*
X51786000Y-95322000D01*
X66586000Y-86822000D02*
X65786000Y-86822000D01*
X104686000Y-86822000D02*
X103886000Y-86822000D01*
X103886000Y-90322000D02*
X104686000Y-90322000D01*
X104686000Y-98822000D02*
X104686000Y-95322000D01*
X70836000Y-99822000D02*
X84836000Y-99822000D01*
X70836000Y-95322000D02*
X70036000Y-95322000D01*
X70036000Y-90322000D02*
X70836000Y-90322000D01*
X85636000Y-95322000D02*
X84836000Y-95322000D01*
X32736000Y-98822000D02*
X32736000Y-99822000D01*
X84836000Y-95322000D02*
X84836000Y-90322000D01*
X50986000Y-86822000D02*
X50986000Y-90322000D01*
X85636000Y-86822000D02*
X84836000Y-86822000D01*
X70836000Y-98822000D02*
X70836000Y-99822000D01*
X51786000Y-99822000D02*
X65786000Y-99822000D01*
X84836000Y-90322000D02*
X85636000Y-90322000D01*
X70836000Y-90322000D02*
X70836000Y-95322000D01*
X84836000Y-99822000D02*
X84836000Y-98822000D01*
X70836000Y-86822000D02*
X70036000Y-86822000D01*
X46736000Y-99822000D02*
X46736000Y-98822000D01*
X89886000Y-85822000D02*
X89886000Y-86822000D01*
X104686000Y-90322000D02*
X104686000Y-86822000D01*
X70036000Y-98822000D02*
X70836000Y-98822000D01*
X84836000Y-86822000D02*
X84836000Y-85822000D01*
X50986000Y-98822000D02*
X51786000Y-98822000D01*
X103886000Y-95322000D02*
X103886000Y-90322000D01*
X104686000Y-95322000D02*
X103886000Y-95322000D01*
X31936000Y-95322000D02*
X31936000Y-98822000D01*
X103886000Y-98822000D02*
X104686000Y-98822000D01*
X70036000Y-95322000D02*
X70036000Y-98822000D01*
X65786000Y-99822000D02*
X65786000Y-98822000D01*
X65786000Y-85822000D02*
X51786000Y-85822000D01*
X51786000Y-86822000D02*
X50986000Y-86822000D01*
X51786000Y-98822000D02*
X51786000Y-99822000D01*
X66586000Y-98822000D02*
X66586000Y-95322000D01*
X32736000Y-99822000D02*
X46736000Y-99822000D01*
X84836000Y-85822000D02*
X70836000Y-85822000D01*
X70036000Y-86822000D02*
X70036000Y-90322000D01*
X65786000Y-95322000D02*
X65786000Y-90322000D01*
X66586000Y-95322000D02*
X65786000Y-95322000D01*
X50986000Y-95322000D02*
X50986000Y-98822000D01*
X65786000Y-98822000D02*
X66586000Y-98822000D01*
X89886000Y-99822000D02*
X103886000Y-99822000D01*
X89886000Y-98822000D02*
X89886000Y-99822000D01*
X89086000Y-98822000D02*
X89886000Y-98822000D01*
X89086000Y-95322000D02*
X89086000Y-98822000D01*
X89886000Y-95322000D02*
X89086000Y-95322000D01*
X85636000Y-90322000D02*
X85636000Y-86822000D01*
X89886000Y-86822000D02*
X89086000Y-86822000D01*
X66586000Y-71272000D02*
X66586000Y-67772000D01*
X84836000Y-80772000D02*
X84836000Y-79772000D01*
X70836000Y-80772000D02*
X84836000Y-80772000D01*
X70836000Y-79772000D02*
X70836000Y-80772000D01*
X84836000Y-66772000D02*
X70836000Y-66772000D01*
X65786000Y-80772000D02*
X65786000Y-79772000D01*
X70836000Y-67772000D02*
X70036000Y-67772000D01*
X65786000Y-79772000D02*
X66586000Y-79772000D01*
X46736000Y-80772000D02*
X46736000Y-79772000D01*
X50986000Y-67772000D02*
X50986000Y-71272000D01*
X70036000Y-79772000D02*
X70836000Y-79772000D01*
X70836000Y-76272000D02*
X70036000Y-76272000D01*
X85636000Y-76272000D02*
X84836000Y-76272000D01*
X85636000Y-79772000D02*
X85636000Y-76272000D01*
X84836000Y-76272000D02*
X84836000Y-71272000D01*
X51786000Y-76272000D02*
X50986000Y-76272000D01*
X70036000Y-76272000D02*
X70036000Y-79772000D01*
X51786000Y-79772000D02*
X51786000Y-80772000D01*
X65786000Y-67772000D02*
X65786000Y-66772000D01*
X66586000Y-76272000D02*
X65786000Y-76272000D01*
X66586000Y-79772000D02*
X66586000Y-76272000D01*
X84836000Y-71272000D02*
X85636000Y-71272000D01*
X70836000Y-71272000D02*
X70836000Y-76272000D01*
X70036000Y-67772000D02*
X70036000Y-71272000D01*
X84836000Y-67772000D02*
X84836000Y-66772000D01*
X50986000Y-76272000D02*
X50986000Y-79772000D01*
X51786000Y-80772000D02*
X65786000Y-80772000D01*
X65786000Y-66772000D02*
X51786000Y-66772000D01*
X84836000Y-79772000D02*
X85636000Y-79772000D01*
X32736000Y-80772000D02*
X46736000Y-80772000D01*
X70836000Y-66772000D02*
X70836000Y-67772000D01*
X85636000Y-67772000D02*
X84836000Y-67772000D01*
X51786000Y-71272000D02*
X51786000Y-76272000D01*
X85636000Y-71272000D02*
X85636000Y-67772000D01*
X66586000Y-67772000D02*
X65786000Y-67772000D01*
X65786000Y-76272000D02*
X65786000Y-71272000D01*
X50986000Y-79772000D02*
X51786000Y-79772000D01*
X65786000Y-71272000D02*
X66586000Y-71272000D01*
X51786000Y-67772000D02*
X50986000Y-67772000D01*
X51786000Y-66772000D02*
X51786000Y-67772000D01*
X103886000Y-79772000D02*
X104686000Y-79772000D01*
X70036000Y-71272000D02*
X70836000Y-71272000D01*
X50986000Y-71272000D02*
X51786000Y-71272000D01*
X104686000Y-76272000D02*
X103886000Y-76272000D01*
X104686000Y-79772000D02*
X104686000Y-76272000D01*
X32736000Y-79772000D02*
X32736000Y-80772000D01*
X51786000Y-29672000D02*
X50986000Y-29672000D01*
X50986000Y-38172000D02*
X50986000Y-41672000D01*
X65786000Y-29672000D02*
X65786000Y-28672000D01*
X66586000Y-29672000D02*
X65786000Y-29672000D01*
X65786000Y-28672000D02*
X51786000Y-28672000D01*
X65786000Y-33172000D02*
X66586000Y-33172000D01*
X65786000Y-38172000D02*
X65786000Y-33172000D01*
X51786000Y-41672000D02*
X51786000Y-42672000D01*
X66586000Y-41672000D02*
X66586000Y-38172000D01*
X66586000Y-38172000D02*
X65786000Y-38172000D01*
X84836000Y-38172000D02*
X84836000Y-33172000D01*
X85636000Y-38172000D02*
X84836000Y-38172000D01*
X51786000Y-38172000D02*
X50986000Y-38172000D01*
X51786000Y-33172000D02*
X51786000Y-38172000D01*
X85636000Y-41672000D02*
X85636000Y-38172000D01*
X84836000Y-41672000D02*
X85636000Y-41672000D01*
X50986000Y-33172000D02*
X51786000Y-33172000D01*
X50986000Y-29672000D02*
X50986000Y-33172000D01*
X51786000Y-28672000D02*
X51786000Y-29672000D01*
X50986000Y-41672000D02*
X51786000Y-41672000D01*
X66586000Y-33172000D02*
X66586000Y-29672000D01*
X65786000Y-42672000D02*
X65786000Y-41672000D01*
X51786000Y-42672000D02*
X65786000Y-42672000D01*
X127186000Y-57222000D02*
X127186000Y-60722000D01*
X147036000Y-60722000D02*
X147036000Y-61722000D01*
X146236000Y-48722000D02*
X146236000Y-52222000D01*
X147036000Y-57222000D02*
X146236000Y-57222000D01*
X161036000Y-57222000D02*
X161036000Y-52222000D01*
X161836000Y-48722000D02*
X161036000Y-48722000D01*
X161836000Y-57222000D02*
X161036000Y-57222000D01*
X127986000Y-60722000D02*
X127986000Y-61722000D01*
X31936000Y-79772000D02*
X32736000Y-79772000D01*
X32736000Y-71272000D02*
X32736000Y-76272000D01*
X31936000Y-67772000D02*
X31936000Y-71272000D01*
X147036000Y-48722000D02*
X146236000Y-48722000D01*
X32736000Y-67772000D02*
X31936000Y-67772000D01*
X127986000Y-57222000D02*
X127186000Y-57222000D01*
X46736000Y-76272000D02*
X46736000Y-71272000D01*
X47536000Y-76272000D02*
X46736000Y-76272000D01*
X47536000Y-79772000D02*
X47536000Y-76272000D01*
X161036000Y-60722000D02*
X161836000Y-60722000D01*
X46736000Y-79772000D02*
X47536000Y-79772000D01*
X146236000Y-52222000D02*
X147036000Y-52222000D01*
X161036000Y-48722000D02*
X161036000Y-47722000D01*
X146236000Y-60722000D02*
X147036000Y-60722000D01*
X161836000Y-60722000D02*
X161836000Y-57222000D01*
X146236000Y-57222000D02*
X146236000Y-60722000D01*
X127986000Y-52222000D02*
X127986000Y-57222000D01*
X31936000Y-76272000D02*
X31936000Y-79772000D01*
X46736000Y-66772000D02*
X32736000Y-66772000D01*
X32736000Y-76272000D02*
X31936000Y-76272000D01*
X161036000Y-47722000D02*
X147036000Y-47722000D01*
X147036000Y-52222000D02*
X147036000Y-57222000D01*
X31936000Y-71272000D02*
X32736000Y-71272000D01*
X32736000Y-66772000D02*
X32736000Y-67772000D01*
X46736000Y-67772000D02*
X46736000Y-66772000D01*
X127186000Y-60722000D02*
X127986000Y-60722000D01*
X127986000Y-61722000D02*
X141986000Y-61722000D01*
X46736000Y-71272000D02*
X47536000Y-71272000D01*
X161036000Y-61722000D02*
X161036000Y-60722000D01*
X141986000Y-61722000D02*
X141986000Y-60722000D01*
X161036000Y-52222000D02*
X161836000Y-52222000D01*
X47536000Y-67772000D02*
X46736000Y-67772000D01*
X47536000Y-71272000D02*
X47536000Y-67772000D01*
X127186000Y-52222000D02*
X127986000Y-52222000D01*
X127186000Y-48722000D02*
X127186000Y-52222000D01*
X161836000Y-52222000D02*
X161836000Y-48722000D01*
X147036000Y-47722000D02*
X147036000Y-48722000D01*
X147036000Y-61722000D02*
X161036000Y-61722000D01*
X46736000Y-52222000D02*
X47536000Y-52222000D01*
X46736000Y-57222000D02*
X46736000Y-52222000D01*
X46736000Y-60722000D02*
X47536000Y-60722000D01*
X147036000Y-42672000D02*
X161036000Y-42672000D01*
X32736000Y-47722000D02*
X32736000Y-48722000D01*
X146236000Y-41672000D02*
X147036000Y-41672000D01*
X32736000Y-61722000D02*
X46736000Y-61722000D01*
X47536000Y-60722000D02*
X47536000Y-57222000D01*
X32736000Y-60722000D02*
X32736000Y-61722000D01*
X32736000Y-57222000D02*
X31936000Y-57222000D01*
X161036000Y-42672000D02*
X161036000Y-41672000D01*
X31936000Y-52222000D02*
X32736000Y-52222000D01*
X47536000Y-57222000D02*
X46736000Y-57222000D01*
X31936000Y-60722000D02*
X32736000Y-60722000D01*
X31936000Y-57222000D02*
X31936000Y-60722000D01*
X32736000Y-48722000D02*
X31936000Y-48722000D01*
X32736000Y-52222000D02*
X32736000Y-57222000D01*
X31936000Y-48722000D02*
X31936000Y-52222000D01*
X46736000Y-48722000D02*
X46736000Y-47722000D01*
X46736000Y-47722000D02*
X32736000Y-47722000D01*
X47536000Y-48722000D02*
X46736000Y-48722000D01*
X147036000Y-41672000D02*
X147036000Y-42672000D01*
X47536000Y-52222000D02*
X47536000Y-48722000D01*
X147036000Y-28672000D02*
X147036000Y-29672000D01*
X161836000Y-33172000D02*
X161836000Y-29672000D01*
X161036000Y-41672000D02*
X161836000Y-41672000D01*
X146236000Y-38172000D02*
X146236000Y-41672000D01*
X161036000Y-33172000D02*
X161836000Y-33172000D01*
X161836000Y-38172000D02*
X161036000Y-38172000D01*
X127186000Y-38172000D02*
X127186000Y-41672000D01*
X141986000Y-42672000D02*
X141986000Y-41672000D01*
X127986000Y-41672000D02*
X127986000Y-42672000D01*
X147036000Y-38172000D02*
X146236000Y-38172000D01*
X127986000Y-33172000D02*
X127986000Y-38172000D01*
X147036000Y-33172000D02*
X147036000Y-38172000D01*
X146236000Y-33172000D02*
X147036000Y-33172000D01*
X146236000Y-29672000D02*
X146236000Y-33172000D01*
X147036000Y-29672000D02*
X146236000Y-29672000D01*
X161036000Y-28672000D02*
X147036000Y-28672000D01*
X161036000Y-29672000D02*
X161036000Y-28672000D01*
X127186000Y-41672000D02*
X127986000Y-41672000D01*
X127986000Y-42672000D02*
X141986000Y-42672000D01*
X161836000Y-41672000D02*
X161836000Y-38172000D01*
X127986000Y-38172000D02*
X127186000Y-38172000D01*
X161036000Y-38172000D02*
X161036000Y-33172000D01*
X161836000Y-29672000D02*
X161036000Y-29672000D01*
X141986000Y-29672000D02*
X141986000Y-28672000D01*
X142786000Y-41672000D02*
X142786000Y-38172000D01*
X122936000Y-42672000D02*
X122936000Y-41672000D01*
X127986000Y-29672000D02*
X127186000Y-29672000D01*
X108936000Y-41672000D02*
X108936000Y-42672000D01*
X141986000Y-38172000D02*
X141986000Y-33172000D01*
X108936000Y-29672000D02*
X108136000Y-29672000D01*
X127186000Y-33172000D02*
X127986000Y-33172000D01*
X127186000Y-29672000D02*
X127186000Y-33172000D01*
X127986000Y-28672000D02*
X127986000Y-29672000D01*
X108136000Y-38172000D02*
X108136000Y-41672000D01*
X141986000Y-28672000D02*
X127986000Y-28672000D01*
X142786000Y-29672000D02*
X141986000Y-29672000D01*
X108936000Y-38172000D02*
X108136000Y-38172000D01*
X108136000Y-29672000D02*
X108136000Y-33172000D01*
X142786000Y-33172000D02*
X142786000Y-29672000D01*
X108936000Y-33172000D02*
X108936000Y-38172000D01*
X108936000Y-42672000D02*
X122936000Y-42672000D01*
X141986000Y-33172000D02*
X142786000Y-33172000D01*
X142786000Y-38172000D02*
X141986000Y-38172000D01*
X108136000Y-41672000D02*
X108936000Y-41672000D01*
X108136000Y-33172000D02*
X108936000Y-33172000D01*
X141986000Y-41672000D02*
X142786000Y-41672000D01*
X104686000Y-52222000D02*
X104686000Y-48722000D01*
X89886000Y-57222000D02*
X89086000Y-57222000D01*
X89886000Y-52222000D02*
X89886000Y-57222000D01*
X122936000Y-52222000D02*
X123736000Y-52222000D01*
X122936000Y-48722000D02*
X122936000Y-47722000D01*
X127986000Y-48722000D02*
X127186000Y-48722000D01*
X127986000Y-47722000D02*
X127986000Y-48722000D01*
X108136000Y-60722000D02*
X108936000Y-60722000D01*
X141986000Y-47722000D02*
X127986000Y-47722000D01*
X141986000Y-48722000D02*
X141986000Y-47722000D01*
X141986000Y-52222000D02*
X142786000Y-52222000D01*
X141986000Y-57222000D02*
X141986000Y-52222000D01*
X108936000Y-57222000D02*
X108136000Y-57222000D01*
X104686000Y-48722000D02*
X103886000Y-48722000D01*
X108936000Y-52222000D02*
X108936000Y-57222000D01*
X122936000Y-47722000D02*
X108936000Y-47722000D01*
X89086000Y-52222000D02*
X89886000Y-52222000D01*
X89886000Y-60722000D02*
X89886000Y-61722000D01*
X89086000Y-57222000D02*
X89086000Y-60722000D01*
X122936000Y-60722000D02*
X123736000Y-60722000D01*
X142786000Y-57222000D02*
X141986000Y-57222000D01*
X122936000Y-61722000D02*
X122936000Y-60722000D01*
X103886000Y-48722000D02*
X103886000Y-47722000D01*
X142786000Y-48722000D02*
X141986000Y-48722000D01*
X108136000Y-48722000D02*
X108136000Y-52222000D01*
X142786000Y-60722000D02*
X142786000Y-57222000D01*
X108936000Y-60722000D02*
X108936000Y-61722000D01*
X123736000Y-52222000D02*
X123736000Y-48722000D01*
X122936000Y-57222000D02*
X122936000Y-52222000D01*
X89886000Y-61722000D02*
X103886000Y-61722000D01*
X89886000Y-47722000D02*
X89886000Y-48722000D01*
X108136000Y-52222000D02*
X108936000Y-52222000D01*
X108936000Y-48722000D02*
X108136000Y-48722000D01*
X123736000Y-48722000D02*
X122936000Y-48722000D01*
X108936000Y-47722000D02*
X108936000Y-48722000D01*
X123736000Y-60722000D02*
X123736000Y-57222000D01*
X103886000Y-61722000D02*
X103886000Y-60722000D01*
X142786000Y-52222000D02*
X142786000Y-48722000D01*
X141986000Y-60722000D02*
X142786000Y-60722000D01*
X108936000Y-61722000D02*
X122936000Y-61722000D01*
X89086000Y-60722000D02*
X89886000Y-60722000D01*
X108136000Y-57222000D02*
X108136000Y-60722000D01*
X89886000Y-48722000D02*
X89086000Y-48722000D01*
X123736000Y-57222000D02*
X122936000Y-57222000D01*
X89086000Y-48722000D02*
X89086000Y-52222000D01*
X103886000Y-47722000D02*
X89886000Y-47722000D01*
X50986000Y-57222000D02*
X50986000Y-60722000D01*
X104686000Y-60722000D02*
X104686000Y-57222000D01*
X103886000Y-60722000D02*
X104686000Y-60722000D01*
X84836000Y-61722000D02*
X84836000Y-60722000D01*
X70036000Y-57222000D02*
X70036000Y-60722000D01*
X70036000Y-60722000D02*
X70836000Y-60722000D01*
X50986000Y-48722000D02*
X50986000Y-52222000D01*
X51786000Y-60722000D02*
X51786000Y-61722000D01*
X70836000Y-60722000D02*
X70836000Y-61722000D01*
X65786000Y-52222000D02*
X66586000Y-52222000D01*
X70836000Y-52222000D02*
X70836000Y-57222000D01*
X70036000Y-52222000D02*
X70836000Y-52222000D01*
X85636000Y-60722000D02*
X85636000Y-57222000D01*
X51786000Y-57222000D02*
X50986000Y-57222000D01*
X85636000Y-48722000D02*
X84836000Y-48722000D01*
X65786000Y-47722000D02*
X51786000Y-47722000D01*
X66586000Y-60722000D02*
X66586000Y-57222000D01*
X70836000Y-48722000D02*
X70036000Y-48722000D01*
X84836000Y-52222000D02*
X85636000Y-52222000D01*
X84836000Y-48722000D02*
X84836000Y-47722000D01*
X66586000Y-57222000D02*
X65786000Y-57222000D01*
X65786000Y-60722000D02*
X66586000Y-60722000D01*
X46736000Y-61722000D02*
X46736000Y-60722000D01*
X51786000Y-52222000D02*
X51786000Y-57222000D01*
X70036000Y-48722000D02*
X70036000Y-52222000D01*
X65786000Y-61722000D02*
X65786000Y-60722000D01*
X51786000Y-47722000D02*
X51786000Y-48722000D01*
X84836000Y-47722000D02*
X70836000Y-47722000D01*
X66586000Y-52222000D02*
X66586000Y-48722000D01*
X103886000Y-52222000D02*
X104686000Y-52222000D01*
X103886000Y-57222000D02*
X103886000Y-52222000D01*
X85636000Y-52222000D02*
X85636000Y-48722000D01*
X50986000Y-60722000D02*
X51786000Y-60722000D01*
X65786000Y-48722000D02*
X65786000Y-47722000D01*
X70836000Y-61722000D02*
X84836000Y-61722000D01*
X70836000Y-57222000D02*
X70036000Y-57222000D01*
X84836000Y-57222000D02*
X84836000Y-52222000D01*
X85636000Y-57222000D02*
X84836000Y-57222000D01*
X51786000Y-61722000D02*
X65786000Y-61722000D01*
X51786000Y-48722000D02*
X50986000Y-48722000D01*
X65786000Y-57222000D02*
X65786000Y-52222000D01*
X104686000Y-57222000D02*
X103886000Y-57222000D01*
X70836000Y-47722000D02*
X70836000Y-48722000D01*
X66586000Y-48722000D02*
X65786000Y-48722000D01*
X84836000Y-60722000D02*
X85636000Y-60722000D01*
X50986000Y-52222000D02*
X51786000Y-52222000D01*
X70836000Y-29672000D02*
X70036000Y-29672000D01*
X70836000Y-38172000D02*
X70036000Y-38172000D01*
X70836000Y-28672000D02*
X70836000Y-29672000D01*
X84836000Y-28672000D02*
X70836000Y-28672000D01*
X103886000Y-38172000D02*
X103886000Y-33172000D01*
X70036000Y-33172000D02*
X70836000Y-33172000D01*
X70036000Y-29672000D02*
X70036000Y-33172000D01*
X104686000Y-41672000D02*
X104686000Y-38172000D01*
X70836000Y-41672000D02*
X70836000Y-42672000D01*
X70036000Y-41672000D02*
X70836000Y-41672000D01*
X85636000Y-29672000D02*
X84836000Y-29672000D01*
X70036000Y-38172000D02*
X70036000Y-41672000D01*
X84836000Y-29672000D02*
X84836000Y-28672000D01*
X84836000Y-33172000D02*
X85636000Y-33172000D01*
X104686000Y-33172000D02*
X104686000Y-29672000D01*
X70836000Y-42672000D02*
X84836000Y-42672000D01*
X104686000Y-38172000D02*
X103886000Y-38172000D01*
X103886000Y-41672000D02*
X104686000Y-41672000D01*
X70836000Y-33172000D02*
X70836000Y-38172000D01*
X84836000Y-42672000D02*
X84836000Y-41672000D01*
X85636000Y-33172000D02*
X85636000Y-29672000D01*
X104686000Y-29672000D02*
X103886000Y-29672000D01*
X103886000Y-33172000D02*
X104686000Y-33172000D01*
X31936000Y-114372000D02*
X31936000Y-117872000D01*
X147824346Y-131222742D02*
X176035110Y-147510234D01*
X31936000Y-109372000D02*
X32736000Y-109372000D01*
X66586000Y-117872000D02*
X66586000Y-114372000D01*
X66586000Y-105872000D02*
X65786000Y-105872000D01*
X65786000Y-118872000D02*
X65786000Y-117872000D01*
X26206000Y-121402000D02*
X68311000Y-121402000D01*
X65786000Y-109372000D02*
X66586000Y-109372000D01*
X26206000Y-26142000D02*
X26206000Y-121402000D01*
X32736000Y-104872000D02*
X65786000Y-104872000D01*
X31936000Y-117872000D02*
X32736000Y-117872000D01*
X65786000Y-117872000D02*
X66586000Y-117872000D01*
X32736000Y-117872000D02*
X32736000Y-118872000D01*
X32736000Y-114372000D02*
X31936000Y-114372000D01*
X66586000Y-114372000D02*
X65786000Y-114372000D01*
X66586000Y-109372000D02*
X66586000Y-105872000D01*
X32736000Y-118872000D02*
X65786000Y-118872000D01*
X65786000Y-110372000D02*
X65786000Y-109372000D01*
X32736000Y-114372000D02*
X32736000Y-113372000D01*
X65786000Y-113372000D02*
X65786000Y-114372000D01*
X31936000Y-105872000D02*
X31936000Y-109372000D01*
X176035110Y-147510234D02*
X195090142Y-114505950D01*
X65786000Y-105872000D02*
X65786000Y-104872000D01*
X46736000Y-33172000D02*
X47536000Y-33172000D01*
X47536000Y-29672000D02*
X46736000Y-29672000D01*
X46736000Y-38172000D02*
X46736000Y-33172000D01*
X46736000Y-41672000D02*
X47536000Y-41672000D01*
X47536000Y-41672000D02*
X47536000Y-38172000D01*
X31936000Y-41672000D02*
X32736000Y-41672000D01*
X32736000Y-38172000D02*
X31936000Y-38172000D01*
X32736000Y-29672000D02*
X31936000Y-29672000D01*
X31936000Y-29672000D02*
X31936000Y-33172000D01*
X31936000Y-38172000D02*
X31936000Y-41672000D01*
X31936000Y-33172000D02*
X32736000Y-33172000D01*
X32736000Y-110372000D02*
X32736000Y-109372000D01*
X47536000Y-38172000D02*
X46736000Y-38172000D01*
X46736000Y-28672000D02*
X32736000Y-28672000D01*
X46736000Y-42672000D02*
X46736000Y-41672000D01*
X26206000Y-26142000D02*
X163566000Y-26142000D01*
X47536000Y-33172000D02*
X47536000Y-29672000D01*
X32736000Y-28672000D02*
X32736000Y-29672000D01*
X65786000Y-41672000D02*
X66586000Y-41672000D01*
X46736000Y-29672000D02*
X46736000Y-28672000D01*
X32736000Y-33172000D02*
X32736000Y-38172000D01*
X32736000Y-42672000D02*
X46736000Y-42672000D01*
X32736000Y-41672000D02*
X32736000Y-42672000D01*
X108936000Y-67772000D02*
X108136000Y-67772000D01*
X108936000Y-66772000D02*
X108936000Y-67772000D01*
X122936000Y-66772000D02*
X108936000Y-66772000D01*
X89086000Y-67772000D02*
X89086000Y-71272000D01*
X123736000Y-67772000D02*
X122936000Y-67772000D01*
X122936000Y-67772000D02*
X122936000Y-66772000D01*
X122936000Y-79772000D02*
X123736000Y-79772000D01*
X89886000Y-79772000D02*
X89886000Y-80772000D01*
X103886000Y-67772000D02*
X103886000Y-66772000D01*
X89086000Y-76272000D02*
X89086000Y-79772000D01*
X89886000Y-80772000D02*
X103886000Y-80772000D01*
X89086000Y-71272000D02*
X89886000Y-71272000D01*
X103886000Y-76272000D02*
X103886000Y-71272000D01*
X89886000Y-66772000D02*
X89886000Y-67772000D01*
X104686000Y-67772000D02*
X103886000Y-67772000D01*
X123736000Y-76272000D02*
X122936000Y-76272000D01*
X123736000Y-71272000D02*
X123736000Y-67772000D01*
X89886000Y-71272000D02*
X89886000Y-76272000D01*
X122936000Y-71272000D02*
X123736000Y-71272000D01*
X122936000Y-76272000D02*
X122936000Y-71272000D01*
X103886000Y-66772000D02*
X89886000Y-66772000D01*
X123736000Y-79772000D02*
X123736000Y-76272000D01*
X103886000Y-80772000D02*
X103886000Y-79772000D01*
X89086000Y-79772000D02*
X89886000Y-79772000D01*
X89886000Y-67772000D02*
X89086000Y-67772000D01*
X104686000Y-71272000D02*
X104686000Y-67772000D01*
X103886000Y-71272000D02*
X104686000Y-71272000D01*
X89886000Y-76272000D02*
X89086000Y-76272000D01*
X127186000Y-67772000D02*
X127186000Y-71272000D01*
X161036000Y-76272000D02*
X161036000Y-71272000D01*
X127986000Y-79772000D02*
X127986000Y-80772000D01*
X146236000Y-79772000D02*
X147036000Y-79772000D01*
X142786000Y-67772000D02*
X141986000Y-67772000D01*
X46736000Y-98822000D02*
X47536000Y-98822000D01*
X146236000Y-67772000D02*
X146236000Y-71272000D01*
X108936000Y-80772000D02*
X122936000Y-80772000D01*
X146236000Y-71272000D02*
X147036000Y-71272000D01*
X127186000Y-76272000D02*
X127186000Y-79772000D01*
X31936000Y-90322000D02*
X32736000Y-90322000D01*
X31936000Y-86822000D02*
X31936000Y-90322000D01*
X127986000Y-76272000D02*
X127186000Y-76272000D01*
X147036000Y-71272000D02*
X147036000Y-76272000D01*
X161036000Y-66772000D02*
X147036000Y-66772000D01*
X141986000Y-76272000D02*
X141986000Y-71272000D01*
X141986000Y-79772000D02*
X142786000Y-79772000D01*
X32736000Y-86822000D02*
X31936000Y-86822000D01*
X32736000Y-85822000D02*
X32736000Y-86822000D01*
X108936000Y-76272000D02*
X108136000Y-76272000D01*
X46736000Y-85822000D02*
X32736000Y-85822000D01*
X147036000Y-76272000D02*
X146236000Y-76272000D01*
X46736000Y-86822000D02*
X46736000Y-85822000D01*
X47536000Y-90322000D02*
X47536000Y-86822000D01*
X46736000Y-95322000D02*
X46736000Y-90322000D01*
X46736000Y-90322000D02*
X47536000Y-90322000D01*
X147036000Y-66772000D02*
X147036000Y-67772000D01*
X161036000Y-71272000D02*
X161836000Y-71272000D01*
X122936000Y-80772000D02*
X122936000Y-79772000D01*
X47536000Y-98822000D02*
X47536000Y-95322000D01*
X161036000Y-80772000D02*
X161036000Y-79772000D01*
X127986000Y-80772000D02*
X141986000Y-80772000D01*
X108136000Y-79772000D02*
X108936000Y-79772000D01*
X108936000Y-71272000D02*
X108936000Y-76272000D01*
X142786000Y-71272000D02*
X142786000Y-67772000D01*
X127986000Y-67772000D02*
X127186000Y-67772000D01*
X127186000Y-79772000D02*
X127986000Y-79772000D01*
X142786000Y-79772000D02*
X142786000Y-76272000D01*
X161836000Y-71272000D02*
X161836000Y-67772000D01*
X141986000Y-67772000D02*
X141986000Y-66772000D01*
X147036000Y-67772000D02*
X146236000Y-67772000D01*
X32736000Y-95322000D02*
X31936000Y-95322000D01*
X32736000Y-90322000D02*
X32736000Y-95322000D01*
X127986000Y-71272000D02*
X127986000Y-76272000D01*
X47536000Y-86822000D02*
X46736000Y-86822000D01*
X47536000Y-95322000D02*
X46736000Y-95322000D01*
X161836000Y-76272000D02*
X161036000Y-76272000D01*
X108136000Y-76272000D02*
X108136000Y-79772000D01*
X161836000Y-79772000D02*
X161836000Y-76272000D01*
X161036000Y-79772000D02*
X161836000Y-79772000D01*
X141986000Y-66772000D02*
X127986000Y-66772000D01*
X141986000Y-71272000D02*
X142786000Y-71272000D01*
X127186000Y-71272000D02*
X127986000Y-71272000D01*
X142786000Y-76272000D02*
X141986000Y-76272000D01*
X161036000Y-67772000D02*
X161036000Y-66772000D01*
X161836000Y-67772000D02*
X161036000Y-67772000D01*
X127986000Y-66772000D02*
X127986000Y-67772000D01*
X108136000Y-71272000D02*
X108936000Y-71272000D01*
X108936000Y-79772000D02*
X108936000Y-80772000D01*
X108136000Y-67772000D02*
X108136000Y-71272000D01*
X147036000Y-80772000D02*
X161036000Y-80772000D01*
X147036000Y-79772000D02*
X147036000Y-80772000D01*
X146236000Y-76272000D02*
X146236000Y-79772000D01*
X141986000Y-80772000D02*
X141986000Y-79772000D01*
M02*
