G04 #@! TF.GenerationSoftware,KiCad,Pcbnew,(5.0.0)*
G04 #@! TF.CreationDate,2019-01-26T20:43:56+09:00*
G04 #@! TF.ProjectId,Manta60BLE_Bottom,4D616E74613630424C455F426F74746F,rev?*
G04 #@! TF.SameCoordinates,Original*
G04 #@! TF.FileFunction,Legend,Bot*
G04 #@! TF.FilePolarity,Positive*
%FSLAX46Y46*%
G04 Gerber Fmt 4.6, Leading zero omitted, Abs format (unit mm)*
G04 Created by KiCad (PCBNEW (5.0.0)) date 01/26/19 20:43:56*
%MOMM*%
%LPD*%
G01*
G04 APERTURE LIST*
%ADD10C,0.010000*%
G04 APERTURE END LIST*
D10*
G04 #@! TO.C,G\002A\002A\002A*
G36*
X102531333Y-114458750D02*
X104224666Y-114458750D01*
X104224666Y-110733417D01*
X102531333Y-110733417D01*
X102531333Y-114458750D01*
X102531333Y-114458750D01*
G37*
X102531333Y-114458750D02*
X104224666Y-114458750D01*
X104224666Y-110733417D01*
X102531333Y-110733417D01*
X102531333Y-114458750D01*
G36*
X101510577Y-108786535D02*
X101009792Y-108789317D01*
X100628779Y-108796565D01*
X100342757Y-108810417D01*
X100126945Y-108833011D01*
X99956561Y-108866483D01*
X99806827Y-108912972D01*
X99652960Y-108974615D01*
X99573581Y-109008817D01*
X99060000Y-109231551D01*
X99060000Y-114458750D01*
X100753333Y-114458750D01*
X100753333Y-110479417D01*
X104224666Y-110479417D01*
X104224666Y-108786083D01*
X102155914Y-108786083D01*
X101510577Y-108786535D01*
X101510577Y-108786535D01*
G37*
X101510577Y-108786535D02*
X101009792Y-108789317D01*
X100628779Y-108796565D01*
X100342757Y-108810417D01*
X100126945Y-108833011D01*
X99956561Y-108866483D01*
X99806827Y-108912972D01*
X99652960Y-108974615D01*
X99573581Y-109008817D01*
X99060000Y-109231551D01*
X99060000Y-114458750D01*
X100753333Y-114458750D01*
X100753333Y-110479417D01*
X104224666Y-110479417D01*
X104224666Y-108786083D01*
X102155914Y-108786083D01*
X101510577Y-108786535D01*
G36*
X97091500Y-112165984D02*
X96927311Y-112234874D01*
X96659644Y-112352684D01*
X96338705Y-112497233D01*
X96244833Y-112540072D01*
X95588666Y-112840449D01*
X95588666Y-114458750D01*
X97282000Y-114458750D01*
X97282000Y-112092274D01*
X97091500Y-112165984D01*
X97091500Y-112165984D01*
G37*
X97091500Y-112165984D02*
X96927311Y-112234874D01*
X96659644Y-112352684D01*
X96338705Y-112497233D01*
X96244833Y-112540072D01*
X95588666Y-112840449D01*
X95588666Y-114458750D01*
X97282000Y-114458750D01*
X97282000Y-112092274D01*
X97091500Y-112165984D01*
G36*
X89831333Y-114458750D02*
X95250000Y-114458750D01*
X95250000Y-112765417D01*
X89831333Y-112765417D01*
X89831333Y-114458750D01*
X89831333Y-114458750D01*
G37*
X89831333Y-114458750D02*
X95250000Y-114458750D01*
X95250000Y-112765417D01*
X89831333Y-112765417D01*
X89831333Y-114458750D01*
G36*
X87884000Y-114458750D02*
X89492666Y-114458750D01*
X89492666Y-110733417D01*
X87884000Y-110733417D01*
X87884000Y-114458750D01*
X87884000Y-114458750D01*
G37*
X87884000Y-114458750D02*
X89492666Y-114458750D01*
X89492666Y-110733417D01*
X87884000Y-110733417D01*
X87884000Y-114458750D01*
G36*
X85852000Y-114458750D02*
X87545333Y-114458750D01*
X87545333Y-110733417D01*
X85852000Y-110733417D01*
X85852000Y-114458750D01*
X85852000Y-114458750D01*
G37*
X85852000Y-114458750D02*
X87545333Y-114458750D01*
X87545333Y-110733417D01*
X85852000Y-110733417D01*
X85852000Y-114458750D01*
G36*
X81625868Y-110087513D02*
X81408069Y-110171913D01*
X81110066Y-110294455D01*
X80923582Y-110373583D01*
X80183199Y-110691083D01*
X80181266Y-112574917D01*
X80179333Y-114458750D01*
X81788000Y-114458750D01*
X81788000Y-112257417D01*
X81785719Y-111666863D01*
X81779294Y-111136168D01*
X81769351Y-110687562D01*
X81756516Y-110343273D01*
X81741416Y-110125531D01*
X81725983Y-110056083D01*
X81625868Y-110087513D01*
X81625868Y-110087513D01*
G37*
X81625868Y-110087513D02*
X81408069Y-110171913D01*
X81110066Y-110294455D01*
X80923582Y-110373583D01*
X80183199Y-110691083D01*
X80181266Y-112574917D01*
X80179333Y-114458750D01*
X81788000Y-114458750D01*
X81788000Y-112257417D01*
X81785719Y-111666863D01*
X81779294Y-111136168D01*
X81769351Y-110687562D01*
X81756516Y-110343273D01*
X81741416Y-110125531D01*
X81725983Y-110056083D01*
X81625868Y-110087513D01*
G36*
X75268666Y-114458750D02*
X76962000Y-114458750D01*
X76962000Y-110733417D01*
X75268666Y-110733417D01*
X75268666Y-114458750D01*
X75268666Y-114458750D01*
G37*
X75268666Y-114458750D02*
X76962000Y-114458750D01*
X76962000Y-110733417D01*
X75268666Y-110733417D01*
X75268666Y-114458750D01*
G36*
X66717333Y-114458750D02*
X72136000Y-114458750D01*
X72136000Y-112765417D01*
X66717333Y-112765417D01*
X66717333Y-114458750D01*
X66717333Y-114458750D01*
G37*
X66717333Y-114458750D02*
X72136000Y-114458750D01*
X72136000Y-112765417D01*
X66717333Y-112765417D01*
X66717333Y-114458750D01*
G36*
X64770000Y-114458750D02*
X66378666Y-114458750D01*
X66378666Y-110733417D01*
X64770000Y-110733417D01*
X64770000Y-114458750D01*
X64770000Y-114458750D01*
G37*
X64770000Y-114458750D02*
X66378666Y-114458750D01*
X66378666Y-110733417D01*
X64770000Y-110733417D01*
X64770000Y-114458750D01*
G36*
X60467804Y-110788809D02*
X56980666Y-110845600D01*
X56980666Y-113320291D01*
X57554291Y-113889521D01*
X58127916Y-114458750D01*
X60491445Y-114458750D01*
X59582723Y-113547201D01*
X59266570Y-113223506D01*
X58998247Y-112936278D01*
X58798677Y-112708907D01*
X58688782Y-112564786D01*
X58674000Y-112531201D01*
X58714026Y-112496624D01*
X58844279Y-112469965D01*
X59080022Y-112450439D01*
X59436518Y-112437262D01*
X59929029Y-112429648D01*
X60572818Y-112426813D01*
X60706000Y-112426750D01*
X61343368Y-112427234D01*
X61831334Y-112429794D01*
X62189828Y-112436091D01*
X62438782Y-112447786D01*
X62598125Y-112466540D01*
X62687789Y-112494012D01*
X62727703Y-112531865D01*
X62737799Y-112581760D01*
X62738000Y-112596083D01*
X62731633Y-112652126D01*
X62698410Y-112694213D01*
X62617149Y-112724339D01*
X62466667Y-112744501D01*
X62225783Y-112756692D01*
X61873313Y-112762910D01*
X61388076Y-112765148D01*
X60940422Y-112765417D01*
X59142843Y-112765417D01*
X59986333Y-113612083D01*
X60829823Y-114458750D01*
X64431333Y-114458750D01*
X64431333Y-111188431D01*
X64193137Y-110960224D01*
X63954941Y-110732018D01*
X60467804Y-110788809D01*
X60467804Y-110788809D01*
G37*
X60467804Y-110788809D02*
X56980666Y-110845600D01*
X56980666Y-113320291D01*
X57554291Y-113889521D01*
X58127916Y-114458750D01*
X60491445Y-114458750D01*
X59582723Y-113547201D01*
X59266570Y-113223506D01*
X58998247Y-112936278D01*
X58798677Y-112708907D01*
X58688782Y-112564786D01*
X58674000Y-112531201D01*
X58714026Y-112496624D01*
X58844279Y-112469965D01*
X59080022Y-112450439D01*
X59436518Y-112437262D01*
X59929029Y-112429648D01*
X60572818Y-112426813D01*
X60706000Y-112426750D01*
X61343368Y-112427234D01*
X61831334Y-112429794D01*
X62189828Y-112436091D01*
X62438782Y-112447786D01*
X62598125Y-112466540D01*
X62687789Y-112494012D01*
X62727703Y-112531865D01*
X62737799Y-112581760D01*
X62738000Y-112596083D01*
X62731633Y-112652126D01*
X62698410Y-112694213D01*
X62617149Y-112724339D01*
X62466667Y-112744501D01*
X62225783Y-112756692D01*
X61873313Y-112762910D01*
X61388076Y-112765148D01*
X60940422Y-112765417D01*
X59142843Y-112765417D01*
X59986333Y-113612083D01*
X60829823Y-114458750D01*
X64431333Y-114458750D01*
X64431333Y-111188431D01*
X64193137Y-110960224D01*
X63954941Y-110732018D01*
X60467804Y-110788809D01*
G36*
X55018432Y-111505216D02*
X55028776Y-111873444D01*
X55022297Y-112115746D01*
X54990219Y-112275335D01*
X54923769Y-112395428D01*
X54814171Y-112519239D01*
X54812092Y-112521410D01*
X54578319Y-112765417D01*
X51424347Y-112765417D01*
X51196840Y-112527950D01*
X51081812Y-112392883D01*
X51013700Y-112252805D01*
X50980418Y-112059152D01*
X50969885Y-111763355D01*
X50969333Y-111613550D01*
X50982494Y-111233611D01*
X51019272Y-110962339D01*
X51070933Y-110835017D01*
X51081036Y-110788781D01*
X50988243Y-110758182D01*
X50772581Y-110740695D01*
X50414077Y-110733799D01*
X50266600Y-110733417D01*
X49360666Y-110733417D01*
X49360666Y-113065488D01*
X50060935Y-113762119D01*
X50761203Y-114458750D01*
X55333405Y-114458750D01*
X56030036Y-113758481D01*
X56726666Y-113058213D01*
X56726666Y-110733417D01*
X55858833Y-110733222D01*
X54991000Y-110733028D01*
X55018432Y-111505216D01*
X55018432Y-111505216D01*
G37*
X55018432Y-111505216D02*
X55028776Y-111873444D01*
X55022297Y-112115746D01*
X54990219Y-112275335D01*
X54923769Y-112395428D01*
X54814171Y-112519239D01*
X54812092Y-112521410D01*
X54578319Y-112765417D01*
X51424347Y-112765417D01*
X51196840Y-112527950D01*
X51081812Y-112392883D01*
X51013700Y-112252805D01*
X50980418Y-112059152D01*
X50969885Y-111763355D01*
X50969333Y-111613550D01*
X50982494Y-111233611D01*
X51019272Y-110962339D01*
X51070933Y-110835017D01*
X51081036Y-110788781D01*
X50988243Y-110758182D01*
X50772581Y-110740695D01*
X50414077Y-110733799D01*
X50266600Y-110733417D01*
X49360666Y-110733417D01*
X49360666Y-113065488D01*
X50060935Y-113762119D01*
X50761203Y-114458750D01*
X55333405Y-114458750D01*
X56030036Y-113758481D01*
X56726666Y-113058213D01*
X56726666Y-110733417D01*
X55858833Y-110733222D01*
X54991000Y-110733028D01*
X55018432Y-111505216D01*
G36*
X98553119Y-109433197D02*
X98325498Y-109528679D01*
X97992648Y-109668630D01*
X97579965Y-109842372D01*
X97112841Y-110039227D01*
X97083785Y-110051478D01*
X95588666Y-110681873D01*
X95588666Y-111596645D01*
X95594134Y-111966286D01*
X95608946Y-112262850D01*
X95630716Y-112452246D01*
X95652166Y-112503661D01*
X95745597Y-112467829D01*
X95968410Y-112372575D01*
X96295921Y-112228749D01*
X96703449Y-112047201D01*
X97166312Y-111838781D01*
X97218500Y-111815153D01*
X98721333Y-111134400D01*
X98721333Y-110249520D01*
X98715033Y-109889176D01*
X98697995Y-109605132D01*
X98673010Y-109430966D01*
X98650118Y-109392861D01*
X98553119Y-109433197D01*
X98553119Y-109433197D01*
G37*
X98553119Y-109433197D02*
X98325498Y-109528679D01*
X97992648Y-109668630D01*
X97579965Y-109842372D01*
X97112841Y-110039227D01*
X97083785Y-110051478D01*
X95588666Y-110681873D01*
X95588666Y-111596645D01*
X95594134Y-111966286D01*
X95608946Y-112262850D01*
X95630716Y-112452246D01*
X95652166Y-112503661D01*
X95745597Y-112467829D01*
X95968410Y-112372575D01*
X96295921Y-112228749D01*
X96703449Y-112047201D01*
X97166312Y-111838781D01*
X97218500Y-111815153D01*
X98721333Y-111134400D01*
X98721333Y-110249520D01*
X98715033Y-109889176D01*
X98697995Y-109605132D01*
X98673010Y-109430966D01*
X98650118Y-109392861D01*
X98553119Y-109433197D01*
G36*
X87884000Y-110479417D02*
X89995195Y-110479417D01*
X91775931Y-111258175D01*
X92352074Y-111511739D01*
X92790442Y-111709594D01*
X93109326Y-111861738D01*
X93327014Y-111978172D01*
X93461796Y-112068897D01*
X93531962Y-112143912D01*
X93555800Y-112213219D01*
X93556666Y-112231842D01*
X93563849Y-112320320D01*
X93605990Y-112376929D01*
X93713977Y-112408778D01*
X93918700Y-112422979D01*
X94251047Y-112426641D01*
X94403333Y-112426750D01*
X95250000Y-112426750D01*
X95249985Y-111685917D01*
X95249970Y-110945083D01*
X92786824Y-109865583D01*
X90323677Y-108786083D01*
X87884000Y-108786083D01*
X87884000Y-110479417D01*
X87884000Y-110479417D01*
G37*
X87884000Y-110479417D02*
X89995195Y-110479417D01*
X91775931Y-111258175D01*
X92352074Y-111511739D01*
X92790442Y-111709594D01*
X93109326Y-111861738D01*
X93327014Y-111978172D01*
X93461796Y-112068897D01*
X93531962Y-112143912D01*
X93555800Y-112213219D01*
X93556666Y-112231842D01*
X93563849Y-112320320D01*
X93605990Y-112376929D01*
X93713977Y-112408778D01*
X93918700Y-112422979D01*
X94251047Y-112426641D01*
X94403333Y-112426750D01*
X95250000Y-112426750D01*
X95249985Y-111685917D01*
X95249970Y-110945083D01*
X92786824Y-109865583D01*
X90323677Y-108786083D01*
X87884000Y-108786083D01*
X87884000Y-110479417D01*
G36*
X64770000Y-110479417D02*
X66881195Y-110479417D01*
X68661931Y-111258175D01*
X69238074Y-111511739D01*
X69676442Y-111709594D01*
X69995326Y-111861738D01*
X70213014Y-111978172D01*
X70347796Y-112068897D01*
X70417962Y-112143912D01*
X70441800Y-112213219D01*
X70442666Y-112231842D01*
X70449849Y-112320320D01*
X70491990Y-112376929D01*
X70599977Y-112408778D01*
X70804700Y-112422979D01*
X71137047Y-112426641D01*
X71289333Y-112426750D01*
X72136000Y-112426750D01*
X72135985Y-111685917D01*
X72135970Y-110945083D01*
X69672824Y-109865583D01*
X67209677Y-108786083D01*
X64770000Y-108786083D01*
X64770000Y-110479417D01*
X64770000Y-110479417D01*
G37*
X64770000Y-110479417D02*
X66881195Y-110479417D01*
X68661931Y-111258175D01*
X69238074Y-111511739D01*
X69676442Y-111709594D01*
X69995326Y-111861738D01*
X70213014Y-111978172D01*
X70347796Y-112068897D01*
X70417962Y-112143912D01*
X70441800Y-112213219D01*
X70442666Y-112231842D01*
X70449849Y-112320320D01*
X70491990Y-112376929D01*
X70599977Y-112408778D01*
X70804700Y-112422979D01*
X71137047Y-112426641D01*
X71289333Y-112426750D01*
X72136000Y-112426750D01*
X72135985Y-111685917D01*
X72135970Y-110945083D01*
X69672824Y-109865583D01*
X67209677Y-108786083D01*
X64770000Y-108786083D01*
X64770000Y-110479417D01*
G36*
X82129182Y-109844417D02*
X82127924Y-110754583D01*
X82132909Y-111123335D01*
X82147381Y-111419047D01*
X82168982Y-111607496D01*
X82190166Y-111658004D01*
X82284896Y-111622760D01*
X82507234Y-111529402D01*
X82830446Y-111389473D01*
X83227798Y-111214517D01*
X83562679Y-111065337D01*
X84871692Y-110479417D01*
X87545333Y-110479417D01*
X87545333Y-108786083D01*
X84559892Y-108786083D01*
X82129182Y-109844417D01*
X82129182Y-109844417D01*
G37*
X82129182Y-109844417D02*
X82127924Y-110754583D01*
X82132909Y-111123335D01*
X82147381Y-111419047D01*
X82168982Y-111607496D01*
X82190166Y-111658004D01*
X82284896Y-111622760D01*
X82507234Y-111529402D01*
X82830446Y-111389473D01*
X83227798Y-111214517D01*
X83562679Y-111065337D01*
X84871692Y-110479417D01*
X87545333Y-110479417D01*
X87545333Y-108786083D01*
X84559892Y-108786083D01*
X82129182Y-109844417D01*
G36*
X72390000Y-110479417D02*
X79840666Y-110479417D01*
X79840666Y-108786083D01*
X72390000Y-108786083D01*
X72390000Y-110479417D01*
X72390000Y-110479417D01*
G37*
X72390000Y-110479417D02*
X79840666Y-110479417D01*
X79840666Y-108786083D01*
X72390000Y-108786083D01*
X72390000Y-110479417D01*
G36*
X57869666Y-109632750D02*
X58713156Y-110479417D01*
X63708490Y-110479417D01*
X62021510Y-108786083D01*
X57026177Y-108786083D01*
X57869666Y-109632750D01*
X57869666Y-109632750D01*
G37*
X57869666Y-109632750D02*
X58713156Y-110479417D01*
X63708490Y-110479417D01*
X62021510Y-108786083D01*
X57026177Y-108786083D01*
X57869666Y-109632750D01*
G36*
X50057297Y-109486352D02*
X49781885Y-109775198D01*
X49557878Y-110032967D01*
X49409515Y-110230199D01*
X49360666Y-110333018D01*
X49369728Y-110368297D01*
X49406707Y-110397430D01*
X49486298Y-110420999D01*
X49623195Y-110439590D01*
X49832092Y-110453786D01*
X50127682Y-110464172D01*
X50524660Y-110471331D01*
X51037718Y-110475848D01*
X51681552Y-110478306D01*
X52470854Y-110479290D01*
X53043666Y-110479417D01*
X53930509Y-110479089D01*
X54662749Y-110477708D01*
X55255117Y-110474672D01*
X55722343Y-110469381D01*
X56079159Y-110461235D01*
X56340294Y-110449635D01*
X56520479Y-110433980D01*
X56634445Y-110413670D01*
X56696921Y-110388106D01*
X56722639Y-110356686D01*
X56726666Y-110329381D01*
X56669261Y-110212944D01*
X56513299Y-110009541D01*
X56283162Y-109748650D01*
X56026398Y-109482714D01*
X55326130Y-108786083D01*
X50753928Y-108786083D01*
X50057297Y-109486352D01*
X50057297Y-109486352D01*
G37*
X50057297Y-109486352D02*
X49781885Y-109775198D01*
X49557878Y-110032967D01*
X49409515Y-110230199D01*
X49360666Y-110333018D01*
X49369728Y-110368297D01*
X49406707Y-110397430D01*
X49486298Y-110420999D01*
X49623195Y-110439590D01*
X49832092Y-110453786D01*
X50127682Y-110464172D01*
X50524660Y-110471331D01*
X51037718Y-110475848D01*
X51681552Y-110478306D01*
X52470854Y-110479290D01*
X53043666Y-110479417D01*
X53930509Y-110479089D01*
X54662749Y-110477708D01*
X55255117Y-110474672D01*
X55722343Y-110469381D01*
X56079159Y-110461235D01*
X56340294Y-110449635D01*
X56520479Y-110433980D01*
X56634445Y-110413670D01*
X56696921Y-110388106D01*
X56722639Y-110356686D01*
X56726666Y-110329381D01*
X56669261Y-110212944D01*
X56513299Y-110009541D01*
X56283162Y-109748650D01*
X56026398Y-109482714D01*
X55326130Y-108786083D01*
X50753928Y-108786083D01*
X50057297Y-109486352D01*
G04 #@! TD*
M02*
