G04 #@! TF.GenerationSoftware,KiCad,Pcbnew,(5.0.0)*
G04 #@! TF.CreationDate,2019-01-26T20:43:56+09:00*
G04 #@! TF.ProjectId,Manta60BLE_Bottom,4D616E74613630424C455F426F74746F,rev?*
G04 #@! TF.SameCoordinates,Original*
G04 #@! TF.FileFunction,Copper,L1,Top,Signal*
G04 #@! TF.FilePolarity,Positive*
%FSLAX46Y46*%
G04 Gerber Fmt 4.6, Leading zero omitted, Abs format (unit mm)*
G04 Created by KiCad (PCBNEW (5.0.0)) date 01/26/19 20:43:56*
%MOMM*%
%LPD*%
G01*
G04 APERTURE LIST*
G04 #@! TA.AperFunction,ComponentPad*
%ADD10C,3.000000*%
G04 #@! TD*
G04 #@! TA.AperFunction,NonConductor*
%ADD11C,0.254000*%
G04 #@! TD*
G04 APERTURE END LIST*
D10*
G04 #@! TO.P,H\002A\002A,*
G04 #@! TO.N,*
X205494350Y-122386200D03*
G04 #@! TD*
G04 #@! TO.P,H\002A\002A,*
G04 #@! TO.N,*
X82584350Y-90476200D03*
G04 #@! TD*
G04 #@! TO.P,H\002A\002A,*
G04 #@! TO.N,*
X188974350Y-151006200D03*
G04 #@! TD*
G04 #@! TO.P,H\002A\002A,*
G04 #@! TO.N,*
X139734350Y-90476200D03*
G04 #@! TD*
G04 #@! TO.P,H\002A\002A,*
G04 #@! TO.N,*
X161074350Y-115816200D03*
G04 #@! TD*
G04 #@! TO.P,H\002A\002A,*
G04 #@! TO.N,*
X139734350Y-52376200D03*
G04 #@! TD*
G04 #@! TO.P,H\002A\002A,*
G04 #@! TO.N,*
X82584350Y-52376200D03*
G04 #@! TD*
G04 #@! TO.P,H\002A\002A,*
G04 #@! TO.N,*
X43474350Y-42856200D03*
G04 #@! TD*
G04 #@! TO.P,H\002A\002A,*
G04 #@! TO.N,*
X43474350Y-119056200D03*
G04 #@! TD*
D11*
G36*
X198789538Y-34072482D02*
X201099451Y-35857415D01*
X201099450Y-60949085D01*
X201085063Y-61019401D01*
X201099450Y-61093855D01*
X201099450Y-61095887D01*
X201113198Y-61165001D01*
X201140538Y-61306490D01*
X201141688Y-61308232D01*
X201142096Y-61310282D01*
X201222283Y-61430291D01*
X201260987Y-61488907D01*
X201262411Y-61490346D01*
X201304545Y-61553405D01*
X201364229Y-61593284D01*
X204099451Y-64358596D01*
X204099450Y-110976707D01*
X204084451Y-111052112D01*
X204084450Y-113800887D01*
X204127096Y-114015282D01*
X204289545Y-114258405D01*
X204290568Y-114259089D01*
X208511429Y-121687581D01*
X190034428Y-153690466D01*
X189083093Y-153141200D01*
X189399028Y-153141200D01*
X189418580Y-153133101D01*
X189439737Y-153132697D01*
X190148932Y-152838939D01*
X190154220Y-152828389D01*
X190183730Y-152816166D01*
X190784316Y-152215580D01*
X190796539Y-152186070D01*
X190807089Y-152180782D01*
X190954627Y-151804412D01*
X191109350Y-151430878D01*
X191109350Y-151409714D01*
X191117073Y-151390013D01*
X191109350Y-150985824D01*
X191109350Y-150581522D01*
X191101251Y-150561970D01*
X191100847Y-150540813D01*
X190807089Y-149831618D01*
X190796539Y-149826330D01*
X190784316Y-149796820D01*
X190183730Y-149196234D01*
X190154220Y-149184011D01*
X190148932Y-149173461D01*
X189772562Y-149025923D01*
X189399028Y-148871200D01*
X189377864Y-148871200D01*
X189358163Y-148863477D01*
X188953974Y-148871200D01*
X188549672Y-148871200D01*
X188530120Y-148879299D01*
X188508963Y-148879703D01*
X187799768Y-149173461D01*
X187794480Y-149184011D01*
X187764970Y-149196234D01*
X187164384Y-149796820D01*
X187152161Y-149826330D01*
X187141611Y-149831618D01*
X186994073Y-150207988D01*
X186839350Y-150581522D01*
X186839350Y-150602686D01*
X186831627Y-150622387D01*
X186839350Y-151026576D01*
X186839350Y-151430878D01*
X186847449Y-151450430D01*
X186847853Y-151471587D01*
X187054221Y-151969804D01*
X162588543Y-137844217D01*
X162424906Y-137741498D01*
X136685882Y-127929301D01*
X136633402Y-127894217D01*
X136550578Y-127877721D01*
X136540626Y-127873927D01*
X136479659Y-127863596D01*
X136419018Y-127851518D01*
X136408368Y-127851515D01*
X136325104Y-127837406D01*
X136263566Y-127851480D01*
X116222153Y-127846575D01*
X110382876Y-122002387D01*
X203351627Y-122002387D01*
X203359350Y-122406576D01*
X203359350Y-122810878D01*
X203367449Y-122830430D01*
X203367853Y-122851587D01*
X203661611Y-123560782D01*
X203672161Y-123566070D01*
X203684384Y-123595580D01*
X204284970Y-124196166D01*
X204314480Y-124208389D01*
X204319768Y-124218939D01*
X204696138Y-124366477D01*
X205069672Y-124521200D01*
X205090836Y-124521200D01*
X205110537Y-124528923D01*
X205514726Y-124521200D01*
X205919028Y-124521200D01*
X205938580Y-124513101D01*
X205959737Y-124512697D01*
X206668932Y-124218939D01*
X206674220Y-124208389D01*
X206703730Y-124196166D01*
X207304316Y-123595580D01*
X207316539Y-123566070D01*
X207327089Y-123560782D01*
X207474627Y-123184412D01*
X207629350Y-122810878D01*
X207629350Y-122789714D01*
X207637073Y-122770013D01*
X207629350Y-122365824D01*
X207629350Y-121961522D01*
X207621251Y-121941970D01*
X207620847Y-121920813D01*
X207327089Y-121211618D01*
X207316539Y-121206330D01*
X207304316Y-121176820D01*
X206703730Y-120576234D01*
X206674220Y-120564011D01*
X206668932Y-120553461D01*
X206292562Y-120405923D01*
X205919028Y-120251200D01*
X205897864Y-120251200D01*
X205878163Y-120243477D01*
X205473974Y-120251200D01*
X205069672Y-120251200D01*
X205050120Y-120259299D01*
X205028963Y-120259703D01*
X204319768Y-120553461D01*
X204314480Y-120564011D01*
X204284970Y-120576234D01*
X203684384Y-121176820D01*
X203672161Y-121206330D01*
X203661611Y-121211618D01*
X203514073Y-121587988D01*
X203359350Y-121961522D01*
X203359350Y-121982686D01*
X203351627Y-122002387D01*
X110382876Y-122002387D01*
X106977448Y-118594095D01*
X106936355Y-118532595D01*
X106813498Y-118450505D01*
X106693523Y-118370267D01*
X106693368Y-118370236D01*
X106693233Y-118370146D01*
X106548323Y-118341322D01*
X106406765Y-118313102D01*
X106334222Y-118327500D01*
X92211898Y-118327500D01*
X92109349Y-118307102D01*
X91822567Y-118364146D01*
X91640812Y-118485591D01*
X91627966Y-118498437D01*
X91576845Y-118532595D01*
X91542687Y-118583716D01*
X82273904Y-127852500D01*
X41209350Y-127852500D01*
X41209350Y-118672387D01*
X41331627Y-118672387D01*
X41339350Y-119076576D01*
X41339350Y-119480878D01*
X41347449Y-119500430D01*
X41347853Y-119521587D01*
X41641611Y-120230782D01*
X41652161Y-120236070D01*
X41664384Y-120265580D01*
X42264970Y-120866166D01*
X42294480Y-120878389D01*
X42299768Y-120888939D01*
X42676138Y-121036477D01*
X43049672Y-121191200D01*
X43070836Y-121191200D01*
X43090537Y-121198923D01*
X43494726Y-121191200D01*
X43899028Y-121191200D01*
X43918580Y-121183101D01*
X43939737Y-121182697D01*
X44648932Y-120888939D01*
X44654220Y-120878389D01*
X44683730Y-120866166D01*
X45284316Y-120265580D01*
X45296539Y-120236070D01*
X45307089Y-120230782D01*
X45454627Y-119854412D01*
X45609350Y-119480878D01*
X45609350Y-119459714D01*
X45617073Y-119440013D01*
X45609350Y-119035824D01*
X45609350Y-118631522D01*
X45601251Y-118611970D01*
X45600847Y-118590813D01*
X45307089Y-117881618D01*
X45296539Y-117876330D01*
X45284316Y-117846820D01*
X44683730Y-117246234D01*
X44654220Y-117234011D01*
X44648932Y-117223461D01*
X44272562Y-117075923D01*
X43899028Y-116921200D01*
X43877864Y-116921200D01*
X43858163Y-116913477D01*
X43453974Y-116921200D01*
X43049672Y-116921200D01*
X43030120Y-116929299D01*
X43008963Y-116929703D01*
X42299768Y-117223461D01*
X42294480Y-117234011D01*
X42264970Y-117246234D01*
X41664384Y-117846820D01*
X41652161Y-117876330D01*
X41641611Y-117881618D01*
X41494073Y-118257988D01*
X41339350Y-118631522D01*
X41339350Y-118652686D01*
X41331627Y-118672387D01*
X41209350Y-118672387D01*
X41209350Y-115432387D01*
X158931627Y-115432387D01*
X158939350Y-115836576D01*
X158939350Y-116240878D01*
X158947449Y-116260430D01*
X158947853Y-116281587D01*
X159241611Y-116990782D01*
X159252161Y-116996070D01*
X159264384Y-117025580D01*
X159864970Y-117626166D01*
X159894480Y-117638389D01*
X159899768Y-117648939D01*
X160276138Y-117796477D01*
X160649672Y-117951200D01*
X160670836Y-117951200D01*
X160690537Y-117958923D01*
X161094726Y-117951200D01*
X161499028Y-117951200D01*
X161518580Y-117943101D01*
X161539737Y-117942697D01*
X162248932Y-117648939D01*
X162254220Y-117638389D01*
X162283730Y-117626166D01*
X162884316Y-117025580D01*
X162896539Y-116996070D01*
X162907089Y-116990782D01*
X163054627Y-116614412D01*
X163209350Y-116240878D01*
X163209350Y-116219714D01*
X163217073Y-116200013D01*
X163209350Y-115795824D01*
X163209350Y-115391522D01*
X163201251Y-115371970D01*
X163200847Y-115350813D01*
X162907089Y-114641618D01*
X162896539Y-114636330D01*
X162884316Y-114606820D01*
X162283730Y-114006234D01*
X162254220Y-113994011D01*
X162248932Y-113983461D01*
X161872562Y-113835923D01*
X161499028Y-113681200D01*
X161477864Y-113681200D01*
X161458163Y-113673477D01*
X161053974Y-113681200D01*
X160649672Y-113681200D01*
X160630120Y-113689299D01*
X160608963Y-113689703D01*
X159899768Y-113983461D01*
X159894480Y-113994011D01*
X159864970Y-114006234D01*
X159264384Y-114606820D01*
X159252161Y-114636330D01*
X159241611Y-114641618D01*
X159094073Y-115017988D01*
X158939350Y-115391522D01*
X158939350Y-115412686D01*
X158931627Y-115432387D01*
X41209350Y-115432387D01*
X41209350Y-90092387D01*
X80441627Y-90092387D01*
X80449350Y-90496576D01*
X80449350Y-90900878D01*
X80457449Y-90920430D01*
X80457853Y-90941587D01*
X80751611Y-91650782D01*
X80762161Y-91656070D01*
X80774384Y-91685580D01*
X81374970Y-92286166D01*
X81404480Y-92298389D01*
X81409768Y-92308939D01*
X81786138Y-92456477D01*
X82159672Y-92611200D01*
X82180836Y-92611200D01*
X82200537Y-92618923D01*
X82604726Y-92611200D01*
X83009028Y-92611200D01*
X83028580Y-92603101D01*
X83049737Y-92602697D01*
X83758932Y-92308939D01*
X83764220Y-92298389D01*
X83793730Y-92286166D01*
X84394316Y-91685580D01*
X84406539Y-91656070D01*
X84417089Y-91650782D01*
X84564627Y-91274412D01*
X84719350Y-90900878D01*
X84719350Y-90879714D01*
X84727073Y-90860013D01*
X84719350Y-90455824D01*
X84719350Y-90092387D01*
X137591627Y-90092387D01*
X137599350Y-90496576D01*
X137599350Y-90900878D01*
X137607449Y-90920430D01*
X137607853Y-90941587D01*
X137901611Y-91650782D01*
X137912161Y-91656070D01*
X137924384Y-91685580D01*
X138524970Y-92286166D01*
X138554480Y-92298389D01*
X138559768Y-92308939D01*
X138936138Y-92456477D01*
X139309672Y-92611200D01*
X139330836Y-92611200D01*
X139350537Y-92618923D01*
X139754726Y-92611200D01*
X140159028Y-92611200D01*
X140178580Y-92603101D01*
X140199737Y-92602697D01*
X140908932Y-92308939D01*
X140914220Y-92298389D01*
X140943730Y-92286166D01*
X141544316Y-91685580D01*
X141556539Y-91656070D01*
X141567089Y-91650782D01*
X141714627Y-91274412D01*
X141869350Y-90900878D01*
X141869350Y-90879714D01*
X141877073Y-90860013D01*
X141869350Y-90455824D01*
X141869350Y-90051522D01*
X141861251Y-90031970D01*
X141860847Y-90010813D01*
X141567089Y-89301618D01*
X141556539Y-89296330D01*
X141544316Y-89266820D01*
X140943730Y-88666234D01*
X140914220Y-88654011D01*
X140908932Y-88643461D01*
X140532562Y-88495923D01*
X140159028Y-88341200D01*
X140137864Y-88341200D01*
X140118163Y-88333477D01*
X139713974Y-88341200D01*
X139309672Y-88341200D01*
X139290120Y-88349299D01*
X139268963Y-88349703D01*
X138559768Y-88643461D01*
X138554480Y-88654011D01*
X138524970Y-88666234D01*
X137924384Y-89266820D01*
X137912161Y-89296330D01*
X137901611Y-89301618D01*
X137754073Y-89677988D01*
X137599350Y-90051522D01*
X137599350Y-90072686D01*
X137591627Y-90092387D01*
X84719350Y-90092387D01*
X84719350Y-90051522D01*
X84711251Y-90031970D01*
X84710847Y-90010813D01*
X84417089Y-89301618D01*
X84406539Y-89296330D01*
X84394316Y-89266820D01*
X83793730Y-88666234D01*
X83764220Y-88654011D01*
X83758932Y-88643461D01*
X83382562Y-88495923D01*
X83009028Y-88341200D01*
X82987864Y-88341200D01*
X82968163Y-88333477D01*
X82563974Y-88341200D01*
X82159672Y-88341200D01*
X82140120Y-88349299D01*
X82118963Y-88349703D01*
X81409768Y-88643461D01*
X81404480Y-88654011D01*
X81374970Y-88666234D01*
X80774384Y-89266820D01*
X80762161Y-89296330D01*
X80751611Y-89301618D01*
X80604073Y-89677988D01*
X80449350Y-90051522D01*
X80449350Y-90072686D01*
X80441627Y-90092387D01*
X41209350Y-90092387D01*
X41209350Y-51992387D01*
X80441627Y-51992387D01*
X80449350Y-52396576D01*
X80449350Y-52800878D01*
X80457449Y-52820430D01*
X80457853Y-52841587D01*
X80751611Y-53550782D01*
X80762161Y-53556070D01*
X80774384Y-53585580D01*
X81374970Y-54186166D01*
X81404480Y-54198389D01*
X81409768Y-54208939D01*
X81786138Y-54356477D01*
X82159672Y-54511200D01*
X82180836Y-54511200D01*
X82200537Y-54518923D01*
X82604726Y-54511200D01*
X83009028Y-54511200D01*
X83028580Y-54503101D01*
X83049737Y-54502697D01*
X83758932Y-54208939D01*
X83764220Y-54198389D01*
X83793730Y-54186166D01*
X84394316Y-53585580D01*
X84406539Y-53556070D01*
X84417089Y-53550782D01*
X84564627Y-53174412D01*
X84719350Y-52800878D01*
X84719350Y-52779714D01*
X84727073Y-52760013D01*
X84719350Y-52355824D01*
X84719350Y-51992387D01*
X137591627Y-51992387D01*
X137599350Y-52396576D01*
X137599350Y-52800878D01*
X137607449Y-52820430D01*
X137607853Y-52841587D01*
X137901611Y-53550782D01*
X137912161Y-53556070D01*
X137924384Y-53585580D01*
X138524970Y-54186166D01*
X138554480Y-54198389D01*
X138559768Y-54208939D01*
X138936138Y-54356477D01*
X139309672Y-54511200D01*
X139330836Y-54511200D01*
X139350537Y-54518923D01*
X139754726Y-54511200D01*
X140159028Y-54511200D01*
X140178580Y-54503101D01*
X140199737Y-54502697D01*
X140908932Y-54208939D01*
X140914220Y-54198389D01*
X140943730Y-54186166D01*
X141544316Y-53585580D01*
X141556539Y-53556070D01*
X141567089Y-53550782D01*
X141714627Y-53174412D01*
X141869350Y-52800878D01*
X141869350Y-52779714D01*
X141877073Y-52760013D01*
X141869350Y-52355824D01*
X141869350Y-51951522D01*
X141861251Y-51931970D01*
X141860847Y-51910813D01*
X141567089Y-51201618D01*
X141556539Y-51196330D01*
X141544316Y-51166820D01*
X140943730Y-50566234D01*
X140914220Y-50554011D01*
X140908932Y-50543461D01*
X140532562Y-50395923D01*
X140159028Y-50241200D01*
X140137864Y-50241200D01*
X140118163Y-50233477D01*
X139713974Y-50241200D01*
X139309672Y-50241200D01*
X139290120Y-50249299D01*
X139268963Y-50249703D01*
X138559768Y-50543461D01*
X138554480Y-50554011D01*
X138524970Y-50566234D01*
X137924384Y-51166820D01*
X137912161Y-51196330D01*
X137901611Y-51201618D01*
X137754073Y-51577988D01*
X137599350Y-51951522D01*
X137599350Y-51972686D01*
X137591627Y-51992387D01*
X84719350Y-51992387D01*
X84719350Y-51951522D01*
X84711251Y-51931970D01*
X84710847Y-51910813D01*
X84417089Y-51201618D01*
X84406539Y-51196330D01*
X84394316Y-51166820D01*
X83793730Y-50566234D01*
X83764220Y-50554011D01*
X83758932Y-50543461D01*
X83382562Y-50395923D01*
X83009028Y-50241200D01*
X82987864Y-50241200D01*
X82968163Y-50233477D01*
X82563974Y-50241200D01*
X82159672Y-50241200D01*
X82140120Y-50249299D01*
X82118963Y-50249703D01*
X81409768Y-50543461D01*
X81404480Y-50554011D01*
X81374970Y-50566234D01*
X80774384Y-51166820D01*
X80762161Y-51196330D01*
X80751611Y-51201618D01*
X80604073Y-51577988D01*
X80449350Y-51951522D01*
X80449350Y-51972686D01*
X80441627Y-51992387D01*
X41209350Y-51992387D01*
X41209350Y-42472387D01*
X41331627Y-42472387D01*
X41339350Y-42876576D01*
X41339350Y-43280878D01*
X41347449Y-43300430D01*
X41347853Y-43321587D01*
X41641611Y-44030782D01*
X41652161Y-44036070D01*
X41664384Y-44065580D01*
X42264970Y-44666166D01*
X42294480Y-44678389D01*
X42299768Y-44688939D01*
X42676138Y-44836477D01*
X43049672Y-44991200D01*
X43070836Y-44991200D01*
X43090537Y-44998923D01*
X43494726Y-44991200D01*
X43899028Y-44991200D01*
X43918580Y-44983101D01*
X43939737Y-44982697D01*
X44648932Y-44688939D01*
X44654220Y-44678389D01*
X44683730Y-44666166D01*
X45284316Y-44065580D01*
X45296539Y-44036070D01*
X45307089Y-44030782D01*
X45454627Y-43654412D01*
X45609350Y-43280878D01*
X45609350Y-43259714D01*
X45617073Y-43240013D01*
X45609350Y-42835824D01*
X45609350Y-42431522D01*
X45601251Y-42411970D01*
X45600847Y-42390813D01*
X45307089Y-41681618D01*
X45296539Y-41676330D01*
X45284316Y-41646820D01*
X44683730Y-41046234D01*
X44654220Y-41034011D01*
X44648932Y-41023461D01*
X44272562Y-40875923D01*
X43899028Y-40721200D01*
X43877864Y-40721200D01*
X43858163Y-40713477D01*
X43453974Y-40721200D01*
X43049672Y-40721200D01*
X43030120Y-40729299D01*
X43008963Y-40729703D01*
X42299768Y-41023461D01*
X42294480Y-41034011D01*
X42264970Y-41046234D01*
X41664384Y-41646820D01*
X41652161Y-41676330D01*
X41641611Y-41681618D01*
X41494073Y-42057988D01*
X41339350Y-42431522D01*
X41339350Y-42452686D01*
X41331627Y-42472387D01*
X41209350Y-42472387D01*
X41209350Y-34061252D01*
X198789538Y-34072482D01*
X198789538Y-34072482D01*
G37*
X198789538Y-34072482D02*
X201099451Y-35857415D01*
X201099450Y-60949085D01*
X201085063Y-61019401D01*
X201099450Y-61093855D01*
X201099450Y-61095887D01*
X201113198Y-61165001D01*
X201140538Y-61306490D01*
X201141688Y-61308232D01*
X201142096Y-61310282D01*
X201222283Y-61430291D01*
X201260987Y-61488907D01*
X201262411Y-61490346D01*
X201304545Y-61553405D01*
X201364229Y-61593284D01*
X204099451Y-64358596D01*
X204099450Y-110976707D01*
X204084451Y-111052112D01*
X204084450Y-113800887D01*
X204127096Y-114015282D01*
X204289545Y-114258405D01*
X204290568Y-114259089D01*
X208511429Y-121687581D01*
X190034428Y-153690466D01*
X189083093Y-153141200D01*
X189399028Y-153141200D01*
X189418580Y-153133101D01*
X189439737Y-153132697D01*
X190148932Y-152838939D01*
X190154220Y-152828389D01*
X190183730Y-152816166D01*
X190784316Y-152215580D01*
X190796539Y-152186070D01*
X190807089Y-152180782D01*
X190954627Y-151804412D01*
X191109350Y-151430878D01*
X191109350Y-151409714D01*
X191117073Y-151390013D01*
X191109350Y-150985824D01*
X191109350Y-150581522D01*
X191101251Y-150561970D01*
X191100847Y-150540813D01*
X190807089Y-149831618D01*
X190796539Y-149826330D01*
X190784316Y-149796820D01*
X190183730Y-149196234D01*
X190154220Y-149184011D01*
X190148932Y-149173461D01*
X189772562Y-149025923D01*
X189399028Y-148871200D01*
X189377864Y-148871200D01*
X189358163Y-148863477D01*
X188953974Y-148871200D01*
X188549672Y-148871200D01*
X188530120Y-148879299D01*
X188508963Y-148879703D01*
X187799768Y-149173461D01*
X187794480Y-149184011D01*
X187764970Y-149196234D01*
X187164384Y-149796820D01*
X187152161Y-149826330D01*
X187141611Y-149831618D01*
X186994073Y-150207988D01*
X186839350Y-150581522D01*
X186839350Y-150602686D01*
X186831627Y-150622387D01*
X186839350Y-151026576D01*
X186839350Y-151430878D01*
X186847449Y-151450430D01*
X186847853Y-151471587D01*
X187054221Y-151969804D01*
X162588543Y-137844217D01*
X162424906Y-137741498D01*
X136685882Y-127929301D01*
X136633402Y-127894217D01*
X136550578Y-127877721D01*
X136540626Y-127873927D01*
X136479659Y-127863596D01*
X136419018Y-127851518D01*
X136408368Y-127851515D01*
X136325104Y-127837406D01*
X136263566Y-127851480D01*
X116222153Y-127846575D01*
X110382876Y-122002387D01*
X203351627Y-122002387D01*
X203359350Y-122406576D01*
X203359350Y-122810878D01*
X203367449Y-122830430D01*
X203367853Y-122851587D01*
X203661611Y-123560782D01*
X203672161Y-123566070D01*
X203684384Y-123595580D01*
X204284970Y-124196166D01*
X204314480Y-124208389D01*
X204319768Y-124218939D01*
X204696138Y-124366477D01*
X205069672Y-124521200D01*
X205090836Y-124521200D01*
X205110537Y-124528923D01*
X205514726Y-124521200D01*
X205919028Y-124521200D01*
X205938580Y-124513101D01*
X205959737Y-124512697D01*
X206668932Y-124218939D01*
X206674220Y-124208389D01*
X206703730Y-124196166D01*
X207304316Y-123595580D01*
X207316539Y-123566070D01*
X207327089Y-123560782D01*
X207474627Y-123184412D01*
X207629350Y-122810878D01*
X207629350Y-122789714D01*
X207637073Y-122770013D01*
X207629350Y-122365824D01*
X207629350Y-121961522D01*
X207621251Y-121941970D01*
X207620847Y-121920813D01*
X207327089Y-121211618D01*
X207316539Y-121206330D01*
X207304316Y-121176820D01*
X206703730Y-120576234D01*
X206674220Y-120564011D01*
X206668932Y-120553461D01*
X206292562Y-120405923D01*
X205919028Y-120251200D01*
X205897864Y-120251200D01*
X205878163Y-120243477D01*
X205473974Y-120251200D01*
X205069672Y-120251200D01*
X205050120Y-120259299D01*
X205028963Y-120259703D01*
X204319768Y-120553461D01*
X204314480Y-120564011D01*
X204284970Y-120576234D01*
X203684384Y-121176820D01*
X203672161Y-121206330D01*
X203661611Y-121211618D01*
X203514073Y-121587988D01*
X203359350Y-121961522D01*
X203359350Y-121982686D01*
X203351627Y-122002387D01*
X110382876Y-122002387D01*
X106977448Y-118594095D01*
X106936355Y-118532595D01*
X106813498Y-118450505D01*
X106693523Y-118370267D01*
X106693368Y-118370236D01*
X106693233Y-118370146D01*
X106548323Y-118341322D01*
X106406765Y-118313102D01*
X106334222Y-118327500D01*
X92211898Y-118327500D01*
X92109349Y-118307102D01*
X91822567Y-118364146D01*
X91640812Y-118485591D01*
X91627966Y-118498437D01*
X91576845Y-118532595D01*
X91542687Y-118583716D01*
X82273904Y-127852500D01*
X41209350Y-127852500D01*
X41209350Y-118672387D01*
X41331627Y-118672387D01*
X41339350Y-119076576D01*
X41339350Y-119480878D01*
X41347449Y-119500430D01*
X41347853Y-119521587D01*
X41641611Y-120230782D01*
X41652161Y-120236070D01*
X41664384Y-120265580D01*
X42264970Y-120866166D01*
X42294480Y-120878389D01*
X42299768Y-120888939D01*
X42676138Y-121036477D01*
X43049672Y-121191200D01*
X43070836Y-121191200D01*
X43090537Y-121198923D01*
X43494726Y-121191200D01*
X43899028Y-121191200D01*
X43918580Y-121183101D01*
X43939737Y-121182697D01*
X44648932Y-120888939D01*
X44654220Y-120878389D01*
X44683730Y-120866166D01*
X45284316Y-120265580D01*
X45296539Y-120236070D01*
X45307089Y-120230782D01*
X45454627Y-119854412D01*
X45609350Y-119480878D01*
X45609350Y-119459714D01*
X45617073Y-119440013D01*
X45609350Y-119035824D01*
X45609350Y-118631522D01*
X45601251Y-118611970D01*
X45600847Y-118590813D01*
X45307089Y-117881618D01*
X45296539Y-117876330D01*
X45284316Y-117846820D01*
X44683730Y-117246234D01*
X44654220Y-117234011D01*
X44648932Y-117223461D01*
X44272562Y-117075923D01*
X43899028Y-116921200D01*
X43877864Y-116921200D01*
X43858163Y-116913477D01*
X43453974Y-116921200D01*
X43049672Y-116921200D01*
X43030120Y-116929299D01*
X43008963Y-116929703D01*
X42299768Y-117223461D01*
X42294480Y-117234011D01*
X42264970Y-117246234D01*
X41664384Y-117846820D01*
X41652161Y-117876330D01*
X41641611Y-117881618D01*
X41494073Y-118257988D01*
X41339350Y-118631522D01*
X41339350Y-118652686D01*
X41331627Y-118672387D01*
X41209350Y-118672387D01*
X41209350Y-115432387D01*
X158931627Y-115432387D01*
X158939350Y-115836576D01*
X158939350Y-116240878D01*
X158947449Y-116260430D01*
X158947853Y-116281587D01*
X159241611Y-116990782D01*
X159252161Y-116996070D01*
X159264384Y-117025580D01*
X159864970Y-117626166D01*
X159894480Y-117638389D01*
X159899768Y-117648939D01*
X160276138Y-117796477D01*
X160649672Y-117951200D01*
X160670836Y-117951200D01*
X160690537Y-117958923D01*
X161094726Y-117951200D01*
X161499028Y-117951200D01*
X161518580Y-117943101D01*
X161539737Y-117942697D01*
X162248932Y-117648939D01*
X162254220Y-117638389D01*
X162283730Y-117626166D01*
X162884316Y-117025580D01*
X162896539Y-116996070D01*
X162907089Y-116990782D01*
X163054627Y-116614412D01*
X163209350Y-116240878D01*
X163209350Y-116219714D01*
X163217073Y-116200013D01*
X163209350Y-115795824D01*
X163209350Y-115391522D01*
X163201251Y-115371970D01*
X163200847Y-115350813D01*
X162907089Y-114641618D01*
X162896539Y-114636330D01*
X162884316Y-114606820D01*
X162283730Y-114006234D01*
X162254220Y-113994011D01*
X162248932Y-113983461D01*
X161872562Y-113835923D01*
X161499028Y-113681200D01*
X161477864Y-113681200D01*
X161458163Y-113673477D01*
X161053974Y-113681200D01*
X160649672Y-113681200D01*
X160630120Y-113689299D01*
X160608963Y-113689703D01*
X159899768Y-113983461D01*
X159894480Y-113994011D01*
X159864970Y-114006234D01*
X159264384Y-114606820D01*
X159252161Y-114636330D01*
X159241611Y-114641618D01*
X159094073Y-115017988D01*
X158939350Y-115391522D01*
X158939350Y-115412686D01*
X158931627Y-115432387D01*
X41209350Y-115432387D01*
X41209350Y-90092387D01*
X80441627Y-90092387D01*
X80449350Y-90496576D01*
X80449350Y-90900878D01*
X80457449Y-90920430D01*
X80457853Y-90941587D01*
X80751611Y-91650782D01*
X80762161Y-91656070D01*
X80774384Y-91685580D01*
X81374970Y-92286166D01*
X81404480Y-92298389D01*
X81409768Y-92308939D01*
X81786138Y-92456477D01*
X82159672Y-92611200D01*
X82180836Y-92611200D01*
X82200537Y-92618923D01*
X82604726Y-92611200D01*
X83009028Y-92611200D01*
X83028580Y-92603101D01*
X83049737Y-92602697D01*
X83758932Y-92308939D01*
X83764220Y-92298389D01*
X83793730Y-92286166D01*
X84394316Y-91685580D01*
X84406539Y-91656070D01*
X84417089Y-91650782D01*
X84564627Y-91274412D01*
X84719350Y-90900878D01*
X84719350Y-90879714D01*
X84727073Y-90860013D01*
X84719350Y-90455824D01*
X84719350Y-90092387D01*
X137591627Y-90092387D01*
X137599350Y-90496576D01*
X137599350Y-90900878D01*
X137607449Y-90920430D01*
X137607853Y-90941587D01*
X137901611Y-91650782D01*
X137912161Y-91656070D01*
X137924384Y-91685580D01*
X138524970Y-92286166D01*
X138554480Y-92298389D01*
X138559768Y-92308939D01*
X138936138Y-92456477D01*
X139309672Y-92611200D01*
X139330836Y-92611200D01*
X139350537Y-92618923D01*
X139754726Y-92611200D01*
X140159028Y-92611200D01*
X140178580Y-92603101D01*
X140199737Y-92602697D01*
X140908932Y-92308939D01*
X140914220Y-92298389D01*
X140943730Y-92286166D01*
X141544316Y-91685580D01*
X141556539Y-91656070D01*
X141567089Y-91650782D01*
X141714627Y-91274412D01*
X141869350Y-90900878D01*
X141869350Y-90879714D01*
X141877073Y-90860013D01*
X141869350Y-90455824D01*
X141869350Y-90051522D01*
X141861251Y-90031970D01*
X141860847Y-90010813D01*
X141567089Y-89301618D01*
X141556539Y-89296330D01*
X141544316Y-89266820D01*
X140943730Y-88666234D01*
X140914220Y-88654011D01*
X140908932Y-88643461D01*
X140532562Y-88495923D01*
X140159028Y-88341200D01*
X140137864Y-88341200D01*
X140118163Y-88333477D01*
X139713974Y-88341200D01*
X139309672Y-88341200D01*
X139290120Y-88349299D01*
X139268963Y-88349703D01*
X138559768Y-88643461D01*
X138554480Y-88654011D01*
X138524970Y-88666234D01*
X137924384Y-89266820D01*
X137912161Y-89296330D01*
X137901611Y-89301618D01*
X137754073Y-89677988D01*
X137599350Y-90051522D01*
X137599350Y-90072686D01*
X137591627Y-90092387D01*
X84719350Y-90092387D01*
X84719350Y-90051522D01*
X84711251Y-90031970D01*
X84710847Y-90010813D01*
X84417089Y-89301618D01*
X84406539Y-89296330D01*
X84394316Y-89266820D01*
X83793730Y-88666234D01*
X83764220Y-88654011D01*
X83758932Y-88643461D01*
X83382562Y-88495923D01*
X83009028Y-88341200D01*
X82987864Y-88341200D01*
X82968163Y-88333477D01*
X82563974Y-88341200D01*
X82159672Y-88341200D01*
X82140120Y-88349299D01*
X82118963Y-88349703D01*
X81409768Y-88643461D01*
X81404480Y-88654011D01*
X81374970Y-88666234D01*
X80774384Y-89266820D01*
X80762161Y-89296330D01*
X80751611Y-89301618D01*
X80604073Y-89677988D01*
X80449350Y-90051522D01*
X80449350Y-90072686D01*
X80441627Y-90092387D01*
X41209350Y-90092387D01*
X41209350Y-51992387D01*
X80441627Y-51992387D01*
X80449350Y-52396576D01*
X80449350Y-52800878D01*
X80457449Y-52820430D01*
X80457853Y-52841587D01*
X80751611Y-53550782D01*
X80762161Y-53556070D01*
X80774384Y-53585580D01*
X81374970Y-54186166D01*
X81404480Y-54198389D01*
X81409768Y-54208939D01*
X81786138Y-54356477D01*
X82159672Y-54511200D01*
X82180836Y-54511200D01*
X82200537Y-54518923D01*
X82604726Y-54511200D01*
X83009028Y-54511200D01*
X83028580Y-54503101D01*
X83049737Y-54502697D01*
X83758932Y-54208939D01*
X83764220Y-54198389D01*
X83793730Y-54186166D01*
X84394316Y-53585580D01*
X84406539Y-53556070D01*
X84417089Y-53550782D01*
X84564627Y-53174412D01*
X84719350Y-52800878D01*
X84719350Y-52779714D01*
X84727073Y-52760013D01*
X84719350Y-52355824D01*
X84719350Y-51992387D01*
X137591627Y-51992387D01*
X137599350Y-52396576D01*
X137599350Y-52800878D01*
X137607449Y-52820430D01*
X137607853Y-52841587D01*
X137901611Y-53550782D01*
X137912161Y-53556070D01*
X137924384Y-53585580D01*
X138524970Y-54186166D01*
X138554480Y-54198389D01*
X138559768Y-54208939D01*
X138936138Y-54356477D01*
X139309672Y-54511200D01*
X139330836Y-54511200D01*
X139350537Y-54518923D01*
X139754726Y-54511200D01*
X140159028Y-54511200D01*
X140178580Y-54503101D01*
X140199737Y-54502697D01*
X140908932Y-54208939D01*
X140914220Y-54198389D01*
X140943730Y-54186166D01*
X141544316Y-53585580D01*
X141556539Y-53556070D01*
X141567089Y-53550782D01*
X141714627Y-53174412D01*
X141869350Y-52800878D01*
X141869350Y-52779714D01*
X141877073Y-52760013D01*
X141869350Y-52355824D01*
X141869350Y-51951522D01*
X141861251Y-51931970D01*
X141860847Y-51910813D01*
X141567089Y-51201618D01*
X141556539Y-51196330D01*
X141544316Y-51166820D01*
X140943730Y-50566234D01*
X140914220Y-50554011D01*
X140908932Y-50543461D01*
X140532562Y-50395923D01*
X140159028Y-50241200D01*
X140137864Y-50241200D01*
X140118163Y-50233477D01*
X139713974Y-50241200D01*
X139309672Y-50241200D01*
X139290120Y-50249299D01*
X139268963Y-50249703D01*
X138559768Y-50543461D01*
X138554480Y-50554011D01*
X138524970Y-50566234D01*
X137924384Y-51166820D01*
X137912161Y-51196330D01*
X137901611Y-51201618D01*
X137754073Y-51577988D01*
X137599350Y-51951522D01*
X137599350Y-51972686D01*
X137591627Y-51992387D01*
X84719350Y-51992387D01*
X84719350Y-51951522D01*
X84711251Y-51931970D01*
X84710847Y-51910813D01*
X84417089Y-51201618D01*
X84406539Y-51196330D01*
X84394316Y-51166820D01*
X83793730Y-50566234D01*
X83764220Y-50554011D01*
X83758932Y-50543461D01*
X83382562Y-50395923D01*
X83009028Y-50241200D01*
X82987864Y-50241200D01*
X82968163Y-50233477D01*
X82563974Y-50241200D01*
X82159672Y-50241200D01*
X82140120Y-50249299D01*
X82118963Y-50249703D01*
X81409768Y-50543461D01*
X81404480Y-50554011D01*
X81374970Y-50566234D01*
X80774384Y-51166820D01*
X80762161Y-51196330D01*
X80751611Y-51201618D01*
X80604073Y-51577988D01*
X80449350Y-51951522D01*
X80449350Y-51972686D01*
X80441627Y-51992387D01*
X41209350Y-51992387D01*
X41209350Y-42472387D01*
X41331627Y-42472387D01*
X41339350Y-42876576D01*
X41339350Y-43280878D01*
X41347449Y-43300430D01*
X41347853Y-43321587D01*
X41641611Y-44030782D01*
X41652161Y-44036070D01*
X41664384Y-44065580D01*
X42264970Y-44666166D01*
X42294480Y-44678389D01*
X42299768Y-44688939D01*
X42676138Y-44836477D01*
X43049672Y-44991200D01*
X43070836Y-44991200D01*
X43090537Y-44998923D01*
X43494726Y-44991200D01*
X43899028Y-44991200D01*
X43918580Y-44983101D01*
X43939737Y-44982697D01*
X44648932Y-44688939D01*
X44654220Y-44678389D01*
X44683730Y-44666166D01*
X45284316Y-44065580D01*
X45296539Y-44036070D01*
X45307089Y-44030782D01*
X45454627Y-43654412D01*
X45609350Y-43280878D01*
X45609350Y-43259714D01*
X45617073Y-43240013D01*
X45609350Y-42835824D01*
X45609350Y-42431522D01*
X45601251Y-42411970D01*
X45600847Y-42390813D01*
X45307089Y-41681618D01*
X45296539Y-41676330D01*
X45284316Y-41646820D01*
X44683730Y-41046234D01*
X44654220Y-41034011D01*
X44648932Y-41023461D01*
X44272562Y-40875923D01*
X43899028Y-40721200D01*
X43877864Y-40721200D01*
X43858163Y-40713477D01*
X43453974Y-40721200D01*
X43049672Y-40721200D01*
X43030120Y-40729299D01*
X43008963Y-40729703D01*
X42299768Y-41023461D01*
X42294480Y-41034011D01*
X42264970Y-41046234D01*
X41664384Y-41646820D01*
X41652161Y-41676330D01*
X41641611Y-41681618D01*
X41494073Y-42057988D01*
X41339350Y-42431522D01*
X41339350Y-42452686D01*
X41331627Y-42472387D01*
X41209350Y-42472387D01*
X41209350Y-34061252D01*
X198789538Y-34072482D01*
G36*
X114757541Y-128460500D02*
X114363500Y-128460500D01*
X113177388Y-126879017D01*
X114757541Y-128460500D01*
X114757541Y-128460500D01*
G37*
X114757541Y-128460500D02*
X114363500Y-128460500D01*
X113177388Y-126879017D01*
X114757541Y-128460500D01*
G36*
X203155674Y-61314079D02*
X202569450Y-60721406D01*
X202569450Y-60141630D01*
X203155674Y-61314079D01*
X203155674Y-61314079D01*
G37*
X203155674Y-61314079D02*
X202569450Y-60721406D01*
X202569450Y-60141630D01*
X203155674Y-61314079D01*
M02*
