<?xml version="1.0" encoding="UTF-8" standalone="yes"?>
<!-- Created with sK1/UniConvertor (http://sk1project.org/) -->
<svg xmlns="http://www.w3.org/2000/svg" xmlns:xlink="http://www.w3.org/1999/xlink"
  width="595.276pt" height="841.89pt" viewBox="0 0 595.276 841.89"
  fill-rule="evenodd">
<g>
<path style="stroke:#000000; stroke-width:0.850394; stroke-linejoin:round; stroke-linecap:round; fill:none" d="M 514.307 685.516L 514.307 678.152"/>
<path style="stroke:#000000; stroke-width:0.850394; stroke-linejoin:round; stroke-linecap:round; fill:none" d="M 135.539 727.542L 168.584 727.542"/>
<path style="stroke:#000000; stroke-width:0.850394; stroke-linejoin:round; stroke-linecap:round; fill:none" d="M 49.5124 727.542L 135.539 727.542"/>
<path style="stroke:#000000; stroke-width:0.850394; stroke-linejoin:round; stroke-linecap:round; fill:none" d="M 195.524 700.603L 235.968 700.603"/>
<path style="stroke:#000000; stroke-width:0.850394; stroke-linejoin:round; stroke-linecap:round; fill:none" d="M 514.35 678.664L 514.35 545.03"/>
<path style="stroke:#000000; stroke-width:0.850394; stroke-linejoin:round; stroke-linecap:round; fill:none" d="M 505.865 464.254L 497.963 458.148"/>
<path style="stroke:#000000; stroke-width:0.850394; stroke-linejoin:round; stroke-linecap:round; fill:none" d="M 393.463 755.313L 473.252 801.38"/>
<path style="stroke:#000000; stroke-width:0.850394; stroke-linejoin:round; stroke-linecap:round; fill:none" d="M 49.4929 458.116L 497.963 458.148"/>
<path style="stroke:#000000; stroke-width:0.850394; stroke-linejoin:round; stroke-linecap:round; fill:none" d="M 514.35 685.516L 527.145 708.035"/>
<path style="stroke:#000000; stroke-width:0.850394; stroke-linejoin:round; stroke-linecap:round; fill:none" d="M 505.865 536.452L 505.865 464.254"/>
<path style="stroke:#000000; stroke-width:0.850394; stroke-linejoin:round; stroke-linecap:round; fill:none" d="M 514.35 545.03L 505.865 536.452"/>
<path style="stroke:#000000; stroke-width:0.850394; stroke-linejoin:round; stroke-linecap:round; fill:none" d="M 473.252 801.38L 527.145 708.035"/>
<path style="stroke:#000000; stroke-width:0.850394; stroke-linejoin:round; stroke-linecap:round; fill:none" d="M 49.4929 458.116L 49.4929 727.539"/>
<path style="stroke:#000000; stroke-width:0.850394; stroke-linejoin:round; stroke-linecap:round; fill:none" d="M 320.646 727.539L 393.472 755.302"/>
<path style="stroke:#000000; stroke-width:0.850394; stroke-linejoin:round; stroke-linecap:round; fill:none" d="M 168.578 727.539L 195.531 700.586"/>
<path style="stroke:#000000; stroke-width:0.850394; stroke-linejoin:round; stroke-linecap:round; fill:none" d="M 262.867 727.525L 320.646 727.539"/>
<path style="stroke:#000000; stroke-width:0.850394; stroke-linejoin:round; stroke-linecap:round; fill:none" d="M 262.867 727.525L 235.968 700.603"/>
<path style="stroke:none; fill:none" d="M 67.9616 680.787L 67.9616 683.615"/>
<path style="stroke:none; fill:none" d="M 67.9616 683.615L 65.699 683.615"/>
<path style="stroke:none; fill:none" d="M 65.699 683.615L 65.699 693.514"/>
<path style="stroke:none; fill:none" d="M 65.699 693.514L 67.9616 693.514"/>
<path style="stroke:none; fill:none" d="M 67.9616 707.655L 65.699 707.655"/>
<path style="stroke:none; fill:none" d="M 65.699 707.655L 65.699 717.554"/>
<path style="stroke:none; fill:none" d="M 65.699 717.554L 67.9616 717.554"/>
<path style="stroke:none; fill:none" d="M 67.9616 717.554L 67.9616 720.383"/>
<path style="stroke:none; fill:none" d="M 161.436 717.554L 163.699 717.554"/>
<path style="stroke:none; fill:none" d="M 163.699 717.554L 163.699 707.655"/>
<path style="stroke:none; fill:none" d="M 163.699 707.655L 161.436 707.655"/>
<path style="stroke:none; fill:none" d="M 161.436 693.514L 163.699 693.514"/>
<path style="stroke:none; fill:none" d="M 163.699 693.514L 163.699 683.615"/>
<path style="stroke:none; fill:none" d="M 163.699 683.615L 161.436 683.615"/>
<path style="stroke:none; fill:none" d="M 161.436 683.615L 161.436 680.787"/>
<path style="stroke:none; fill:none" d="M 161.436 720.383L 161.436 717.554"/>
<path style="stroke:none; fill:none" d="M 67.9616 680.787L 161.436 680.787"/>
<path style="stroke:none; fill:none" d="M 67.9616 720.383L 161.436 720.383"/>
<path style="stroke:none; fill:none" d="M 49.4929 458.116L 49.4929 727.538"/>
<path style="stroke:none; fill:none" d="M 49.4929 727.538L 168.578 727.538"/>
<path style="stroke:none; fill:none" d="M 393.464 755.314L 473.252 801.38"/>
<path style="stroke:none; fill:none" d="M 473.252 801.38L 527.145 708.034"/>
<path style="stroke:none; fill:none" d="M 161.436 696.342L 161.436 693.514"/>
<path style="stroke:none; fill:none" d="M 161.436 704.827L 161.436 707.655"/>
<path style="stroke:none; fill:none" d="M 67.9616 707.655L 67.9616 704.827"/>
<path style="stroke:none; fill:none" d="M 67.9616 696.342L 67.9616 693.514"/>
<path style="stroke:none; fill:none" d="M 49.4929 458.116L 505.865 458.116"/>
<path style="stroke:none; fill:none" d="M 107.558 502.039L 109.82 502.039L 109.82 492.14L 107.558 492.14L 107.558 477.999L 109.82 477.999L 109.82 468.1L 107.558 468.1L 107.558 465.272L 67.9616 465.272L 67.9616 468.1L 65.699 468.1L 65.699 477.999L 67.9616 477.999L 67.9616 492.14L 65.699 492.14L 65.699 502.039L 67.9616 502.039L 67.9616 504.868L 107.558 504.868L 107.558 502.039z"/>
<path style="stroke:none; fill:none" d="M 161.436 502.039L 163.699 502.039L 163.699 492.14L 161.436 492.14L 161.436 477.999L 163.699 477.999L 163.699 468.1L 161.436 468.1L 161.436 465.272L 121.84 465.272L 121.84 468.1L 119.578 468.1L 119.578 477.999L 121.84 477.999L 121.84 492.14L 119.578 492.14L 119.578 502.039L 121.84 502.039L 121.84 504.868L 161.436 504.868L 161.436 502.039z"/>
<path style="stroke:none; fill:none" d="M 215.315 502.039L 217.578 502.039L 217.578 492.14L 215.315 492.14L 215.315 477.999L 217.578 477.999L 217.578 468.1L 215.315 468.1L 215.315 465.272L 175.719 465.272L 175.719 468.1L 173.457 468.1L 173.457 477.999L 175.719 477.999L 175.719 492.14L 173.457 492.14L 173.457 502.039L 175.719 502.039L 175.719 504.868L 215.315 504.868L 215.315 502.039z"/>
<path style="stroke:none; fill:none" d="M 269.194 502.039L 271.457 502.039L 271.457 492.14L 269.194 492.14L 269.194 477.999L 271.457 477.999L 271.457 468.1L 269.194 468.1L 269.194 465.272L 229.598 465.272L 229.598 468.1L 227.335 468.1L 227.335 477.999L 229.598 477.999L 229.598 492.14L 227.335 492.14L 227.335 502.039L 229.598 502.039L 229.598 504.868L 269.194 504.868L 269.194 502.039z"/>
<path style="stroke:none; fill:none" d="M 323.073 502.039L 325.335 502.039L 325.335 492.14L 323.073 492.14L 323.073 477.999L 325.335 477.999L 325.335 468.1L 323.073 468.1L 323.073 465.272L 283.477 465.272L 283.477 468.1L 281.214 468.1L 281.214 477.999L 283.477 477.999L 283.477 492.14L 281.214 492.14L 281.214 502.039L 283.477 502.039L 283.477 504.868L 323.073 504.868L 323.073 502.039z"/>
<path style="stroke:none; fill:none" d="M 376.951 502.039L 379.214 502.039L 379.214 492.14L 376.951 492.14L 376.951 477.999L 379.214 477.999L 379.214 468.1L 376.951 468.1L 376.951 465.272L 337.356 465.272L 337.356 468.1L 335.093 468.1L 335.093 477.999L 337.356 477.999L 337.356 492.14L 335.093 492.14L 335.093 502.039L 337.356 502.039L 337.356 504.868L 376.951 504.868L 376.951 502.039z"/>
<path style="stroke:none; fill:none" d="M 430.83 502.039L 433.093 502.039L 433.093 492.14L 430.83 492.14L 430.83 477.999L 433.093 477.999L 433.093 468.1L 430.83 468.1L 430.83 465.272L 391.234 465.272L 391.234 468.1L 388.972 468.1L 388.972 477.999L 391.234 477.999L 391.234 492.14L 388.972 492.14L 388.972 502.039L 391.234 502.039L 391.234 504.868L 430.83 504.868L 430.83 502.039z"/>
<path style="stroke:none; fill:none" d="M 107.558 555.918L 109.82 555.918L 109.82 546.019L 107.558 546.019L 107.558 531.878L 109.82 531.878L 109.82 521.979L 107.558 521.979L 107.558 519.15L 67.9616 519.15L 67.9616 521.979L 65.699 521.979L 65.699 531.878L 67.9616 531.878L 67.9616 546.019L 65.699 546.019L 65.699 555.918L 67.9616 555.918L 67.9616 558.746L 107.558 558.746L 107.558 555.918z"/>
<path style="stroke:none; fill:none" d="M 161.436 555.918L 163.699 555.918L 163.699 546.019L 161.436 546.019L 161.436 531.878L 163.699 531.878L 163.699 521.979L 161.436 521.979L 161.436 519.15L 121.84 519.15L 121.84 521.979L 119.578 521.979L 119.578 531.878L 121.84 531.878L 121.84 546.019L 119.578 546.019L 119.578 555.918L 121.84 555.918L 121.84 558.746L 161.436 558.746L 161.436 555.918z"/>
<path style="stroke:none; fill:none" d="M 215.315 555.918L 217.578 555.918L 217.578 546.019L 215.315 546.019L 215.315 531.878L 217.578 531.878L 217.578 521.979L 215.315 521.979L 215.315 519.15L 175.719 519.15L 175.719 521.979L 173.457 521.979L 173.457 531.878L 175.719 531.878L 175.719 546.019L 173.457 546.019L 173.457 555.918L 175.719 555.918L 175.719 558.746L 215.315 558.746L 215.315 555.918z"/>
<path style="stroke:none; fill:none" d="M 269.194 555.918L 271.457 555.918L 271.457 546.019L 269.194 546.019L 269.194 531.878L 271.457 531.878L 271.457 521.979L 269.194 521.979L 269.194 519.15L 229.598 519.15L 229.598 521.979L 227.335 521.979L 227.335 531.878L 229.598 531.878L 229.598 546.019L 227.335 546.019L 227.335 555.918L 229.598 555.918L 229.598 558.746L 269.194 558.746L 269.194 555.918z"/>
<path style="stroke:none; fill:none" d="M 323.073 555.918L 325.335 555.918L 325.335 546.019L 323.073 546.019L 323.073 531.878L 325.335 531.878L 325.335 521.979L 323.073 521.979L 323.073 519.15L 283.477 519.15L 283.477 521.979L 281.214 521.979L 281.214 531.878L 283.477 531.878L 283.477 546.019L 281.214 546.019L 281.214 555.918L 283.477 555.918L 283.477 558.746L 323.073 558.746L 323.073 555.918z"/>
<path style="stroke:none; fill:none" d="M 376.951 555.918L 379.214 555.918L 379.214 546.019L 376.951 546.019L 376.951 531.878L 379.214 531.878L 379.214 521.979L 376.951 521.979L 376.951 519.15L 337.356 519.15L 337.356 521.979L 335.093 521.979L 335.093 531.878L 337.356 531.878L 337.356 546.019L 335.093 546.019L 335.093 555.918L 337.356 555.918L 337.356 558.746L 376.951 558.746L 376.951 555.918z"/>
<path style="stroke:none; fill:none" d="M 430.83 555.918L 433.093 555.918L 433.093 546.019L 430.83 546.019L 430.83 531.878L 433.093 531.878L 433.093 521.979L 430.83 521.979L 430.83 519.15L 391.234 519.15L 391.234 521.979L 388.972 521.979L 388.972 531.878L 391.234 531.878L 391.234 546.019L 388.972 546.019L 388.972 555.918L 391.234 555.918L 391.234 558.746L 430.83 558.746L 430.83 555.918z"/>
<path style="stroke:none; fill:none" d="M 107.558 609.797L 109.82 609.797L 109.82 599.898L 107.558 599.898L 107.558 585.756L 109.82 585.756L 109.82 575.857L 107.558 575.857L 107.558 573.029L 67.9616 573.029L 67.9616 575.857L 65.699 575.857L 65.699 585.756L 67.9616 585.756L 67.9616 599.898L 65.699 599.898L 65.699 609.797L 67.9616 609.797L 67.9616 612.625L 107.558 612.625L 107.558 609.797z"/>
<path style="stroke:none; fill:none" d="M 161.436 609.797L 163.699 609.797L 163.699 599.898L 161.436 599.898L 161.436 585.756L 163.699 585.756L 163.699 575.857L 161.436 575.857L 161.436 573.029L 121.84 573.029L 121.84 575.857L 119.578 575.857L 119.578 585.756L 121.84 585.756L 121.84 599.898L 119.578 599.898L 119.578 609.797L 121.84 609.797L 121.84 612.625L 161.436 612.625L 161.436 609.797z"/>
<path style="stroke:none; fill:none" d="M 215.315 609.797L 217.578 609.797L 217.578 599.898L 215.315 599.898L 215.315 585.756L 217.578 585.756L 217.578 575.857L 215.315 575.857L 215.315 573.029L 175.719 573.029L 175.719 575.857L 173.457 575.857L 173.457 585.756L 175.719 585.756L 175.719 599.898L 173.457 599.898L 173.457 609.797L 175.719 609.797L 175.719 612.625L 215.315 612.625L 215.315 609.797z"/>
<path style="stroke:none; fill:none" d="M 269.194 609.797L 271.457 609.797L 271.457 599.898L 269.194 599.898L 269.194 585.756L 271.457 585.756L 271.457 575.857L 269.194 575.857L 269.194 573.029L 229.598 573.029L 229.598 575.857L 227.335 575.857L 227.335 585.756L 229.598 585.756L 229.598 599.898L 227.335 599.898L 227.335 609.797L 229.598 609.797L 229.598 612.625L 269.194 612.625L 269.194 609.797z"/>
<path style="stroke:none; fill:none" d="M 323.073 609.797L 325.335 609.797L 325.335 599.898L 323.073 599.898L 323.073 585.756L 325.335 585.756L 325.335 575.857L 323.073 575.857L 323.073 573.029L 283.477 573.029L 283.477 575.857L 281.214 575.857L 281.214 585.756L 283.477 585.756L 283.477 599.898L 281.214 599.898L 281.214 609.797L 283.477 609.797L 283.477 612.625L 323.073 612.625L 323.073 609.797z"/>
<path style="stroke:none; fill:none" d="M 376.951 609.797L 379.214 609.797L 379.214 599.898L 376.951 599.898L 376.951 585.756L 379.214 585.756L 379.214 575.857L 376.951 575.857L 376.951 573.029L 337.356 573.029L 337.356 575.857L 335.093 575.857L 335.093 585.756L 337.356 585.756L 337.356 599.898L 335.093 599.898L 335.093 609.797L 337.356 609.797L 337.356 612.625L 376.951 612.625L 376.951 609.797z"/>
<path style="stroke:none; fill:none" d="M 430.83 609.797L 433.093 609.797L 433.093 599.898L 430.83 599.898L 430.83 585.756L 433.093 585.756L 433.093 575.857L 430.83 575.857L 430.83 573.029L 391.234 573.029L 391.234 575.857L 388.972 575.857L 388.972 585.756L 391.234 585.756L 391.234 599.898L 388.972 599.898L 388.972 609.797L 391.234 609.797L 391.234 612.625L 430.83 612.625L 430.83 609.797z"/>
<path style="stroke:none; fill:none" d="M 107.558 663.676L 109.82 663.676L 109.82 653.777L 107.558 653.777L 107.558 639.635L 109.82 639.635L 109.82 629.736L 107.558 629.736L 107.558 626.908L 67.9616 626.908L 67.9616 629.736L 65.699 629.736L 65.699 639.635L 67.9616 639.635L 67.9616 653.777L 65.699 653.777L 65.699 663.676L 67.9616 663.676L 67.9616 666.504L 107.558 666.504L 107.558 663.676z"/>
<path style="stroke:none; fill:none" d="M 161.436 663.676L 163.699 663.676L 163.699 653.777L 161.436 653.777L 161.436 639.635L 163.699 639.635L 163.699 629.736L 161.436 629.736L 161.436 626.908L 121.84 626.908L 121.84 629.736L 119.578 629.736L 119.578 639.635L 121.84 639.635L 121.84 653.777L 119.578 653.777L 119.578 663.676L 121.84 663.676L 121.84 666.504L 161.436 666.504L 161.436 663.676z"/>
<path style="stroke:none; fill:none" d="M 215.315 663.676L 217.578 663.676L 217.578 653.777L 215.315 653.777L 215.315 639.635L 217.578 639.635L 217.578 629.736L 215.315 629.736L 215.315 626.908L 175.719 626.908L 175.719 629.736L 173.457 629.736L 173.457 639.635L 175.719 639.635L 175.719 653.777L 173.457 653.777L 173.457 663.676L 175.719 663.676L 175.719 666.504L 215.315 666.504L 215.315 663.676z"/>
<path style="stroke:none; fill:none" d="M 269.194 663.676L 271.457 663.676L 271.457 653.777L 269.194 653.777L 269.194 639.635L 271.457 639.635L 271.457 629.736L 269.194 629.736L 269.194 626.908L 229.598 626.908L 229.598 629.736L 227.335 629.736L 227.335 639.635L 229.598 639.635L 229.598 653.777L 227.335 653.777L 227.335 663.676L 229.598 663.676L 229.598 666.504L 269.194 666.504L 269.194 663.676z"/>
<path style="stroke:none; fill:none" d="M 323.073 663.676L 325.335 663.676L 325.335 653.777L 323.073 653.777L 323.073 639.635L 325.335 639.635L 325.335 629.736L 323.073 629.736L 323.073 626.908L 283.477 626.908L 283.477 629.736L 281.214 629.736L 281.214 639.635L 283.477 639.635L 283.477 653.777L 281.214 653.777L 281.214 663.676L 283.477 663.676L 283.477 666.504L 323.073 666.504L 323.073 663.676z"/>
<path style="stroke:none; fill:none" d="M 376.951 663.676L 379.214 663.676L 379.214 653.777L 376.951 653.777L 376.951 639.635L 379.214 639.635L 379.214 629.736L 376.951 629.736L 376.951 626.908L 337.356 626.908L 337.356 629.736L 335.093 629.736L 335.093 639.635L 337.356 639.635L 337.356 653.777L 335.093 653.777L 335.093 663.676L 337.356 663.676L 337.356 666.504L 376.951 666.504L 376.951 663.676z"/>
<path style="stroke:none; fill:none" d="M 309.604 717.554L 311.867 717.554L 311.867 707.655L 309.604 707.655L 309.604 693.514L 311.867 693.514L 311.867 683.615L 309.604 683.615L 309.604 680.787L 270.008 680.787L 270.008 683.615L 267.746 683.615L 267.746 693.514L 270.008 693.514L 270.008 707.655L 267.746 707.655L 267.746 717.554L 270.008 717.554L 270.008 720.383L 309.604 720.383L 309.604 717.554z"/>
<path style="stroke:none; fill:none" d="M 364.564 728.984L 366.75 729.57L 369.312 720.008L 367.127 719.423L 370.787 705.763L 372.972 706.349L 375.534 696.787L 373.349 696.201L 374.081 693.47L 335.834 683.221L 335.102 685.953L 332.916 685.368L 330.354 694.929L 332.54 695.515L 328.88 709.174L 326.694 708.589L 324.132 718.151L 326.318 718.736L 325.586 721.468L 363.832 731.716L 364.564 728.984z"/>
<path style="stroke:none; fill:none" d="M 262.867 727.524L 235.928 700.585"/>
<path style="stroke:none; fill:none" d="M 168.578 727.538L 195.531 700.585"/>
<path style="stroke:none; fill:none" d="M 195.531 700.585L 235.928 700.585"/>
<path style="stroke:none; fill:none" d="M 262.867 727.524L 320.647 727.538"/>
<path style="stroke:none; fill:none" d="M 320.647 727.538L 393.471 755.302"/>
<path style="stroke:none; fill:none" d="M 67.9616 704.827L 67.9616 696.342"/>
<path style="stroke:none; fill:none" d="M 161.436 704.827L 161.436 696.342"/>
<path style="stroke:none; fill:none" d="M 437.986 608.793L 437.986 458.116"/>
<path style="stroke:none; fill:none" d="M 475.421 790.94C 475.421 787.662 472.76 785.001 469.482 785.001C 466.203 785.001 463.542 787.662 463.542 790.94C 463.542 794.219 466.203 796.88 469.482 796.88C 472.76 796.88 475.421 794.219 475.421 790.94z"/>
<path style="stroke:none; fill:none" d="M 522.159 709.989C 522.159 706.71 519.497 704.049 516.219 704.049C 512.941 704.049 510.28 706.71 510.28 709.989C 510.28 713.267 512.941 715.928 516.219 715.928C 519.497 715.928 522.159 713.267 522.159 709.989z"/>
<path style="stroke:none; fill:none" d="M 396.526 691.423C 396.526 688.144 393.865 685.483 390.587 685.483C 387.308 685.483 384.647 688.144 384.647 691.423C 384.647 694.701 387.308 697.362 390.587 697.362C 393.865 697.362 396.526 694.701 396.526 691.423z"/>
<path style="stroke:none; fill:none" d="M 63.9171 700.585C 63.9171 697.306 61.2561 694.645 57.9777 694.645C 54.6994 694.645 52.0384 697.306 52.0384 700.585C 52.0384 703.863 54.6994 706.524 57.9777 706.524C 61.2561 706.524 63.9171 703.863 63.9171 700.585z"/>
<path style="stroke:none; fill:none" d="M 63.9171 485.07C 63.9171 481.791 61.2561 479.13 57.9777 479.13C 54.6994 479.13 52.0384 481.791 52.0384 485.07C 52.0384 488.348 54.6994 491.009 57.9777 491.009C 61.2561 491.009 63.9171 488.348 63.9171 485.07z"/>
<path style="stroke:none; fill:none" d="M 174.517 512.009C 174.517 508.731 171.856 506.07 168.578 506.07C 165.299 506.07 162.638 508.731 162.638 512.009C 162.638 515.287 165.299 517.948 168.578 517.948C 171.856 517.948 174.517 515.287 174.517 512.009z"/>
<path style="stroke:none; fill:none" d="M 336.154 512.009C 336.154 508.731 333.492 506.07 330.214 506.07C 326.936 506.07 324.275 508.731 324.275 512.009C 324.275 515.287 326.936 517.948 330.214 517.948C 333.492 517.948 336.154 515.287 336.154 512.009z"/>
<path style="stroke:none; fill:none" d="M 174.517 619.767C 174.517 616.488 171.856 613.827 168.578 613.827C 165.299 613.827 162.638 616.488 162.638 619.767C 162.638 623.045 165.299 625.706 168.578 625.706C 171.856 625.706 174.517 623.045 174.517 619.767z"/>
<path style="stroke:none; fill:none" d="M 336.154 619.767C 336.154 616.488 333.492 613.827 330.214 613.827C 326.936 613.827 324.275 616.488 324.275 619.767C 324.275 623.045 326.936 625.706 330.214 625.706C 333.492 625.706 336.154 623.045 336.154 619.767z"/>
<path style="stroke:none; fill:none" d="M 470.966 786.901L 472.262 787.648"/>
<path style="stroke:none; fill:none" d="M 472.262 787.648L 473.223 788.793"/>
<path style="stroke:none; fill:none" d="M 473.223 788.793L 473.735 790.202"/>
<path style="stroke:none; fill:none" d="M 473.735 790.202L 473.735 791.695"/>
<path style="stroke:none; fill:none" d="M 473.735 791.695L 473.223 793.104"/>
<path style="stroke:none; fill:none" d="M 473.223 793.104L 472.262 794.249"/>
<path style="stroke:none; fill:none" d="M 472.262 794.249L 470.966 794.996"/>
<path style="stroke:none; fill:none" d="M 470.966 794.996L 469.493 795.256"/>
<path style="stroke:none; fill:none" d="M 469.493 795.256L 468.019 794.996"/>
<path style="stroke:none; fill:none" d="M 468.019 794.996L 466.724 794.249"/>
<path style="stroke:none; fill:none" d="M 466.724 794.249L 465.762 793.104"/>
<path style="stroke:none; fill:none" d="M 465.762 793.104L 465.25 791.695"/>
<path style="stroke:none; fill:none" d="M 465.25 791.695L 465.25 790.202"/>
<path style="stroke:none; fill:none" d="M 465.25 790.202L 465.762 788.793"/>
<path style="stroke:none; fill:none" d="M 465.762 788.793L 466.724 787.648"/>
<path style="stroke:none; fill:none" d="M 466.724 787.648L 468.019 786.901"/>
<path style="stroke:none; fill:none" d="M 468.019 786.901L 469.493 786.641"/>
<path style="stroke:none; fill:none" d="M 469.493 786.641L 470.966 786.901"/>
<path style="stroke:none; fill:none" d="M 517.775 705.927L 519.07 706.674"/>
<path style="stroke:none; fill:none" d="M 519.07 706.674L 520.031 707.819"/>
<path style="stroke:none; fill:none" d="M 520.031 707.819L 520.543 709.228"/>
<path style="stroke:none; fill:none" d="M 520.543 709.228L 520.543 710.721"/>
<path style="stroke:none; fill:none" d="M 520.543 710.721L 520.031 712.13"/>
<path style="stroke:none; fill:none" d="M 520.031 712.13L 519.07 713.275"/>
<path style="stroke:none; fill:none" d="M 519.07 713.275L 517.775 714.022"/>
<path style="stroke:none; fill:none" d="M 517.775 714.022L 516.301 714.282"/>
<path style="stroke:none; fill:none" d="M 516.301 714.282L 514.827 714.022"/>
<path style="stroke:none; fill:none" d="M 514.827 714.022L 513.532 713.275"/>
<path style="stroke:none; fill:none" d="M 513.532 713.275L 512.57 712.13"/>
<path style="stroke:none; fill:none" d="M 512.57 712.13L 512.059 710.721"/>
<path style="stroke:none; fill:none" d="M 512.059 710.721L 512.059 709.228"/>
<path style="stroke:none; fill:none" d="M 512.059 709.228L 512.57 707.819"/>
<path style="stroke:none; fill:none" d="M 512.57 707.819L 513.532 706.674"/>
<path style="stroke:none; fill:none" d="M 513.532 706.674L 514.827 705.927"/>
<path style="stroke:none; fill:none" d="M 514.827 705.927L 516.301 705.667"/>
<path style="stroke:none; fill:none" d="M 516.301 705.667L 517.775 705.927"/>
<path style="stroke:none; fill:none" d="M 59.451 696.537L 60.7469 697.284"/>
<path style="stroke:none; fill:none" d="M 60.7469 697.284L 61.7085 698.43"/>
<path style="stroke:none; fill:none" d="M 61.7085 698.43L 62.2202 699.838"/>
<path style="stroke:none; fill:none" d="M 62.2202 699.838L 62.2202 701.331"/>
<path style="stroke:none; fill:none" d="M 62.2202 701.331L 61.7085 702.74"/>
<path style="stroke:none; fill:none" d="M 61.7085 702.74L 60.7469 703.885"/>
<path style="stroke:none; fill:none" d="M 60.7469 703.885L 59.451 704.632"/>
<path style="stroke:none; fill:none" d="M 59.451 704.632L 57.9777 704.892"/>
<path style="stroke:none; fill:none" d="M 57.9777 704.892L 56.5045 704.632"/>
<path style="stroke:none; fill:none" d="M 56.5045 704.632L 55.2086 703.885"/>
<path style="stroke:none; fill:none" d="M 55.2086 703.885L 54.247 702.74"/>
<path style="stroke:none; fill:none" d="M 54.247 702.74L 53.7353 701.331"/>
<path style="stroke:none; fill:none" d="M 53.7353 701.331L 53.7353 699.838"/>
<path style="stroke:none; fill:none" d="M 53.7353 699.838L 54.247 698.43"/>
<path style="stroke:none; fill:none" d="M 54.247 698.43L 55.2086 697.284"/>
<path style="stroke:none; fill:none" d="M 55.2086 697.284L 56.5045 696.537"/>
<path style="stroke:none; fill:none" d="M 56.5045 696.537L 57.9777 696.277"/>
<path style="stroke:none; fill:none" d="M 57.9777 696.277L 59.451 696.537"/>
<path style="stroke:none; fill:none" d="M 392.057 687.374L 393.353 688.12"/>
<path style="stroke:none; fill:none" d="M 393.353 688.12L 394.314 689.266"/>
<path style="stroke:none; fill:none" d="M 394.314 689.266L 394.826 690.674"/>
<path style="stroke:none; fill:none" d="M 394.826 690.674L 394.826 692.168"/>
<path style="stroke:none; fill:none" d="M 394.826 692.168L 394.314 693.576"/>
<path style="stroke:none; fill:none" d="M 394.314 693.576L 393.353 694.722"/>
<path style="stroke:none; fill:none" d="M 393.353 694.722L 392.057 695.468"/>
<path style="stroke:none; fill:none" d="M 392.057 695.468L 390.584 695.729"/>
<path style="stroke:none; fill:none" d="M 390.584 695.729L 389.11 695.468"/>
<path style="stroke:none; fill:none" d="M 389.11 695.468L 387.815 694.722"/>
<path style="stroke:none; fill:none" d="M 387.815 694.722L 386.853 693.576"/>
<path style="stroke:none; fill:none" d="M 386.853 693.576L 386.341 692.168"/>
<path style="stroke:none; fill:none" d="M 386.341 692.168L 386.341 690.674"/>
<path style="stroke:none; fill:none" d="M 386.341 690.674L 386.853 689.266"/>
<path style="stroke:none; fill:none" d="M 386.853 689.266L 387.815 688.12"/>
<path style="stroke:none; fill:none" d="M 387.815 688.12L 389.11 687.374"/>
<path style="stroke:none; fill:none" d="M 389.11 687.374L 390.584 687.114"/>
<path style="stroke:none; fill:none" d="M 390.584 687.114L 392.057 687.374"/>
<path style="stroke:none; fill:none" d="M 170.065 615.704L 171.361 616.452"/>
<path style="stroke:none; fill:none" d="M 171.361 616.452L 172.323 617.598"/>
<path style="stroke:none; fill:none" d="M 172.323 617.598L 172.834 619.004"/>
<path style="stroke:none; fill:none" d="M 172.834 619.004L 172.834 620.5"/>
<path style="stroke:none; fill:none" d="M 172.834 620.5L 172.323 621.906"/>
<path style="stroke:none; fill:none" d="M 172.323 621.906L 171.361 623.052"/>
<path style="stroke:none; fill:none" d="M 171.361 623.052L 170.065 623.801"/>
<path style="stroke:none; fill:none" d="M 170.065 623.801L 168.592 624.06"/>
<path style="stroke:none; fill:none" d="M 168.592 624.06L 167.119 623.801"/>
<path style="stroke:none; fill:none" d="M 167.119 623.801L 165.823 623.052"/>
<path style="stroke:none; fill:none" d="M 165.823 623.052L 164.861 621.906"/>
<path style="stroke:none; fill:none" d="M 164.861 621.906L 164.349 620.5"/>
<path style="stroke:none; fill:none" d="M 164.349 620.5L 164.349 619.004"/>
<path style="stroke:none; fill:none" d="M 164.349 619.004L 164.861 617.598"/>
<path style="stroke:none; fill:none" d="M 164.861 617.598L 165.823 616.452"/>
<path style="stroke:none; fill:none" d="M 165.823 616.452L 167.119 615.704"/>
<path style="stroke:none; fill:none" d="M 167.119 615.704L 168.592 615.445"/>
<path style="stroke:none; fill:none" d="M 168.592 615.445L 170.065 615.704"/>
<path style="stroke:none; fill:none" d="M 331.673 615.704L 332.969 616.452"/>
<path style="stroke:none; fill:none" d="M 332.969 616.452L 333.93 617.598"/>
<path style="stroke:none; fill:none" d="M 333.93 617.598L 334.442 619.004"/>
<path style="stroke:none; fill:none" d="M 334.442 619.004L 334.442 620.5"/>
<path style="stroke:none; fill:none" d="M 334.442 620.5L 333.93 621.906"/>
<path style="stroke:none; fill:none" d="M 333.93 621.906L 332.969 623.052"/>
<path style="stroke:none; fill:none" d="M 332.969 623.052L 331.673 623.801"/>
<path style="stroke:none; fill:none" d="M 331.673 623.801L 330.2 624.06"/>
<path style="stroke:none; fill:none" d="M 330.2 624.06L 328.726 623.801"/>
<path style="stroke:none; fill:none" d="M 328.726 623.801L 327.431 623.052"/>
<path style="stroke:none; fill:none" d="M 327.431 623.052L 326.469 621.906"/>
<path style="stroke:none; fill:none" d="M 326.469 621.906L 325.958 620.5"/>
<path style="stroke:none; fill:none" d="M 325.958 620.5L 325.958 619.004"/>
<path style="stroke:none; fill:none" d="M 325.958 619.004L 326.469 617.598"/>
<path style="stroke:none; fill:none" d="M 326.469 617.598L 327.431 616.452"/>
<path style="stroke:none; fill:none" d="M 327.431 616.452L 328.726 615.704"/>
<path style="stroke:none; fill:none" d="M 328.726 615.704L 330.2 615.445"/>
<path style="stroke:none; fill:none" d="M 330.2 615.445L 331.673 615.704"/>
<path style="stroke:none; fill:none" d="M 331.673 507.947L 332.969 508.695"/>
<path style="stroke:none; fill:none" d="M 332.969 508.695L 333.93 509.841"/>
<path style="stroke:none; fill:none" d="M 333.93 509.841L 334.442 511.247"/>
<path style="stroke:none; fill:none" d="M 334.442 511.247L 334.442 512.743"/>
<path style="stroke:none; fill:none" d="M 334.442 512.743L 333.93 514.149"/>
<path style="stroke:none; fill:none" d="M 333.93 514.149L 332.969 515.295"/>
<path style="stroke:none; fill:none" d="M 332.969 515.295L 331.673 516.043"/>
<path style="stroke:none; fill:none" d="M 331.673 516.043L 330.2 516.303"/>
<path style="stroke:none; fill:none" d="M 330.2 516.303L 328.726 516.043"/>
<path style="stroke:none; fill:none" d="M 328.726 516.043L 327.431 515.295"/>
<path style="stroke:none; fill:none" d="M 327.431 515.295L 326.469 514.149"/>
<path style="stroke:none; fill:none" d="M 326.469 514.149L 325.958 512.743"/>
<path style="stroke:none; fill:none" d="M 325.958 512.743L 325.958 511.247"/>
<path style="stroke:none; fill:none" d="M 325.958 511.247L 326.469 509.841"/>
<path style="stroke:none; fill:none" d="M 326.469 509.841L 327.431 508.695"/>
<path style="stroke:none; fill:none" d="M 327.431 508.695L 328.726 507.947"/>
<path style="stroke:none; fill:none" d="M 328.726 507.947L 330.2 507.687"/>
<path style="stroke:none; fill:none" d="M 330.2 507.687L 331.673 507.947"/>
<path style="stroke:none; fill:none" d="M 170.065 507.947L 171.361 508.695"/>
<path style="stroke:none; fill:none" d="M 171.361 508.695L 172.323 509.841"/>
<path style="stroke:none; fill:none" d="M 172.323 509.841L 172.834 511.247"/>
<path style="stroke:none; fill:none" d="M 172.834 511.247L 172.834 512.743"/>
<path style="stroke:none; fill:none" d="M 172.834 512.743L 172.323 514.149"/>
<path style="stroke:none; fill:none" d="M 172.323 514.149L 171.361 515.295"/>
<path style="stroke:none; fill:none" d="M 171.361 515.295L 170.065 516.043"/>
<path style="stroke:none; fill:none" d="M 170.065 516.043L 168.592 516.303"/>
<path style="stroke:none; fill:none" d="M 168.592 516.303L 167.119 516.043"/>
<path style="stroke:none; fill:none" d="M 167.119 516.043L 165.823 515.295"/>
<path style="stroke:none; fill:none" d="M 165.823 515.295L 164.861 514.149"/>
<path style="stroke:none; fill:none" d="M 164.861 514.149L 164.349 512.743"/>
<path style="stroke:none; fill:none" d="M 164.349 512.743L 164.349 511.247"/>
<path style="stroke:none; fill:none" d="M 164.349 511.247L 164.861 509.841"/>
<path style="stroke:none; fill:none" d="M 164.861 509.841L 165.823 508.695"/>
<path style="stroke:none; fill:none" d="M 165.823 508.695L 167.119 507.947"/>
<path style="stroke:none; fill:none" d="M 167.119 507.947L 168.592 507.687"/>
<path style="stroke:none; fill:none" d="M 168.592 507.687L 170.065 507.947"/>
<path style="stroke:none; fill:none" d="M 59.451 481.021L 60.7469 481.77"/>
<path style="stroke:none; fill:none" d="M 60.7469 481.77L 61.7085 482.916"/>
<path style="stroke:none; fill:none" d="M 61.7085 482.916L 62.2202 484.322"/>
<path style="stroke:none; fill:none" d="M 62.2202 484.322L 62.2202 485.818"/>
<path style="stroke:none; fill:none" d="M 62.2202 485.818L 61.7085 487.224"/>
<path style="stroke:none; fill:none" d="M 61.7085 487.224L 60.7469 488.37"/>
<path style="stroke:none; fill:none" d="M 60.7469 488.37L 59.451 489.118"/>
<path style="stroke:none; fill:none" d="M 59.451 489.118L 57.9777 489.377"/>
<path style="stroke:none; fill:none" d="M 57.9777 489.377L 56.5045 489.118"/>
<path style="stroke:none; fill:none" d="M 56.5045 489.118L 55.2086 488.37"/>
<path style="stroke:none; fill:none" d="M 55.2086 488.37L 54.247 487.224"/>
<path style="stroke:none; fill:none" d="M 54.247 487.224L 53.7353 485.818"/>
<path style="stroke:none; fill:none" d="M 53.7353 485.818L 53.7353 484.322"/>
<path style="stroke:none; fill:none" d="M 53.7353 484.322L 54.247 482.916"/>
<path style="stroke:none; fill:none" d="M 54.247 482.916L 55.2086 481.77"/>
<path style="stroke:none; fill:none" d="M 55.2086 481.77L 56.5045 481.021"/>
<path style="stroke:none; fill:none" d="M 56.5045 481.021L 57.9777 480.762"/>
<path style="stroke:none; fill:none" d="M 57.9777 480.762L 59.451 481.021"/>
<path style="stroke:none; fill:none" d="M 53.7353 485.07L 62.2202 485.07"/>
<path style="stroke:none; fill:none" d="M 57.9777 485.07L 57.9777 480.762"/>
<path style="stroke:none; fill:none" d="M 57.9777 485.07L 57.9777 489.377"/>
<path style="stroke:none; fill:none" d="M 49.4929 458.116L 49.4929 727.538"/>
<path style="stroke:none; fill:none" d="M 49.4929 727.538L 168.578 727.538"/>
<path style="stroke:none; fill:none" d="M 393.464 755.314L 473.252 801.38"/>
<path style="stroke:none; fill:none" d="M 473.252 801.38L 527.145 708.034"/>
<path style="stroke:none; fill:none" d="M 161.436 696.342L 161.436 693.514"/>
<path style="stroke:none; fill:none" d="M 161.436 704.827L 161.436 707.655"/>
<path style="stroke:none; fill:none" d="M 67.9616 707.655L 67.9616 704.827"/>
<path style="stroke:none; fill:none" d="M 67.9616 696.342L 67.9616 693.514"/>
<path style="stroke:none; fill:none" d="M 454.675 465.148L 488.614 465.148"/>
<path style="stroke:none; fill:none" d="M 454.675 572.622L 488.614 572.622"/>
<path style="stroke:none; fill:none" d="M 454.675 572.622L 454.675 465.148"/>
<path style="stroke:none; fill:none" d="M 488.614 572.622L 488.614 465.148"/>
<path style="stroke:none; fill:none" d="M 457.277 566.203L 457.277 573.386"/>
<path style="stroke:none; fill:none" d="M 457.277 573.386L 486.012 573.386"/>
<path style="stroke:none; fill:none" d="M 486.012 573.386L 486.012 566.203"/>
<path style="stroke:none; fill:none" d="M 486.012 566.203L 457.277 566.203"/>
<path style="stroke:none; fill:none" d="M 496.788 468.906L 496.788 555.112"/>
<path style="stroke:none; fill:none" d="M 496.788 555.112L 446.501 555.112"/>
<path style="stroke:none; fill:none" d="M 446.501 555.112L 446.501 468.906"/>
<path style="stroke:none; fill:none" d="M 446.501 468.906L 496.788 468.906"/>
<path style="stroke:none; fill:none" d="M 453.685 476.09L 453.685 468.906"/>
<path style="stroke:none; fill:none" d="M 446.501 476.09L 453.685 476.09"/>
<path style="stroke:none; fill:none" d="M 481.074 564.494L 481.074 558.029"/>
<path style="stroke:none; fill:none" d="M 481.074 558.029L 486.103 558.029"/>
<path style="stroke:none; fill:none" d="M 486.103 558.029L 486.103 564.494"/>
<path style="stroke:none; fill:none" d="M 486.103 564.494L 481.074 564.494"/>
<path style="stroke:none; fill:none" d="M 478.201 564.451L 473.172 564.451"/>
<path style="stroke:none; fill:none" d="M 478.201 557.986L 478.201 564.451"/>
<path style="stroke:none; fill:none" d="M 473.172 557.986L 478.201 557.986"/>
<path style="stroke:none; fill:none" d="M 473.172 564.451L 473.172 557.986"/>
<path style="stroke:none; fill:none" d="M 465.27 564.494L 465.27 558.029"/>
<path style="stroke:none; fill:none" d="M 465.27 558.029L 470.298 558.029"/>
<path style="stroke:none; fill:none" d="M 470.298 558.029L 470.298 564.494"/>
<path style="stroke:none; fill:none" d="M 470.298 564.494L 465.27 564.494"/>
<path style="stroke:none; fill:none" d="M 462.396 564.451L 457.367 564.451"/>
<path style="stroke:none; fill:none" d="M 462.396 557.986L 462.396 564.451"/>
<path style="stroke:none; fill:none" d="M 457.367 557.986L 462.396 557.986"/>
<path style="stroke:none; fill:none" d="M 457.367 564.451L 457.367 557.986"/>
<path style="stroke:none; fill:none" d="M 474.204 530.292L 468.548 530.292"/>
<path style="stroke:none; fill:none" d="M 468.548 530.292L 468.548 528.676"/>
<path style="stroke:none; fill:none" d="M 468.548 528.676L 468.816 528.272"/>
<path style="stroke:none; fill:none" d="M 468.816 528.272L 469.088 528.07"/>
<path style="stroke:none; fill:none" d="M 469.088 528.07L 469.625 527.867"/>
<path style="stroke:none; fill:none" d="M 469.625 527.867L 470.434 527.867"/>
<path style="stroke:none; fill:none" d="M 470.434 527.867L 470.972 528.07"/>
<path style="stroke:none; fill:none" d="M 470.972 528.07L 471.243 528.272"/>
<path style="stroke:none; fill:none" d="M 471.243 528.272L 471.512 528.676"/>
<path style="stroke:none; fill:none" d="M 471.512 528.676L 471.512 530.292"/>
<path style="stroke:none; fill:none" d="M 474.204 526.049L 470.434 526.049"/>
<path style="stroke:none; fill:none" d="M 471.512 526.049L 470.972 525.848"/>
<path style="stroke:none; fill:none" d="M 470.972 525.848L 470.703 525.645"/>
<path style="stroke:none; fill:none" d="M 470.703 525.645L 470.434 525.241"/>
<path style="stroke:none; fill:none" d="M 470.434 525.241L 470.434 524.837"/>
<path style="stroke:none; fill:none" d="M 474.204 522.817L 473.936 523.221"/>
<path style="stroke:none; fill:none" d="M 473.936 523.221L 473.667 523.423"/>
<path style="stroke:none; fill:none" d="M 473.667 523.423L 473.127 523.625"/>
<path style="stroke:none; fill:none" d="M 473.127 523.625L 471.512 523.625"/>
<path style="stroke:none; fill:none" d="M 471.512 523.625L 470.972 523.423"/>
<path style="stroke:none; fill:none" d="M 470.972 523.423L 470.703 523.221"/>
<path style="stroke:none; fill:none" d="M 470.703 523.221L 470.434 522.817"/>
<path style="stroke:none; fill:none" d="M 470.434 522.817L 470.434 522.211"/>
<path style="stroke:none; fill:none" d="M 470.434 522.211L 470.703 521.807"/>
<path style="stroke:none; fill:none" d="M 470.703 521.807L 470.972 521.605"/>
<path style="stroke:none; fill:none" d="M 470.972 521.605L 471.512 521.403"/>
<path style="stroke:none; fill:none" d="M 471.512 521.403L 473.127 521.403"/>
<path style="stroke:none; fill:none" d="M 473.127 521.403L 473.667 521.605"/>
<path style="stroke:none; fill:none" d="M 473.667 521.605L 473.936 521.807"/>
<path style="stroke:none; fill:none" d="M 473.936 521.807L 474.204 522.211"/>
<path style="stroke:none; fill:none" d="M 474.204 522.211L 474.204 522.817"/>
<path style="stroke:none; fill:none" d="M 474.204 519.585L 468.548 519.585"/>
<path style="stroke:none; fill:none" d="M 468.548 519.585L 472.589 518.171"/>
<path style="stroke:none; fill:none" d="M 472.589 518.171L 468.548 516.757"/>
<path style="stroke:none; fill:none" d="M 468.548 516.757L 474.204 516.757"/>
<path style="stroke:none; fill:none" d="M 474.204 514.736L 470.434 514.736"/>
<path style="stroke:none; fill:none" d="M 468.548 514.736L 468.816 514.938"/>
<path style="stroke:none; fill:none" d="M 468.816 514.938L 469.088 514.736"/>
<path style="stroke:none; fill:none" d="M 469.088 514.736L 468.816 514.534"/>
<path style="stroke:none; fill:none" d="M 468.816 514.534L 468.548 514.736"/>
<path style="stroke:none; fill:none" d="M 468.548 514.736L 469.088 514.736"/>
<path style="stroke:none; fill:none" d="M 473.936 510.898L 474.204 511.302"/>
<path style="stroke:none; fill:none" d="M 474.204 511.302L 474.204 512.11"/>
<path style="stroke:none; fill:none" d="M 474.204 512.11L 473.936 512.514"/>
<path style="stroke:none; fill:none" d="M 473.936 512.514L 473.667 512.716"/>
<path style="stroke:none; fill:none" d="M 473.667 512.716L 473.127 512.918"/>
<path style="stroke:none; fill:none" d="M 473.127 512.918L 471.512 512.918"/>
<path style="stroke:none; fill:none" d="M 471.512 512.918L 470.972 512.716"/>
<path style="stroke:none; fill:none" d="M 470.972 512.716L 470.703 512.514"/>
<path style="stroke:none; fill:none" d="M 470.703 512.514L 470.434 512.11"/>
<path style="stroke:none; fill:none" d="M 470.434 512.11L 470.434 511.302"/>
<path style="stroke:none; fill:none" d="M 470.434 511.302L 470.703 510.898"/>
<path style="stroke:none; fill:none" d="M 474.204 509.08L 470.434 509.08"/>
<path style="stroke:none; fill:none" d="M 471.512 509.08L 470.972 508.878"/>
<path style="stroke:none; fill:none" d="M 470.972 508.878L 470.703 508.676"/>
<path style="stroke:none; fill:none" d="M 470.703 508.676L 470.434 508.272"/>
<path style="stroke:none; fill:none" d="M 470.434 508.272L 470.434 507.868"/>
<path style="stroke:none; fill:none" d="M 474.204 505.847L 473.936 506.251"/>
<path style="stroke:none; fill:none" d="M 473.936 506.251L 473.667 506.453"/>
<path style="stroke:none; fill:none" d="M 473.667 506.453L 473.127 506.655"/>
<path style="stroke:none; fill:none" d="M 473.127 506.655L 471.512 506.655"/>
<path style="stroke:none; fill:none" d="M 471.512 506.655L 470.972 506.453"/>
<path style="stroke:none; fill:none" d="M 470.972 506.453L 470.703 506.251"/>
<path style="stroke:none; fill:none" d="M 470.703 506.251L 470.434 505.847"/>
<path style="stroke:none; fill:none" d="M 470.434 505.847L 470.434 505.241"/>
<path style="stroke:none; fill:none" d="M 470.434 505.241L 470.703 504.837"/>
<path style="stroke:none; fill:none" d="M 470.703 504.837L 470.972 504.635"/>
<path style="stroke:none; fill:none" d="M 470.972 504.635L 471.512 504.433"/>
<path style="stroke:none; fill:none" d="M 471.512 504.433L 473.127 504.433"/>
<path style="stroke:none; fill:none" d="M 473.127 504.433L 473.667 504.635"/>
<path style="stroke:none; fill:none" d="M 473.667 504.635L 473.936 504.837"/>
<path style="stroke:none; fill:none" d="M 473.936 504.837L 474.204 505.241"/>
<path style="stroke:none; fill:none" d="M 474.204 505.241L 474.204 505.847"/>
<path style="stroke:none; fill:none" d="M 468.548 497.362L 468.548 499.383"/>
<path style="stroke:none; fill:none" d="M 468.548 499.383L 471.243 499.585"/>
<path style="stroke:none; fill:none" d="M 471.243 499.585L 470.972 499.383"/>
<path style="stroke:none; fill:none" d="M 470.972 499.383L 470.703 498.979"/>
<path style="stroke:none; fill:none" d="M 470.703 498.979L 470.703 497.969"/>
<path style="stroke:none; fill:none" d="M 470.703 497.969L 470.972 497.565"/>
<path style="stroke:none; fill:none" d="M 470.972 497.565L 471.243 497.362"/>
<path style="stroke:none; fill:none" d="M 471.243 497.362L 471.78 497.16"/>
<path style="stroke:none; fill:none" d="M 471.78 497.16L 473.127 497.16"/>
<path style="stroke:none; fill:none" d="M 473.127 497.16L 473.667 497.362"/>
<path style="stroke:none; fill:none" d="M 473.667 497.362L 473.936 497.565"/>
<path style="stroke:none; fill:none" d="M 473.936 497.565L 474.204 497.969"/>
<path style="stroke:none; fill:none" d="M 474.204 497.969L 474.204 498.979"/>
<path style="stroke:none; fill:none" d="M 474.204 498.979L 473.936 499.383"/>
<path style="stroke:none; fill:none" d="M 473.936 499.383L 473.667 499.585"/>
<path style="stroke:none; fill:none" d="M 468.548 495.948L 474.204 494.534"/>
<path style="stroke:none; fill:none" d="M 474.204 494.534L 468.548 493.12"/>
<path style="stroke:#000000; stroke-width:0.850394; stroke-linejoin:round; stroke-linecap:round; fill:none" d="M 1601.23 246.886C 1601.23 243.764 1598.7 241.23 1595.58 241.23C 1592.45 241.23 1589.92 243.764 1589.92 246.886C 1589.92 250.009 1592.45 252.543 1595.58 252.543C 1598.7 252.543 1601.23 250.009 1601.23 246.886z"/>
<path style="stroke:#000000; stroke-width:0.850394; stroke-linejoin:round; stroke-linecap:round; fill:none" d="M 1622 172.914C 1622 169.792 1619.47 167.258 1616.35 167.258C 1613.22 167.258 1610.69 169.792 1610.69 172.914C 1610.69 176.037 1613.22 178.571 1616.35 178.571C 1619.47 178.571 1622 176.037 1622 172.914z"/>
<path style="stroke:none; fill:none" d="M 505.865 566.364L 505.865 458.116"/>
<path style="stroke:none; fill:none" d="M 514.349 659.697L 514.349 685.528"/>
<path style="stroke:none; fill:none" d="M 514.349 655.455L 437.986 655.455"/>
<path style="stroke:none; fill:none" d="M 443.394 659.697L 514.349 659.697"/>
<path style="stroke:none; fill:none" d="M 514.349 659.697L 514.349 655.455"/>
<path style="stroke:none; fill:none" d="M 514.349 574.849L 437.986 574.849L 437.986 579.091L 514.349 579.091L 514.349 574.849z"/>
<path style="stroke:none; fill:none" d="M 508.693 579.091L 446.471 579.091L 446.471 617.273L 508.693 617.273L 508.693 579.091z"/>
<path style="stroke:none; fill:none" d="M 508.693 617.273L 446.471 617.273L 446.471 655.455L 508.693 655.455L 508.693 617.273z"/>
<path style="stroke:none; fill:none" d="M 514.349 574.849L 505.865 566.364"/>
<path style="stroke:none; fill:none" d="M 514.349 659.697L 514.349 574.849"/>
<path style="stroke:none; fill:none" d="M 446.471 598.182L 441.267 598.182"/>
<path style="stroke:none; fill:none" d="M 446.471 636.364L 440.814 636.364"/>
<path style="stroke:none; fill:none" d="M 338.699 619.767C 338.699 615.083 334.897 611.282 330.214 611.282C 325.531 611.282 321.729 615.083 321.729 619.767C 321.729 624.45 325.531 628.251 330.214 628.251C 334.897 628.251 338.699 624.45 338.699 619.767z"/>
<path style="stroke:none; fill:none" d="M 399.071 691.423C 399.071 686.739 395.27 682.938 390.587 682.938C 385.903 682.938 382.102 686.739 382.102 691.423C 382.102 696.106 385.903 699.908 390.587 699.908C 395.27 699.908 399.071 696.106 399.071 691.423z"/>
<path style="stroke:none; fill:none" d="M 338.699 512.009C 338.699 507.326 334.897 503.524 330.214 503.524C 325.531 503.524 321.729 507.326 321.729 512.009C 321.729 516.692 325.531 520.494 330.214 520.494C 334.897 520.494 338.699 516.692 338.699 512.009z"/>
<path style="stroke:none; fill:none" d="M 177.063 512.009C 177.063 507.326 173.261 503.524 168.578 503.524C 163.894 503.524 160.093 507.326 160.093 512.009C 160.093 516.692 163.894 520.494 168.578 520.494C 173.261 520.494 177.063 516.692 177.063 512.009z"/>
<path style="stroke:none; fill:none" d="M 177.063 619.767C 177.063 615.083 173.261 611.282 168.578 611.282C 163.894 611.282 160.093 615.083 160.093 619.767C 160.093 624.45 163.894 628.251 168.578 628.251C 173.261 628.251 177.063 624.45 177.063 619.767z"/>
<path style="stroke:none; fill:none" d="M 66.4626 485.07C 66.4626 480.386 62.6611 476.585 57.9777 476.585C 53.2944 476.585 49.4929 480.386 49.4929 485.07C 49.4929 489.753 53.2944 493.554 57.9777 493.554C 62.6611 493.554 66.4626 489.753 66.4626 485.07z"/>
<path style="stroke:none; fill:none" d="M 66.4626 700.585C 66.4626 695.901 62.6611 692.1 57.9777 692.1C 53.2944 692.1 49.4929 695.901 49.4929 700.585C 49.4929 705.268 53.2944 709.07 57.9777 709.07C 62.6611 709.07 66.4626 705.268 66.4626 700.585z"/>
<path style="stroke:none; fill:none" d="M 514.349 685.528L 527.145 708.034"/>
<path style="stroke:none; fill:none" d="M 514.349 659.697L 480.41 659.697L 480.41 682.324L 514.349 682.324L 514.349 659.697z"/>
<path style="stroke:none; fill:none" d="M 444.774 606.667C 444.774 606.043 444.267 605.536 443.642 605.536C 443.018 605.536 442.511 606.043 442.511 606.667C 442.511 607.292 443.018 607.798 443.642 607.798C 444.267 607.798 444.774 607.292 444.774 606.667z"/>
<path style="stroke:none; fill:none" d="M 444.774 589.697C 444.774 589.073 444.267 588.566 443.642 588.566C 443.018 588.566 442.511 589.073 442.511 589.697C 442.511 590.322 443.018 590.829 443.642 590.829C 444.267 590.829 444.774 590.322 444.774 589.697z"/>
<path style="stroke:none; fill:none" d="M 444.774 627.879C 444.774 627.255 444.267 626.748 443.642 626.748C 443.018 626.748 442.511 627.255 442.511 627.879C 442.511 628.504 443.018 629.01 443.642 629.01C 444.267 629.01 444.774 628.504 444.774 627.879z"/>
<path style="stroke:none; fill:none" d="M 444.774 644.849C 444.774 644.224 444.267 643.718 443.642 643.718C 443.018 643.718 442.511 644.224 442.511 644.849C 442.511 645.473 443.018 645.98 443.642 645.98C 444.267 645.98 444.774 645.473 444.774 644.849z"/>
<path style="stroke:none; fill:none" d="M 446.471 617.273C 446.471 612.59 442.669 608.788 437.986 608.788C 433.302 608.788 429.501 612.59 429.501 617.273C 429.501 621.956 433.302 625.758 437.986 625.758C 442.669 625.758 446.471 621.956 446.471 617.273z"/>
<path style="stroke:none; fill:none" d="M 432.244 626.26L 389.82 626.26L 389.82 657.371L 432.244 657.371L 432.244 626.26z"/>
<path style="stroke:none; fill:none" d="M 499.616 564.98C 499.616 563.419 498.349 562.152 496.788 562.152C 495.227 562.152 493.96 563.419 493.96 564.98C 493.96 566.542 495.227 567.809 496.788 567.809C 498.349 567.809 499.616 566.542 499.616 564.98z"/>
<path style="stroke:none; fill:none" d="M 449.329 564.98C 449.329 563.419 448.062 562.152 446.501 562.152C 444.94 562.152 443.673 563.419 443.673 564.98C 443.673 566.542 444.94 567.809 446.501 567.809C 448.062 567.809 449.329 566.542 449.329 564.98z"/>
<path style="stroke:none; fill:none" d="M 474.473 668.673C 474.473 667.112 473.206 665.845 471.645 665.845C 470.084 665.845 468.816 667.112 468.816 668.673C 468.816 670.234 470.084 671.501 471.645 671.501C 473.206 671.501 474.473 670.234 474.473 668.673z"/>
<path style="stroke:none; fill:none" d="M 437.986 625.758L 437.986 655.455"/>
<path style="stroke:none; fill:none" d="M 441.267 579.091L 441.267 609.448"/>
<path style="stroke:none; fill:none" d="M 440.814 636.364L 440.814 625.273"/>
<path style="stroke:none; fill:none" d="M 440.814 636.364L 440.814 655.455"/>
<path style="stroke:none; fill:none" d="M 425.771 659.761L 428.22 661.175"/>
<path style="stroke:none; fill:none" d="M 428.22 661.175L 429.352 659.215"/>
<path style="stroke:none; fill:none" d="M 429.352 659.215L 437.924 664.165"/>
<path style="stroke:none; fill:none" d="M 437.924 664.165L 436.793 666.124"/>
<path style="stroke:none; fill:none" d="M 449.04 673.195L 450.171 671.236"/>
<path style="stroke:none; fill:none" d="M 450.171 671.236L 458.744 676.185"/>
<path style="stroke:none; fill:none" d="M 458.744 676.185L 457.613 678.145"/>
<path style="stroke:none; fill:none" d="M 457.613 678.145L 460.062 679.559"/>
<path style="stroke:none; fill:none" d="M 410.875 759.096L 409.744 761.056"/>
<path style="stroke:none; fill:none" d="M 409.744 761.056L 401.171 756.106"/>
<path style="stroke:none; fill:none" d="M 401.171 756.106L 402.303 754.147"/>
<path style="stroke:none; fill:none" d="M 390.056 747.076L 388.924 749.035"/>
<path style="stroke:none; fill:none" d="M 388.924 749.035L 380.352 744.086"/>
<path style="stroke:none; fill:none" d="M 380.352 744.086L 381.483 742.126"/>
<path style="stroke:none; fill:none" d="M 381.483 742.126L 379.034 740.712"/>
<path style="stroke:none; fill:none" d="M 413.325 760.51L 410.875 759.096"/>
<path style="stroke:none; fill:none" d="M 425.771 659.761L 379.034 740.712"/>
<path style="stroke:none; fill:none" d="M 460.062 679.559L 413.325 760.51"/>
<path style="stroke:none; fill:none" d="M 392.505 748.49L 390.056 747.076"/>
<path style="stroke:none; fill:none" d="M 399.853 752.732L 402.303 754.147"/>
<path style="stroke:none; fill:none" d="M 449.04 673.195L 446.591 671.781"/>
<path style="stroke:none; fill:none" d="M 439.242 667.539L 436.793 666.124"/>
<path style="stroke:none; fill:none" d="M 446.591 671.781L 439.242 667.539"/>
<path style="stroke:none; fill:none" d="M 399.853 752.732L 392.505 748.49"/>
<path style="stroke:none; fill:none" d="M 392.505 748.49L 390.056 747.076"/>
<path style="stroke:none; fill:none" d="M 399.853 752.732L 402.303 754.147"/>
<path style="stroke:none; fill:none" d="M 449.04 673.195L 446.591 671.781"/>
<path style="stroke:none; fill:none" d="M 439.242 667.539L 436.793 666.124"/>
<path style="stroke:none; fill:none" d="M 443.394 659.697L 482.584 682.324"/>
<path style="stroke:none; fill:none" d="M 482.584 682.324L 514.349 685.528"/>
<path style="stroke:none; fill:none" d="M 443.394 659.697L 437.986 656.575"/>
<path style="stroke:none; fill:none" d="M 437.986 655.455L 437.986 656.575"/>
<path style="stroke:none; fill:none" d="M 426.557 766.158L 429.006 767.572"/>
<path style="stroke:none; fill:none" d="M 429.006 767.572L 427.875 769.531"/>
<path style="stroke:none; fill:none" d="M 427.875 769.531L 436.447 774.481"/>
<path style="stroke:none; fill:none" d="M 436.447 774.481L 437.579 772.521"/>
<path style="stroke:none; fill:none" d="M 449.826 779.592L 448.694 781.551"/>
<path style="stroke:none; fill:none" d="M 448.694 781.551L 457.267 786.501"/>
<path style="stroke:none; fill:none" d="M 457.267 786.501L 458.398 784.542"/>
<path style="stroke:none; fill:none" d="M 458.398 784.542L 460.848 785.956"/>
<path style="stroke:none; fill:none" d="M 505.136 703.59L 506.267 701.63"/>
<path style="stroke:none; fill:none" d="M 506.267 701.63L 497.694 696.681"/>
<path style="stroke:none; fill:none" d="M 497.694 696.681L 496.563 698.641"/>
<path style="stroke:none; fill:none" d="M 484.316 691.57L 485.447 689.61"/>
<path style="stroke:none; fill:none" d="M 485.447 689.61L 476.875 684.661"/>
<path style="stroke:none; fill:none" d="M 476.875 684.661L 475.743 686.62"/>
<path style="stroke:none; fill:none" d="M 475.743 686.62L 473.294 685.206"/>
<path style="stroke:none; fill:none" d="M 507.585 705.004L 505.136 703.59"/>
<path style="stroke:none; fill:none" d="M 426.557 766.158L 473.294 685.206"/>
<path style="stroke:none; fill:none" d="M 460.848 785.956L 507.585 705.004"/>
<path style="stroke:none; fill:none" d="M 486.765 692.984L 484.316 691.57"/>
<path style="stroke:none; fill:none" d="M 494.114 697.226L 496.563 698.641"/>
<path style="stroke:none; fill:none" d="M 449.826 779.592L 447.376 778.178"/>
<path style="stroke:none; fill:none" d="M 440.028 773.935L 437.579 772.521"/>
<path style="stroke:none; fill:none" d="M 447.376 778.178L 440.028 773.935"/>
<path style="stroke:none; fill:none" d="M 494.114 697.226L 486.765 692.984"/>
<path style="stroke:none; fill:none" d="M 486.765 692.984L 484.316 691.57"/>
<path style="stroke:none; fill:none" d="M 494.114 697.226L 496.563 698.641"/>
<path style="stroke:none; fill:none" d="M 449.826 779.592L 447.376 778.178"/>
<path style="stroke:none; fill:none" d="M 440.028 773.935L 437.579 772.521"/>
<path style="stroke:#000000; stroke-width:0.850394; stroke-linejoin:round; stroke-linecap:round; fill:none" d="M 61.0889 485.07C 61.0889 483.352 59.695 481.958 57.9777 481.958C 56.2605 481.958 54.8666 483.352 54.8666 485.07C 54.8666 486.787 56.2605 488.181 57.9777 488.181C 59.695 488.181 61.0889 486.787 61.0889 485.07z"/>
<path style="stroke:#000000; stroke-width:0.850394; stroke-linejoin:round; stroke-linecap:round; fill:none" d="M 171.689 512.009C 171.689 510.292 170.295 508.898 168.578 508.898C 166.861 508.898 165.467 510.292 165.467 512.009C 165.467 513.726 166.861 515.12 168.578 515.12C 170.295 515.12 171.689 513.726 171.689 512.009z"/>
<path style="stroke:#000000; stroke-width:0.850394; stroke-linejoin:round; stroke-linecap:round; fill:none" d="M 333.325 512.009C 333.325 510.292 331.931 508.898 330.214 508.898C 328.497 508.898 327.103 510.292 327.103 512.009C 327.103 513.726 328.497 515.12 330.214 515.12C 331.931 515.12 333.325 513.726 333.325 512.009z"/>
<path style="stroke:#000000; stroke-width:0.850394; stroke-linejoin:round; stroke-linecap:round; fill:none" d="M 333.325 619.767C 333.325 618.049 331.931 616.655 330.214 616.655C 328.497 616.655 327.103 618.049 327.103 619.767C 327.103 621.484 328.497 622.878 330.214 622.878C 331.931 622.878 333.325 621.484 333.325 619.767z"/>
<path style="stroke:#000000; stroke-width:0.850394; stroke-linejoin:round; stroke-linecap:round; fill:none" d="M 393.698 691.423C 393.698 689.705 392.304 688.312 390.587 688.312C 388.869 688.312 387.475 689.705 387.475 691.423C 387.475 693.14 388.869 694.534 390.587 694.534C 392.304 694.534 393.698 693.14 393.698 691.423z"/>
<path style="stroke:#000000; stroke-width:0.850394; stroke-linejoin:round; stroke-linecap:round; fill:none" d="M 519.33 709.989C 519.33 708.272 517.936 706.878 516.219 706.878C 514.502 706.878 513.108 708.272 513.108 709.989C 513.108 711.706 514.502 713.1 516.219 713.1C 517.936 713.1 519.33 711.706 519.33 709.989z"/>
<path style="stroke:#000000; stroke-width:0.850394; stroke-linejoin:round; stroke-linecap:round; fill:none" d="M 472.593 790.94C 472.593 789.223 471.199 787.829 469.482 787.829C 467.764 787.829 466.371 789.223 466.371 790.94C 466.371 792.658 467.764 794.052 469.482 794.052C 471.199 794.052 472.593 792.658 472.593 790.94z"/>
<path style="stroke:#000000; stroke-width:0.850394; stroke-linejoin:round; stroke-linecap:round; fill:none" d="M 61.0889 700.585C 61.0889 698.867 59.695 697.474 57.9777 697.474C 56.2605 697.474 54.8666 698.867 54.8666 700.585C 54.8666 702.302 56.2605 703.696 57.9777 703.696C 59.695 703.696 61.0889 702.302 61.0889 700.585z"/>
<path style="stroke:#000000; stroke-width:0.850394; stroke-linejoin:round; stroke-linecap:round; fill:none" d="M 171.689 619.767C 171.689 618.049 170.295 616.655 168.578 616.655C 166.861 616.655 165.467 618.049 165.467 619.767C 165.467 621.484 166.861 622.878 168.578 622.878C 170.295 622.878 171.689 621.484 171.689 619.767z"/>
</g>
</svg>