<?xml version="1.0" encoding="UTF-8" standalone="yes"?>
<!-- Created with sK1/UniConvertor (http://sk1project.org/) -->
<svg xmlns="http://www.w3.org/2000/svg" xmlns:xlink="http://www.w3.org/1999/xlink"
  width="595.276pt" height="841.89pt" viewBox="0 0 595.276 841.89"
  fill-rule="evenodd">
<g>
<path style="stroke:#000000; stroke-width:0.850394; stroke-linejoin:round; stroke-linecap:round; fill:none" d="M 94.8724 699.342L 94.8724 702.17"/>
<path style="stroke:#000000; stroke-width:0.850394; stroke-linejoin:round; stroke-linecap:round; fill:none" d="M 94.8724 702.17L 92.6097 702.17"/>
<path style="stroke:#000000; stroke-width:0.850394; stroke-linejoin:round; stroke-linecap:round; fill:none" d="M 92.6097 702.17L 92.6097 712.069"/>
<path style="stroke:#000000; stroke-width:0.850394; stroke-linejoin:round; stroke-linecap:round; fill:none" d="M 92.6097 712.069L 94.8724 712.069"/>
<path style="stroke:#000000; stroke-width:0.850394; stroke-linejoin:round; stroke-linecap:round; fill:none" d="M 94.8724 726.211L 92.6097 726.211"/>
<path style="stroke:#000000; stroke-width:0.850394; stroke-linejoin:round; stroke-linecap:round; fill:none" d="M 92.6097 726.211L 92.6097 736.11"/>
<path style="stroke:#000000; stroke-width:0.850394; stroke-linejoin:round; stroke-linecap:round; fill:none" d="M 92.6097 736.11L 94.8724 736.11"/>
<path style="stroke:#000000; stroke-width:0.850394; stroke-linejoin:round; stroke-linecap:round; fill:none" d="M 94.8724 736.11L 94.8724 738.938"/>
<path style="stroke:#000000; stroke-width:0.850394; stroke-linejoin:round; stroke-linecap:round; fill:none" d="M 188.347 736.11L 190.61 736.11"/>
<path style="stroke:#000000; stroke-width:0.850394; stroke-linejoin:round; stroke-linecap:round; fill:none" d="M 190.61 736.11L 190.61 726.211"/>
<path style="stroke:#000000; stroke-width:0.850394; stroke-linejoin:round; stroke-linecap:round; fill:none" d="M 190.61 726.211L 188.347 726.211"/>
<path style="stroke:#000000; stroke-width:0.850394; stroke-linejoin:round; stroke-linecap:round; fill:none" d="M 188.347 712.069L 190.61 712.069"/>
<path style="stroke:#000000; stroke-width:0.850394; stroke-linejoin:round; stroke-linecap:round; fill:none" d="M 190.61 712.069L 190.61 702.17"/>
<path style="stroke:#000000; stroke-width:0.850394; stroke-linejoin:round; stroke-linecap:round; fill:none" d="M 190.61 702.17L 188.347 702.17"/>
<path style="stroke:#000000; stroke-width:0.850394; stroke-linejoin:round; stroke-linecap:round; fill:none" d="M 188.347 702.17L 188.347 699.342"/>
<path style="stroke:#000000; stroke-width:0.850394; stroke-linejoin:round; stroke-linecap:round; fill:none" d="M 188.347 738.938L 188.347 736.11"/>
<path style="stroke:#000000; stroke-width:0.850394; stroke-linejoin:round; stroke-linecap:round; fill:none" d="M 94.8724 699.342L 188.347 699.342"/>
<path style="stroke:#000000; stroke-width:0.850394; stroke-linejoin:round; stroke-linecap:round; fill:none" d="M 94.8724 738.938L 188.347 738.938"/>
<path style="stroke:#000000; stroke-width:0.850394; stroke-linejoin:round; stroke-linecap:round; fill:none" d="M 76.4037 476.671L 76.4037 746.094"/>
<path style="stroke:#000000; stroke-width:0.850394; stroke-linejoin:round; stroke-linecap:round; fill:none" d="M 76.4037 746.094L 195.489 746.094"/>
<path style="stroke:#000000; stroke-width:0.850394; stroke-linejoin:round; stroke-linecap:round; fill:none" d="M 420.375 773.869L 500.163 819.935"/>
<path style="stroke:#000000; stroke-width:0.850394; stroke-linejoin:round; stroke-linecap:round; fill:none" d="M 500.163 819.935L 554.056 726.59"/>
<path style="stroke:#000000; stroke-width:0.850394; stroke-linejoin:round; stroke-linecap:round; fill:none" d="M 188.347 714.898L 188.347 712.069"/>
<path style="stroke:#000000; stroke-width:0.850394; stroke-linejoin:round; stroke-linecap:round; fill:none" d="M 188.347 723.382L 188.347 726.211"/>
<path style="stroke:#000000; stroke-width:0.850394; stroke-linejoin:round; stroke-linecap:round; fill:none" d="M 94.8724 726.211L 94.8724 723.382"/>
<path style="stroke:#000000; stroke-width:0.850394; stroke-linejoin:round; stroke-linecap:round; fill:none" d="M 94.8724 714.898L 94.8724 712.069"/>
<path style="stroke:#000000; stroke-width:0.850394; stroke-linejoin:round; stroke-linecap:round; fill:none" d="M 76.4037 476.671L 464.897 476.671"/>
<path style="stroke:#000000; stroke-width:0.850394; stroke-linejoin:round; stroke-linecap:round; fill:none" d="M 134.468 520.595L 136.731 520.595L 136.731 510.696L 134.468 510.696L 134.468 496.554L 136.731 496.554L 136.731 486.655L 134.468 486.655L 134.468 483.827L 94.8724 483.827L 94.8724 486.655L 92.6097 486.655L 92.6097 496.554L 94.8724 496.554L 94.8724 510.696L 92.6097 510.696L 92.6097 520.595L 94.8724 520.595L 94.8724 523.423L 134.468 523.423L 134.468 520.595z"/>
<path style="stroke:#000000; stroke-width:0.850394; stroke-linejoin:round; stroke-linecap:round; fill:none" d="M 188.347 520.595L 190.61 520.595L 190.61 510.696L 188.347 510.696L 188.347 496.554L 190.61 496.554L 190.61 486.655L 188.347 486.655L 188.347 483.827L 148.751 483.827L 148.751 486.655L 146.489 486.655L 146.489 496.554L 148.751 496.554L 148.751 510.696L 146.489 510.696L 146.489 520.595L 148.751 520.595L 148.751 523.423L 188.347 523.423L 188.347 520.595z"/>
<path style="stroke:#000000; stroke-width:0.850394; stroke-linejoin:round; stroke-linecap:round; fill:none" d="M 242.226 520.595L 244.489 520.595L 244.489 510.696L 242.226 510.696L 242.226 496.554L 244.489 496.554L 244.489 486.655L 242.226 486.655L 242.226 483.827L 202.63 483.827L 202.63 486.655L 200.367 486.655L 200.367 496.554L 202.63 496.554L 202.63 510.696L 200.367 510.696L 200.367 520.595L 202.63 520.595L 202.63 523.423L 242.226 523.423L 242.226 520.595z"/>
<path style="stroke:#000000; stroke-width:0.850394; stroke-linejoin:round; stroke-linecap:round; fill:none" d="M 296.105 520.595L 298.367 520.595L 298.367 510.696L 296.105 510.696L 296.105 496.554L 298.367 496.554L 298.367 486.655L 296.105 486.655L 296.105 483.827L 256.509 483.827L 256.509 486.655L 254.246 486.655L 254.246 496.554L 256.509 496.554L 256.509 510.696L 254.246 510.696L 254.246 520.595L 256.509 520.595L 256.509 523.423L 296.105 523.423L 296.105 520.595z"/>
<path style="stroke:#000000; stroke-width:0.850394; stroke-linejoin:round; stroke-linecap:round; fill:none" d="M 349.983 520.595L 352.246 520.595L 352.246 510.696L 349.983 510.696L 349.983 496.554L 352.246 496.554L 352.246 486.655L 349.983 486.655L 349.983 483.827L 310.388 483.827L 310.388 486.655L 308.125 486.655L 308.125 496.554L 310.388 496.554L 310.388 510.696L 308.125 510.696L 308.125 520.595L 310.388 520.595L 310.388 523.423L 349.983 523.423L 349.983 520.595z"/>
<path style="stroke:#000000; stroke-width:0.850394; stroke-linejoin:round; stroke-linecap:round; fill:none" d="M 403.862 520.595L 406.125 520.595L 406.125 510.696L 403.862 510.696L 403.862 496.554L 406.125 496.554L 406.125 486.655L 403.862 486.655L 403.862 483.827L 364.266 483.827L 364.266 486.655L 362.004 486.655L 362.004 496.554L 364.266 496.554L 364.266 510.696L 362.004 510.696L 362.004 520.595L 364.266 520.595L 364.266 523.423L 403.862 523.423L 403.862 520.595z"/>
<path style="stroke:#000000; stroke-width:0.850394; stroke-linejoin:round; stroke-linecap:round; fill:none" d="M 457.741 520.595L 460.004 520.595L 460.004 510.696L 457.741 510.696L 457.741 496.554L 460.004 496.554L 460.004 486.655L 457.741 486.655L 457.741 483.827L 418.145 483.827L 418.145 486.655L 415.882 486.655L 415.882 496.554L 418.145 496.554L 418.145 510.696L 415.882 510.696L 415.882 520.595L 418.145 520.595L 418.145 523.423L 457.741 523.423L 457.741 520.595z"/>
<path style="stroke:#000000; stroke-width:0.850394; stroke-linejoin:round; stroke-linecap:round; fill:none" d="M 134.468 574.473L 136.731 574.473L 136.731 564.574L 134.468 564.574L 134.468 550.433L 136.731 550.433L 136.731 540.534L 134.468 540.534L 134.468 537.706L 94.8724 537.706L 94.8724 540.534L 92.6097 540.534L 92.6097 550.433L 94.8724 550.433L 94.8724 564.574L 92.6097 564.574L 92.6097 574.473L 94.8724 574.473L 94.8724 577.302L 134.468 577.302L 134.468 574.473z"/>
<path style="stroke:#000000; stroke-width:0.850394; stroke-linejoin:round; stroke-linecap:round; fill:none" d="M 188.347 574.473L 190.61 574.473L 190.61 564.574L 188.347 564.574L 188.347 550.433L 190.61 550.433L 190.61 540.534L 188.347 540.534L 188.347 537.706L 148.751 537.706L 148.751 540.534L 146.489 540.534L 146.489 550.433L 148.751 550.433L 148.751 564.574L 146.489 564.574L 146.489 574.473L 148.751 574.473L 148.751 577.302L 188.347 577.302L 188.347 574.473z"/>
<path style="stroke:#000000; stroke-width:0.850394; stroke-linejoin:round; stroke-linecap:round; fill:none" d="M 242.226 574.473L 244.489 574.473L 244.489 564.574L 242.226 564.574L 242.226 550.433L 244.489 550.433L 244.489 540.534L 242.226 540.534L 242.226 537.706L 202.63 537.706L 202.63 540.534L 200.367 540.534L 200.367 550.433L 202.63 550.433L 202.63 564.574L 200.367 564.574L 200.367 574.473L 202.63 574.473L 202.63 577.302L 242.226 577.302L 242.226 574.473z"/>
<path style="stroke:#000000; stroke-width:0.850394; stroke-linejoin:round; stroke-linecap:round; fill:none" d="M 296.105 574.473L 298.367 574.473L 298.367 564.574L 296.105 564.574L 296.105 550.433L 298.367 550.433L 298.367 540.534L 296.105 540.534L 296.105 537.706L 256.509 537.706L 256.509 540.534L 254.246 540.534L 254.246 550.433L 256.509 550.433L 256.509 564.574L 254.246 564.574L 254.246 574.473L 256.509 574.473L 256.509 577.302L 296.105 577.302L 296.105 574.473z"/>
<path style="stroke:#000000; stroke-width:0.850394; stroke-linejoin:round; stroke-linecap:round; fill:none" d="M 349.983 574.473L 352.246 574.473L 352.246 564.574L 349.983 564.574L 349.983 550.433L 352.246 550.433L 352.246 540.534L 349.983 540.534L 349.983 537.706L 310.388 537.706L 310.388 540.534L 308.125 540.534L 308.125 550.433L 310.388 550.433L 310.388 564.574L 308.125 564.574L 308.125 574.473L 310.388 574.473L 310.388 577.302L 349.983 577.302L 349.983 574.473z"/>
<path style="stroke:#000000; stroke-width:0.850394; stroke-linejoin:round; stroke-linecap:round; fill:none" d="M 403.862 574.473L 406.125 574.473L 406.125 564.574L 403.862 564.574L 403.862 550.433L 406.125 550.433L 406.125 540.534L 403.862 540.534L 403.862 537.706L 364.266 537.706L 364.266 540.534L 362.004 540.534L 362.004 550.433L 364.266 550.433L 364.266 564.574L 362.004 564.574L 362.004 574.473L 364.266 574.473L 364.266 577.302L 403.862 577.302L 403.862 574.473z"/>
<path style="stroke:#000000; stroke-width:0.850394; stroke-linejoin:round; stroke-linecap:round; fill:none" d="M 457.741 574.473L 460.004 574.473L 460.004 564.574L 457.741 564.574L 457.741 550.433L 460.004 550.433L 460.004 540.534L 457.741 540.534L 457.741 537.706L 418.145 537.706L 418.145 540.534L 415.882 540.534L 415.882 550.433L 418.145 550.433L 418.145 564.574L 415.882 564.574L 415.882 574.473L 418.145 574.473L 418.145 577.302L 457.741 577.302L 457.741 574.473z"/>
<path style="stroke:#000000; stroke-width:0.850394; stroke-linejoin:round; stroke-linecap:round; fill:none" d="M 134.468 628.352L 136.731 628.352L 136.731 618.453L 134.468 618.453L 134.468 604.312L 136.731 604.312L 136.731 594.413L 134.468 594.413L 134.468 591.584L 94.8724 591.584L 94.8724 594.413L 92.6097 594.413L 92.6097 604.312L 94.8724 604.312L 94.8724 618.453L 92.6097 618.453L 92.6097 628.352L 94.8724 628.352L 94.8724 631.18L 134.468 631.18L 134.468 628.352z"/>
<path style="stroke:#000000; stroke-width:0.850394; stroke-linejoin:round; stroke-linecap:round; fill:none" d="M 188.347 628.352L 190.61 628.352L 190.61 618.453L 188.347 618.453L 188.347 604.312L 190.61 604.312L 190.61 594.413L 188.347 594.413L 188.347 591.584L 148.751 591.584L 148.751 594.413L 146.489 594.413L 146.489 604.312L 148.751 604.312L 148.751 618.453L 146.489 618.453L 146.489 628.352L 148.751 628.352L 148.751 631.18L 188.347 631.18L 188.347 628.352z"/>
<path style="stroke:#000000; stroke-width:0.850394; stroke-linejoin:round; stroke-linecap:round; fill:none" d="M 242.226 628.352L 244.489 628.352L 244.489 618.453L 242.226 618.453L 242.226 604.312L 244.489 604.312L 244.489 594.413L 242.226 594.413L 242.226 591.584L 202.63 591.584L 202.63 594.413L 200.367 594.413L 200.367 604.312L 202.63 604.312L 202.63 618.453L 200.367 618.453L 200.367 628.352L 202.63 628.352L 202.63 631.18L 242.226 631.18L 242.226 628.352z"/>
<path style="stroke:#000000; stroke-width:0.850394; stroke-linejoin:round; stroke-linecap:round; fill:none" d="M 296.105 628.352L 298.367 628.352L 298.367 618.453L 296.105 618.453L 296.105 604.312L 298.367 604.312L 298.367 594.413L 296.105 594.413L 296.105 591.584L 256.509 591.584L 256.509 594.413L 254.246 594.413L 254.246 604.312L 256.509 604.312L 256.509 618.453L 254.246 618.453L 254.246 628.352L 256.509 628.352L 256.509 631.18L 296.105 631.18L 296.105 628.352z"/>
<path style="stroke:#000000; stroke-width:0.850394; stroke-linejoin:round; stroke-linecap:round; fill:none" d="M 349.983 628.352L 352.246 628.352L 352.246 618.453L 349.983 618.453L 349.983 604.312L 352.246 604.312L 352.246 594.413L 349.983 594.413L 349.983 591.584L 310.388 591.584L 310.388 594.413L 308.125 594.413L 308.125 604.312L 310.388 604.312L 310.388 618.453L 308.125 618.453L 308.125 628.352L 310.388 628.352L 310.388 631.18L 349.983 631.18L 349.983 628.352z"/>
<path style="stroke:#000000; stroke-width:0.850394; stroke-linejoin:round; stroke-linecap:round; fill:none" d="M 403.862 628.352L 406.125 628.352L 406.125 618.453L 403.862 618.453L 403.862 604.312L 406.125 604.312L 406.125 594.413L 403.862 594.413L 403.862 591.584L 364.266 591.584L 364.266 594.413L 362.004 594.413L 362.004 604.312L 364.266 604.312L 364.266 618.453L 362.004 618.453L 362.004 628.352L 364.266 628.352L 364.266 631.18L 403.862 631.18L 403.862 628.352z"/>
<path style="stroke:#000000; stroke-width:0.850394; stroke-linejoin:round; stroke-linecap:round; fill:none" d="M 457.741 628.352L 460.004 628.352L 460.004 618.453L 457.741 618.453L 457.741 604.312L 460.004 604.312L 460.004 594.413L 457.741 594.413L 457.741 591.584L 418.145 591.584L 418.145 594.413L 415.882 594.413L 415.882 604.312L 418.145 604.312L 418.145 618.453L 415.882 618.453L 415.882 628.352L 418.145 628.352L 418.145 631.18L 457.741 631.18L 457.741 628.352z"/>
<path style="stroke:#000000; stroke-width:0.850394; stroke-linejoin:round; stroke-linecap:round; fill:none" d="M 134.468 682.231L 136.731 682.231L 136.731 672.332L 134.468 672.332L 134.468 658.191L 136.731 658.191L 136.731 648.292L 134.468 648.292L 134.468 645.463L 94.8724 645.463L 94.8724 648.292L 92.6097 648.292L 92.6097 658.191L 94.8724 658.191L 94.8724 672.332L 92.6097 672.332L 92.6097 682.231L 94.8724 682.231L 94.8724 685.059L 134.468 685.059L 134.468 682.231z"/>
<path style="stroke:#000000; stroke-width:0.850394; stroke-linejoin:round; stroke-linecap:round; fill:none" d="M 188.347 682.231L 190.61 682.231L 190.61 672.332L 188.347 672.332L 188.347 658.191L 190.61 658.191L 190.61 648.292L 188.347 648.292L 188.347 645.463L 148.751 645.463L 148.751 648.292L 146.489 648.292L 146.489 658.191L 148.751 658.191L 148.751 672.332L 146.489 672.332L 146.489 682.231L 148.751 682.231L 148.751 685.059L 188.347 685.059L 188.347 682.231z"/>
<path style="stroke:#000000; stroke-width:0.850394; stroke-linejoin:round; stroke-linecap:round; fill:none" d="M 242.226 682.231L 244.489 682.231L 244.489 672.332L 242.226 672.332L 242.226 658.191L 244.489 658.191L 244.489 648.292L 242.226 648.292L 242.226 645.463L 202.63 645.463L 202.63 648.292L 200.367 648.292L 200.367 658.191L 202.63 658.191L 202.63 672.332L 200.367 672.332L 200.367 682.231L 202.63 682.231L 202.63 685.059L 242.226 685.059L 242.226 682.231z"/>
<path style="stroke:#000000; stroke-width:0.850394; stroke-linejoin:round; stroke-linecap:round; fill:none" d="M 296.105 682.231L 298.367 682.231L 298.367 672.332L 296.105 672.332L 296.105 658.191L 298.367 658.191L 298.367 648.292L 296.105 648.292L 296.105 645.463L 256.509 645.463L 256.509 648.292L 254.246 648.292L 254.246 658.191L 256.509 658.191L 256.509 672.332L 254.246 672.332L 254.246 682.231L 256.509 682.231L 256.509 685.059L 296.105 685.059L 296.105 682.231z"/>
<path style="stroke:#000000; stroke-width:0.850394; stroke-linejoin:round; stroke-linecap:round; fill:none" d="M 349.983 682.231L 352.246 682.231L 352.246 672.332L 349.983 672.332L 349.983 658.191L 352.246 658.191L 352.246 648.292L 349.983 648.292L 349.983 645.463L 310.388 645.463L 310.388 648.292L 308.125 648.292L 308.125 658.191L 310.388 658.191L 310.388 672.332L 308.125 672.332L 308.125 682.231L 310.388 682.231L 310.388 685.059L 349.983 685.059L 349.983 682.231z"/>
<path style="stroke:#000000; stroke-width:0.850394; stroke-linejoin:round; stroke-linecap:round; fill:none" d="M 403.862 682.231L 406.125 682.231L 406.125 672.332L 403.862 672.332L 403.862 658.191L 406.125 658.191L 406.125 648.292L 403.862 648.292L 403.862 645.463L 364.266 645.463L 364.266 648.292L 362.004 648.292L 362.004 658.191L 364.266 658.191L 364.266 672.332L 362.004 672.332L 362.004 682.231L 364.266 682.231L 364.266 685.059L 403.862 685.059L 403.862 682.231z"/>
<path style="stroke:#000000; stroke-width:0.850394; stroke-linejoin:round; stroke-linecap:round; fill:none" d="M 336.515 736.11L 338.778 736.11L 338.778 726.211L 336.515 726.211L 336.515 712.069L 338.778 712.069L 338.778 702.17L 336.515 702.17L 336.515 699.342L 296.919 699.342L 296.919 702.17L 294.657 702.17L 294.657 712.069L 296.919 712.069L 296.919 726.211L 294.657 726.211L 294.657 736.11L 296.919 736.11L 296.919 738.938L 336.515 738.938L 336.515 736.11z"/>
<path style="stroke:#000000; stroke-width:0.850394; stroke-linejoin:round; stroke-linecap:round; fill:none" d="M 391.475 747.54L 393.661 748.125L 396.223 738.564L 394.037 737.978L 397.697 724.318L 399.883 724.904L 402.445 715.342L 400.259 714.757L 400.991 712.025L 362.745 701.777L 362.013 704.508L 359.827 703.923L 357.265 713.485L 359.451 714.07L 355.79 727.73L 353.605 727.144L 351.043 736.706L 353.228 737.291L 352.496 740.023L 390.743 750.271L 391.475 747.54z"/>
<path style="stroke:#000000; stroke-width:0.850394; stroke-linejoin:round; stroke-linecap:round; fill:none" d="M 289.778 746.079L 262.838 719.14"/>
<path style="stroke:#000000; stroke-width:0.850394; stroke-linejoin:round; stroke-linecap:round; fill:none" d="M 195.489 746.094L 222.442 719.14"/>
<path style="stroke:#000000; stroke-width:0.850394; stroke-linejoin:round; stroke-linecap:round; fill:none" d="M 222.442 719.14L 262.838 719.14"/>
<path style="stroke:#000000; stroke-width:0.850394; stroke-linejoin:round; stroke-linecap:round; fill:none" d="M 289.778 746.079L 347.558 746.094"/>
<path style="stroke:#000000; stroke-width:0.850394; stroke-linejoin:round; stroke-linecap:round; fill:none" d="M 347.558 746.094L 420.382 773.857"/>
<path style="stroke:#000000; stroke-width:0.850394; stroke-linejoin:round; stroke-linecap:round; fill:none" d="M 94.8724 723.382L 94.8724 714.898"/>
<path style="stroke:#000000; stroke-width:0.850394; stroke-linejoin:round; stroke-linecap:round; fill:none" d="M 188.347 723.382L 188.347 714.898"/>
<path style="stroke:#000000; stroke-width:0.850394; stroke-linejoin:round; stroke-linecap:round; fill:none" d="M 464.897 644.313L 464.897 476.671"/>
<path style="stroke:#000000; stroke-width:0.850394; stroke-linejoin:round; stroke-linecap:round; fill:none" d="M 76.4037 476.671L 76.4037 746.094"/>
<path style="stroke:#000000; stroke-width:0.850394; stroke-linejoin:round; stroke-linecap:round; fill:none" d="M 76.4037 746.094L 195.489 746.094"/>
<path style="stroke:#000000; stroke-width:0.850394; stroke-linejoin:round; stroke-linecap:round; fill:none" d="M 420.375 773.869L 500.163 819.935"/>
<path style="stroke:#000000; stroke-width:0.850394; stroke-linejoin:round; stroke-linecap:round; fill:none" d="M 500.163 819.935L 554.056 726.59"/>
<path style="stroke:#000000; stroke-width:0.850394; stroke-linejoin:round; stroke-linecap:round; fill:none" d="M 188.347 714.898L 188.347 712.069"/>
<path style="stroke:#000000; stroke-width:0.850394; stroke-linejoin:round; stroke-linecap:round; fill:none" d="M 188.347 723.382L 188.347 726.211"/>
<path style="stroke:#000000; stroke-width:0.850394; stroke-linejoin:round; stroke-linecap:round; fill:none" d="M 94.8724 726.211L 94.8724 723.382"/>
<path style="stroke:#000000; stroke-width:0.850394; stroke-linejoin:round; stroke-linecap:round; fill:none" d="M 94.8724 714.898L 94.8724 712.069"/>
<path style="stroke:#000000; stroke-width:0.850394; stroke-linejoin:round; stroke-linecap:round; fill:none" d="M 887.858 186.97C 887.858 183.847 885.324 181.313 882.202 181.313C 879.08 181.313 876.545 183.847 876.545 186.97C 876.545 190.092 879.08 192.626 882.202 192.626C 885.324 192.626 887.858 190.092 887.858 186.97z"/>
<path style="stroke:#000000; stroke-width:0.850394; stroke-linejoin:round; stroke-linecap:round; fill:none" d="M 541.26 678.253L 541.26 704.083"/>
<path style="stroke:#000000; stroke-width:0.850394; stroke-linejoin:round; stroke-linecap:round; fill:none" d="M 470.305 678.253L 541.26 678.253"/>
<path style="stroke:#000000; stroke-width:0.850394; stroke-linejoin:round; stroke-linecap:round; fill:none" d="M 541.26 704.083L 554.056 726.59"/>
<path style="stroke:#000000; stroke-width:0.850394; stroke-linejoin:round; stroke-linecap:round; fill:none" d="M 459.155 644.815L 416.731 644.815L 416.731 675.927L 459.155 675.927L 459.155 644.815z"/>
<path style="stroke:#000000; stroke-width:0.850394; stroke-linejoin:round; stroke-linecap:round; fill:none" d="M 464.897 644.313L 464.897 674.01"/>
<path style="stroke:#000000; stroke-width:0.850394; stroke-linejoin:round; stroke-linecap:round; fill:none" d="M 452.682 678.316L 455.131 679.73"/>
<path style="stroke:#000000; stroke-width:0.850394; stroke-linejoin:round; stroke-linecap:round; fill:none" d="M 455.131 679.73L 456.262 677.771"/>
<path style="stroke:#000000; stroke-width:0.850394; stroke-linejoin:round; stroke-linecap:round; fill:none" d="M 456.262 677.771L 464.835 682.72"/>
<path style="stroke:#000000; stroke-width:0.850394; stroke-linejoin:round; stroke-linecap:round; fill:none" d="M 464.835 682.72L 463.704 684.68"/>
<path style="stroke:#000000; stroke-width:0.850394; stroke-linejoin:round; stroke-linecap:round; fill:none" d="M 475.951 691.75L 477.082 689.791"/>
<path style="stroke:#000000; stroke-width:0.850394; stroke-linejoin:round; stroke-linecap:round; fill:none" d="M 477.082 689.791L 485.655 694.74"/>
<path style="stroke:#000000; stroke-width:0.850394; stroke-linejoin:round; stroke-linecap:round; fill:none" d="M 485.655 694.74L 484.523 696.7"/>
<path style="stroke:#000000; stroke-width:0.850394; stroke-linejoin:round; stroke-linecap:round; fill:none" d="M 484.523 696.7L 486.973 698.114"/>
<path style="stroke:#000000; stroke-width:0.850394; stroke-linejoin:round; stroke-linecap:round; fill:none" d="M 437.786 777.651L 436.655 779.611"/>
<path style="stroke:#000000; stroke-width:0.850394; stroke-linejoin:round; stroke-linecap:round; fill:none" d="M 436.655 779.611L 428.082 774.661"/>
<path style="stroke:#000000; stroke-width:0.850394; stroke-linejoin:round; stroke-linecap:round; fill:none" d="M 428.082 774.661L 429.213 772.702"/>
<path style="stroke:#000000; stroke-width:0.850394; stroke-linejoin:round; stroke-linecap:round; fill:none" d="M 416.967 765.631L 415.835 767.591"/>
<path style="stroke:#000000; stroke-width:0.850394; stroke-linejoin:round; stroke-linecap:round; fill:none" d="M 415.835 767.591L 407.262 762.641"/>
<path style="stroke:#000000; stroke-width:0.850394; stroke-linejoin:round; stroke-linecap:round; fill:none" d="M 407.262 762.641L 408.394 760.682"/>
<path style="stroke:#000000; stroke-width:0.850394; stroke-linejoin:round; stroke-linecap:round; fill:none" d="M 408.394 760.682L 405.944 759.268"/>
<path style="stroke:#000000; stroke-width:0.850394; stroke-linejoin:round; stroke-linecap:round; fill:none" d="M 440.235 779.065L 437.786 777.651"/>
<path style="stroke:#000000; stroke-width:0.850394; stroke-linejoin:round; stroke-linecap:round; fill:none" d="M 452.682 678.316L 405.944 759.268"/>
<path style="stroke:#000000; stroke-width:0.850394; stroke-linejoin:round; stroke-linecap:round; fill:none" d="M 486.973 698.114L 440.235 779.065"/>
<path style="stroke:#000000; stroke-width:0.850394; stroke-linejoin:round; stroke-linecap:round; fill:none" d="M 419.416 767.045L 416.967 765.631"/>
<path style="stroke:#000000; stroke-width:0.850394; stroke-linejoin:round; stroke-linecap:round; fill:none" d="M 426.764 771.288L 429.213 772.702"/>
<path style="stroke:#000000; stroke-width:0.850394; stroke-linejoin:round; stroke-linecap:round; fill:none" d="M 475.951 691.75L 473.501 690.336"/>
<path style="stroke:#000000; stroke-width:0.850394; stroke-linejoin:round; stroke-linecap:round; fill:none" d="M 466.153 686.094L 463.704 684.68"/>
<path style="stroke:#000000; stroke-width:0.850394; stroke-linejoin:round; stroke-linecap:round; fill:none" d="M 473.501 690.336L 466.153 686.094"/>
<path style="stroke:#000000; stroke-width:0.850394; stroke-linejoin:round; stroke-linecap:round; fill:none" d="M 426.764 771.288L 419.416 767.045"/>
<path style="stroke:#000000; stroke-width:0.850394; stroke-linejoin:round; stroke-linecap:round; fill:none" d="M 419.416 767.045L 416.967 765.631"/>
<path style="stroke:#000000; stroke-width:0.850394; stroke-linejoin:round; stroke-linecap:round; fill:none" d="M 426.764 771.288L 429.213 772.702"/>
<path style="stroke:#000000; stroke-width:0.850394; stroke-linejoin:round; stroke-linecap:round; fill:none" d="M 475.951 691.75L 473.501 690.336"/>
<path style="stroke:#000000; stroke-width:0.850394; stroke-linejoin:round; stroke-linecap:round; fill:none" d="M 466.153 686.094L 463.704 684.68"/>
<path style="stroke:#000000; stroke-width:0.850394; stroke-linejoin:round; stroke-linecap:round; fill:none" d="M 470.305 678.253L 464.897 675.13"/>
<path style="stroke:#000000; stroke-width:0.850394; stroke-linejoin:round; stroke-linecap:round; fill:none" d="M 464.897 674.01L 464.897 675.13"/>
<path style="stroke:#000000; stroke-width:0.850394; stroke-linejoin:round; stroke-linecap:round; fill:none" d="M 453.467 784.713L 455.917 786.127"/>
<path style="stroke:#000000; stroke-width:0.850394; stroke-linejoin:round; stroke-linecap:round; fill:none" d="M 455.917 786.127L 454.785 788.087"/>
<path style="stroke:#000000; stroke-width:0.850394; stroke-linejoin:round; stroke-linecap:round; fill:none" d="M 454.785 788.087L 463.358 793.036"/>
<path style="stroke:#000000; stroke-width:0.850394; stroke-linejoin:round; stroke-linecap:round; fill:none" d="M 463.358 793.036L 464.49 791.077"/>
<path style="stroke:#000000; stroke-width:0.850394; stroke-linejoin:round; stroke-linecap:round; fill:none" d="M 476.736 798.147L 475.605 800.107"/>
<path style="stroke:#000000; stroke-width:0.850394; stroke-linejoin:round; stroke-linecap:round; fill:none" d="M 475.605 800.107L 484.178 805.056"/>
<path style="stroke:#000000; stroke-width:0.850394; stroke-linejoin:round; stroke-linecap:round; fill:none" d="M 484.178 805.056L 485.309 803.097"/>
<path style="stroke:#000000; stroke-width:0.850394; stroke-linejoin:round; stroke-linecap:round; fill:none" d="M 485.309 803.097L 487.758 804.511"/>
<path style="stroke:#000000; stroke-width:0.850394; stroke-linejoin:round; stroke-linecap:round; fill:none" d="M 532.047 722.145L 533.178 720.186"/>
<path style="stroke:#000000; stroke-width:0.850394; stroke-linejoin:round; stroke-linecap:round; fill:none" d="M 533.178 720.186L 524.605 715.236"/>
<path style="stroke:#000000; stroke-width:0.850394; stroke-linejoin:round; stroke-linecap:round; fill:none" d="M 524.605 715.236L 523.474 717.196"/>
<path style="stroke:#000000; stroke-width:0.850394; stroke-linejoin:round; stroke-linecap:round; fill:none" d="M 511.227 710.125L 512.358 708.166"/>
<path style="stroke:#000000; stroke-width:0.850394; stroke-linejoin:round; stroke-linecap:round; fill:none" d="M 512.358 708.166L 503.785 703.216"/>
<path style="stroke:#000000; stroke-width:0.850394; stroke-linejoin:round; stroke-linecap:round; fill:none" d="M 503.785 703.216L 502.654 705.176"/>
<path style="stroke:#000000; stroke-width:0.850394; stroke-linejoin:round; stroke-linecap:round; fill:none" d="M 502.654 705.176L 500.205 703.761"/>
<path style="stroke:#000000; stroke-width:0.850394; stroke-linejoin:round; stroke-linecap:round; fill:none" d="M 534.496 723.559L 532.047 722.145"/>
<path style="stroke:#000000; stroke-width:0.850394; stroke-linejoin:round; stroke-linecap:round; fill:none" d="M 513.676 711.539L 511.227 710.125"/>
<path style="stroke:#000000; stroke-width:0.850394; stroke-linejoin:round; stroke-linecap:round; fill:none" d="M 521.024 715.782L 523.474 717.196"/>
<path style="stroke:#000000; stroke-width:0.850394; stroke-linejoin:round; stroke-linecap:round; fill:none" d="M 476.736 798.147L 474.287 796.733"/>
<path style="stroke:#000000; stroke-width:0.850394; stroke-linejoin:round; stroke-linecap:round; fill:none" d="M 466.939 792.491L 464.49 791.077"/>
<path style="stroke:#000000; stroke-width:0.850394; stroke-linejoin:round; stroke-linecap:round; fill:none" d="M 474.287 796.733L 466.939 792.491"/>
<path style="stroke:#000000; stroke-width:0.850394; stroke-linejoin:round; stroke-linecap:round; fill:none" d="M 521.024 715.782L 513.676 711.539"/>
<path style="stroke:#000000; stroke-width:0.850394; stroke-linejoin:round; stroke-linecap:round; fill:none" d="M 513.676 711.539L 511.227 710.125"/>
<path style="stroke:#000000; stroke-width:0.850394; stroke-linejoin:round; stroke-linecap:round; fill:none" d="M 521.024 715.782L 523.474 717.196"/>
<path style="stroke:#000000; stroke-width:0.850394; stroke-linejoin:round; stroke-linecap:round; fill:none" d="M 476.736 798.147L 474.287 796.733"/>
<path style="stroke:#000000; stroke-width:0.850394; stroke-linejoin:round; stroke-linecap:round; fill:none" d="M 466.939 792.491L 464.49 791.077"/>
<path style="stroke:#000000; stroke-width:0.850394; stroke-linejoin:round; stroke-linecap:round; fill:none" d="M 473.265 750.422L 475.715 751.836"/>
<path style="stroke:#000000; stroke-width:0.850394; stroke-linejoin:round; stroke-linecap:round; fill:none" d="M 475.715 751.836L 476.846 749.876"/>
<path style="stroke:#000000; stroke-width:0.850394; stroke-linejoin:round; stroke-linecap:round; fill:none" d="M 476.846 749.876L 485.419 754.826"/>
<path style="stroke:#000000; stroke-width:0.850394; stroke-linejoin:round; stroke-linecap:round; fill:none" d="M 485.419 754.826L 484.288 756.785"/>
<path style="stroke:#000000; stroke-width:0.850394; stroke-linejoin:round; stroke-linecap:round; fill:none" d="M 496.534 763.856L 497.666 761.897"/>
<path style="stroke:#000000; stroke-width:0.850394; stroke-linejoin:round; stroke-linecap:round; fill:none" d="M 497.666 761.897L 506.238 766.846"/>
<path style="stroke:#000000; stroke-width:0.850394; stroke-linejoin:round; stroke-linecap:round; fill:none" d="M 506.238 766.846L 505.107 768.806"/>
<path style="stroke:#000000; stroke-width:0.850394; stroke-linejoin:round; stroke-linecap:round; fill:none" d="M 505.107 768.806L 507.556 770.22"/>
<path style="stroke:#000000; stroke-width:0.850394; stroke-linejoin:round; stroke-linecap:round; fill:none" d="M 496.534 763.856L 494.085 762.442"/>
<path style="stroke:#000000; stroke-width:0.850394; stroke-linejoin:round; stroke-linecap:round; fill:none" d="M 486.737 758.2L 484.288 756.785"/>
<path style="stroke:#000000; stroke-width:0.850394; stroke-linejoin:round; stroke-linecap:round; fill:none" d="M 494.085 762.442L 486.737 758.2"/>
<path style="stroke:#000000; stroke-width:0.850394; stroke-linejoin:round; stroke-linecap:round; fill:none" d="M 496.534 763.856L 494.085 762.442"/>
<path style="stroke:#000000; stroke-width:0.850394; stroke-linejoin:round; stroke-linecap:round; fill:none" d="M 486.737 758.2L 484.288 756.785"/>
<path style="stroke:#000000; stroke-width:0.850394; stroke-linejoin:round; stroke-linecap:round; fill:none" d="M 514.698 757.85L 512.249 756.436"/>
<path style="stroke:#000000; stroke-width:0.850394; stroke-linejoin:round; stroke-linecap:round; fill:none" d="M 512.249 756.436L 511.117 758.396"/>
<path style="stroke:#000000; stroke-width:0.850394; stroke-linejoin:round; stroke-linecap:round; fill:none" d="M 511.117 758.396L 502.544 753.446"/>
<path style="stroke:#000000; stroke-width:0.850394; stroke-linejoin:round; stroke-linecap:round; fill:none" d="M 502.544 753.446L 503.676 751.487"/>
<path style="stroke:#000000; stroke-width:0.850394; stroke-linejoin:round; stroke-linecap:round; fill:none" d="M 491.429 744.416L 490.298 746.376"/>
<path style="stroke:#000000; stroke-width:0.850394; stroke-linejoin:round; stroke-linecap:round; fill:none" d="M 490.298 746.376L 481.725 741.426"/>
<path style="stroke:#000000; stroke-width:0.850394; stroke-linejoin:round; stroke-linecap:round; fill:none" d="M 481.725 741.426L 482.856 739.467"/>
<path style="stroke:#000000; stroke-width:0.850394; stroke-linejoin:round; stroke-linecap:round; fill:none" d="M 482.856 739.467L 480.407 738.052"/>
<path style="stroke:#000000; stroke-width:0.850394; stroke-linejoin:round; stroke-linecap:round; fill:none" d="M 491.429 744.416L 493.878 745.83"/>
<path style="stroke:#000000; stroke-width:0.850394; stroke-linejoin:round; stroke-linecap:round; fill:none" d="M 501.226 750.073L 503.676 751.487"/>
<path style="stroke:#000000; stroke-width:0.850394; stroke-linejoin:round; stroke-linecap:round; fill:none" d="M 493.878 745.83L 501.226 750.073"/>
<path style="stroke:#000000; stroke-width:0.850394; stroke-linejoin:round; stroke-linecap:round; fill:none" d="M 491.429 744.416L 493.878 745.83"/>
<path style="stroke:#000000; stroke-width:0.850394; stroke-linejoin:round; stroke-linecap:round; fill:none" d="M 501.226 750.073L 503.676 751.487"/>
<path style="stroke:#000000; stroke-width:0.850394; stroke-linejoin:round; stroke-linecap:round; fill:none" d="M 453.467 784.713L 473.265 750.422"/>
<path style="stroke:#000000; stroke-width:0.850394; stroke-linejoin:round; stroke-linecap:round; fill:none" d="M 480.407 738.052L 500.205 703.761"/>
<path style="stroke:#000000; stroke-width:0.850394; stroke-linejoin:round; stroke-linecap:round; fill:none" d="M 487.758 804.511L 507.556 770.22"/>
<path style="stroke:#000000; stroke-width:0.850394; stroke-linejoin:round; stroke-linecap:round; fill:none" d="M 514.698 757.85L 534.496 723.559"/>
<path style="stroke:none; fill:none" d="M 76.4037 746.094L 76.4037 846.888"/>
<path style="stroke:none; fill:none" d="M 496.392 809.496L 76.4037 809.496"/>
<path style="stroke:none; fill:none" d="M 543.13 728.544L 76.4037 728.544"/>
<path style="stroke:none; fill:none" d="M 417.497 709.978L 76.4037 709.978"/>
<path style="stroke:none; fill:none" d="M 357.125 638.322L 78.6544 638.322"/>
<path style="stroke:none; fill:none" d="M 357.125 530.564L 76.4037 530.564"/>
<path style="stroke:none; fill:none" d="M 195.489 638.322L 195.489 476.671"/>
<path style="stroke:none; fill:none" d="M 357.125 638.322L 357.125 476.671"/>
<path style="stroke:none; fill:none" d="M 417.497 709.978L 417.497 476.671"/>
<path style="stroke:none; fill:none" d="M 464.897 476.671L 585.147 476.671"/>
<path style="stroke:none; fill:none" d="M 543.13 728.544L 543.13 476.671"/>
<path style="stroke:none; fill:none" d="M 496.392 809.496L 496.392 476.671"/>
<path style="stroke:none; fill:none" d="M 84.8885 719.14L 84.8885 476.671"/>
<path style="stroke:none; fill:none" d="M 76.4037 482.605L 76.4037 467.05"/>
<path style="stroke:none; fill:none" d="M 76.4037 468.464L 84.8885 468.464"/>
<path style="stroke:none; fill:none" d="M 77.1107 468.464C 77.1107 468.074 76.794 467.757 76.4037 467.757C 76.0134 467.757 75.6966 468.074 75.6966 468.464C 75.6966 468.854 76.0134 469.171 76.4037 469.171C 76.794 469.171 77.1107 468.854 77.1107 468.464z"/>
<path style="stroke:none; fill:none" d="M 85.5956 468.464C 85.5956 468.074 85.2788 467.757 84.8885 467.757C 84.4982 467.757 84.1814 468.074 84.1814 468.464C 84.1814 468.854 84.4982 469.171 84.8885 469.171C 85.2788 469.171 85.5956 468.854 85.5956 468.464z"/>
<text style="stroke:none; fill:none; font-family:DejaVuSans; font-size:11.3131313131" transform="matrix(1 0 0 1 77.8178 467.757)">
3
</text >
<path style="stroke:none; fill:none" d="M 84.8885 482.605L 84.8885 467.05"/>
<path style="stroke:none; fill:none" d="M 76.4037 462.184L 76.4037 446.629"/>
<path style="stroke:none; fill:none" d="M 76.4037 448.043L 195.489 448.043"/>
<path style="stroke:none; fill:none" d="M 77.1107 448.043C 77.1107 447.653 76.794 447.336 76.4037 447.336C 76.0134 447.336 75.6966 447.653 75.6966 448.043C 75.6966 448.433 76.0134 448.75 76.4037 448.75C 76.794 448.75 77.1107 448.433 77.1107 448.043z"/>
<path style="stroke:none; fill:none" d="M 196.196 448.043C 196.196 447.653 195.879 447.336 195.489 447.336C 195.098 447.336 194.781 447.653 194.781 448.043C 194.781 448.433 195.098 448.75 195.489 448.75C 195.879 448.75 196.196 448.433 196.196 448.043z"/>
<text style="stroke:none; fill:none; font-family:DejaVuSans; font-size:11.3131313131" transform="matrix(1 0 0 1 118.976 447.336)">
42.11
</text >
<path style="stroke:none; fill:none" d="M 195.489 462.184L 195.489 446.629"/>
<path style="stroke:none; fill:none" d="M 76.4037 449.56L 76.4037 434.005"/>
<path style="stroke:none; fill:none" d="M 76.4037 435.419L 357.125 435.419"/>
<path style="stroke:none; fill:none" d="M 77.1107 435.419C 77.1107 435.029 76.794 434.712 76.4037 434.712C 76.0134 434.712 75.6966 435.029 75.6966 435.419C 75.6966 435.809 76.0134 436.126 76.4037 436.126C 76.794 436.126 77.1107 435.809 77.1107 435.419z"/>
<path style="stroke:none; fill:none" d="M 357.832 435.419C 357.832 435.029 357.515 434.712 357.125 434.712C 356.735 434.712 356.418 435.029 356.418 435.419C 356.418 435.809 356.735 436.126 357.125 436.126C 357.515 436.126 357.832 435.809 357.832 435.419z"/>
<text style="stroke:none; fill:none; font-family:DejaVuSans; font-size:11.3131313131" transform="matrix(1 0 0 1 150.026 229.437)">
99.26
</text >
<path style="stroke:none; fill:none" d="M 357.125 449.56L 357.125 434.005"/>
<path style="stroke:none; fill:none" d="M 26.6347 231.104L 26.6347 215.549"/>
<path style="stroke:none; fill:none" d="M 26.6347 216.963L 367.728 216.963"/>
<path style="stroke:none; fill:none" d="M 27.3418 216.963C 27.3418 216.573 27.025 216.256 26.6347 216.256C 26.2445 216.256 25.9277 216.573 25.9277 216.963C 25.9277 217.353 26.2445 217.67 26.6347 217.67C 27.025 217.67 27.3418 217.353 27.3418 216.963z"/>
<path style="stroke:none; fill:none" d="M 368.435 216.963C 368.435 216.573 368.119 216.256 367.728 216.256C 367.338 216.256 367.021 216.573 367.021 216.963C 367.021 217.353 367.338 217.67 367.728 217.67C 368.119 217.67 368.435 217.353 368.435 216.963z"/>
<text style="stroke:none; fill:none; font-family:DejaVuSans; font-size:11.3131313131" transform="matrix(1 0 0 1 180.212 216.256)">
120.6
</text >
<path style="stroke:none; fill:none" d="M 367.728 231.104L 367.728 215.549"/>
<path style="stroke:none; fill:none" d="M 26.6347 217.009L 26.6347 201.453"/>
<path style="stroke:none; fill:none" d="M 26.6347 202.867L 415.128 202.867"/>
<path style="stroke:none; fill:none" d="M 27.3418 202.867C 27.3418 202.477 27.025 202.16 26.6347 202.16C 26.2445 202.16 25.9277 202.477 25.9277 202.867C 25.9277 203.258 26.2445 203.574 26.6347 203.574C 27.025 203.574 27.3418 203.258 27.3418 202.867z"/>
<path style="stroke:none; fill:none" d="M 415.835 202.867C 415.835 202.477 415.518 202.16 415.128 202.16C 414.737 202.16 414.421 202.477 414.421 202.867C 414.421 203.258 414.737 203.574 415.128 203.574C 415.518 203.574 415.835 203.258 415.835 202.867z"/>
<text style="stroke:none; fill:none; font-family:DejaVuSans; font-size:11.3131313131" transform="matrix(1 0 0 1 200.376 202.16)">
137.36
</text >
<path style="stroke:none; fill:none" d="M 415.128 217.009L 415.128 201.453"/>
<path style="stroke:none; fill:none" d="M 26.6347 190.87L 26.6347 175.314"/>
<path style="stroke:none; fill:none" d="M 26.6347 176.728L 446.624 176.728"/>
<path style="stroke:none; fill:none" d="M 27.3418 176.728C 27.3418 176.338 27.025 176.021 26.6347 176.021C 26.2445 176.021 25.9277 176.338 25.9277 176.728C 25.9277 177.118 26.2445 177.435 26.6347 177.435C 27.025 177.435 27.3418 177.118 27.3418 176.728z"/>
<path style="stroke:none; fill:none" d="M 447.331 176.728C 447.331 176.338 447.014 176.021 446.624 176.021C 446.233 176.021 445.916 176.338 445.916 176.728C 445.916 177.118 446.233 177.435 446.624 177.435C 447.014 177.435 447.331 177.118 447.331 176.728z"/>
<text style="stroke:none; fill:none; font-family:DejaVuSans; font-size:11.3131313131" transform="matrix(1 0 0 1 219.659 176.021)">
148.5
</text >
<path style="stroke:none; fill:none" d="M 446.624 190.87L 446.624 175.314"/>
<path style="stroke:none; fill:none" d="M 26.6347 169.223L 26.6347 153.668"/>
<path style="stroke:none; fill:none" d="M 26.6347 155.082L 493.361 155.082"/>
<path style="stroke:none; fill:none" d="M 27.3418 155.082C 27.3418 154.691 27.025 154.375 26.6347 154.375C 26.2445 154.375 25.9277 154.691 25.9277 155.082C 25.9277 155.472 26.2445 155.789 26.6347 155.789C 27.025 155.789 27.3418 155.472 27.3418 155.082z"/>
<path style="stroke:none; fill:none" d="M 494.068 155.082C 494.068 154.691 493.751 154.375 493.361 154.375C 492.971 154.375 492.654 154.691 492.654 155.082C 492.654 155.472 492.971 155.789 493.361 155.789C 493.751 155.789 494.068 155.472 494.068 155.082z"/>
<text style="stroke:none; fill:none; font-family:DejaVuSans; font-size:11.3131313131" transform="matrix(1 0 0 1 239.493 154.375)">
165.02
</text >
<path style="stroke:none; fill:none" d="M 493.361 169.223L 493.361 153.668"/>
<path style="stroke:none; fill:none" d="M 75.395 476.671L 59.8395 476.671"/>
<path style="stroke:none; fill:none" d="M 61.2536 476.671L 61.2536 503.625"/>
<path style="stroke:none; fill:none" d="M 61.9607 476.671C 61.9607 476.281 61.6439 475.964 61.2536 475.964C 60.8633 475.964 60.5465 476.281 60.5465 476.671C 60.5465 477.062 60.8633 477.378 61.2536 477.378C 61.6439 477.378 61.9607 477.062 61.9607 476.671z"/>
<path style="stroke:none; fill:none" d="M 61.9607 503.625C 61.9607 503.235 61.6439 502.918 61.2536 502.918C 60.8633 502.918 60.5465 503.235 60.5465 503.625C 60.5465 504.015 60.8633 504.332 61.2536 504.332C 61.6439 504.332 61.9607 504.015 61.9607 503.625z"/>
<text style="stroke:none; fill:none; font-family:DejaVuSans; font-size:11.3131313131" transform="matrix(6.12323e-17 -1 1 6.12323e-17 60.5465 503.582)">
9.53
</text >
<path style="stroke:none; fill:none" d="M 75.395 503.625L 59.8395 503.625"/>
<path style="stroke:none; fill:none" d="M 55.3823 476.671L 39.8267 476.671"/>
<path style="stroke:none; fill:none" d="M 41.2409 476.671L 41.2409 530.564"/>
<path style="stroke:none; fill:none" d="M 41.9479 476.671C 41.9479 476.281 41.6311 475.964 41.2409 475.964C 40.8506 475.964 40.5338 476.281 40.5338 476.671C 40.5338 477.062 40.8506 477.378 41.2409 477.378C 41.6311 477.378 41.9479 477.062 41.9479 476.671z"/>
<path style="stroke:none; fill:none" d="M 41.9479 530.564C 41.9479 530.174 41.6311 529.857 41.2409 529.857C 40.8506 529.857 40.5338 530.174 40.5338 530.564C 40.5338 530.955 40.8506 531.271 41.2409 531.271C 41.6311 531.271 41.9479 530.955 41.9479 530.564z"/>
<text style="stroke:none; fill:none; font-family:DejaVuSans; font-size:11.3131313131" transform="matrix(6.12323e-17 -1 1 6.12323e-17 40.5338 520.587)">
19.05
</text >
<path style="stroke:none; fill:none" d="M 55.3823 530.564L 39.8267 530.564"/>
<path style="stroke:none; fill:none" d="M 84.8885 638.322L 76.4037 638.322"/>
<path style="stroke:none; fill:none" d="M 41.9235 476.671L 26.368 476.671"/>
<path style="stroke:none; fill:none" d="M 27.7821 476.671L 27.7821 638.322"/>
<path style="stroke:none; fill:none" d="M 28.4892 476.671C 28.4892 476.281 28.1724 475.964 27.7821 475.964C 27.3918 475.964 27.0751 476.281 27.0751 476.671C 27.0751 477.062 27.3918 477.378 27.7821 477.378C 28.1724 477.378 28.4892 477.062 28.4892 476.671z"/>
<path style="stroke:none; fill:none" d="M 28.4892 638.322C 28.4892 637.932 28.1724 637.615 27.7821 637.615C 27.3918 637.615 27.0751 637.932 27.0751 638.322C 27.0751 638.712 27.3918 639.029 27.7821 639.029C 28.1724 639.029 28.4892 638.712 28.4892 638.322z"/>
<text style="stroke:none; fill:none; font-family:DejaVuSans; font-size:11.3131313131" transform="matrix(6.12323e-17 -1 1 6.12323e-17 -22.6939 369.191)">
57.15
</text >
<path style="stroke:none; fill:none" d="M 41.9235 638.322L 26.368 638.322"/>
<path style="stroke:none; fill:none" d="M -26.2171 271.396L -41.7727 271.396"/>
<path style="stroke:none; fill:none" d="M -40.3585 271.396L -40.3585 504.703"/>
<path style="stroke:none; fill:none" d="M -39.6515 271.396C -39.6515 271.006 -39.9683 270.689 -40.3585 270.689C -40.7488 270.689 -41.0656 271.006 -41.0656 271.396C -41.0656 271.786 -40.7488 272.103 -40.3585 272.103C -39.9683 272.103 -39.6515 271.786 -39.6515 271.396z"/>
<path style="stroke:none; fill:none" d="M -39.6515 504.703C -39.6515 504.312 -39.9683 503.996 -40.3585 503.996C -40.7488 503.996 -41.0656 504.312 -41.0656 504.703C -41.0656 505.093 -40.7488 505.41 -40.3585 505.41C -39.9683 505.41 -39.6515 505.093 -39.6515 504.703z"/>
<text style="stroke:none; fill:none; font-family:DejaVuSans; font-size:11.3131313131" transform="matrix(6.12323e-17 -1 1 6.12323e-17 -41.0656 405.019)">
82.49
</text >
<path style="stroke:none; fill:none" d="M -26.2171 504.703L -41.7727 504.703"/>
<path style="stroke:none; fill:none" d="M -50.3512 271.396L -65.9068 271.396"/>
<path style="stroke:none; fill:none" d="M -64.4926 271.396L -64.4926 513.865"/>
<path style="stroke:none; fill:none" d="M -63.7856 271.396C -63.7856 271.006 -64.1024 270.689 -64.4926 270.689C -64.8829 270.689 -65.1997 271.006 -65.1997 271.396C -65.1997 271.786 -64.8829 272.103 -64.4926 272.103C -64.1024 272.103 -63.7856 271.786 -63.7856 271.396z"/>
<path style="stroke:none; fill:none" d="M -63.7856 513.865C -63.7856 513.475 -64.1024 513.158 -64.4926 513.158C -64.8829 513.158 -65.1997 513.475 -65.1997 513.865C -65.1997 514.255 -64.8829 514.572 -64.4926 514.572C -64.1024 514.572 -63.7856 514.255 -63.7856 513.865z"/>
<text style="stroke:none; fill:none; font-family:DejaVuSans; font-size:11.3131313131" transform="matrix(6.12323e-17 -1 1 6.12323e-17 -65.1997 409.6)">
85.73
</text >
<path style="stroke:none; fill:none" d="M -50.3512 513.865L -65.9068 513.865"/>
<path style="stroke:none; fill:none" d="M -65.203 271.396L -80.7585 271.396"/>
<path style="stroke:none; fill:none" d="M -79.3444 271.396L -79.3444 523.269"/>
<path style="stroke:none; fill:none" d="M -78.6373 271.396C -78.6373 271.006 -78.9541 270.689 -79.3444 270.689C -79.7347 270.689 -80.0515 271.006 -80.0515 271.396C -80.0515 271.786 -79.7347 272.103 -79.3444 272.103C -78.9541 272.103 -78.6373 271.786 -78.6373 271.396z"/>
<path style="stroke:none; fill:none" d="M -78.6373 523.269C -78.6373 522.879 -78.9541 522.562 -79.3444 522.562C -79.7347 522.562 -80.0515 522.879 -80.0515 523.269C -80.0515 523.659 -79.7347 523.976 -79.3444 523.976C -78.9541 523.976 -78.6373 523.659 -78.6373 523.269z"/>
<text style="stroke:none; fill:none; font-family:DejaVuSans; font-size:11.3131313131" transform="matrix(6.12323e-17 -1 1 6.12323e-17 -80.0515 414.302)">
89.06
</text >
<path style="stroke:none; fill:none" d="M -65.203 523.269L -80.7585 523.269"/>
<path style="stroke:none; fill:none" d="M -86.8173 271.396L -102.373 271.396"/>
<path style="stroke:none; fill:none" d="M -100.959 271.396L -100.959 604.221"/>
<path style="stroke:none; fill:none" d="M -100.252 271.396C -100.252 271.006 -100.568 270.689 -100.959 270.689C -101.349 270.689 -101.666 271.006 -101.666 271.396C -101.666 271.786 -101.349 272.103 -100.959 272.103C -100.568 272.103 -100.252 271.786 -100.252 271.396z"/>
<path style="stroke:none; fill:none" d="M -100.252 604.221C -100.252 603.83 -100.568 603.513 -100.959 603.513C -101.349 603.513 -101.666 603.83 -101.666 604.221C -101.666 604.611 -101.349 604.928 -100.959 604.928C -100.568 604.928 -100.252 604.611 -100.252 604.221z"/>
<text style="stroke:none; fill:none; font-family:DejaVuSans; font-size:11.3131313131" transform="matrix(6.12323e-17 -1 1 6.12323e-17 -101.666 458.313)">
117.68
</text >
<path style="stroke:none; fill:none" d="M -86.8173 604.221L -102.373 604.221"/>
<path style="stroke:#000000; stroke-width:0.850394; stroke-linejoin:round; stroke-linecap:round; fill:none" d="M -100.724 -121.403C -100.724 -124.525 -103.258 -127.059 -106.38 -127.059C -109.503 -127.059 -112.037 -124.525 -112.037 -121.403C -112.037 -118.281 -109.503 -115.746 -106.38 -115.746C -103.258 -115.746 -100.724 -118.281 -100.724 -121.403z"/>
<path style="stroke:#000000; stroke-width:0.850394; stroke-linejoin:round; stroke-linecap:round; fill:none" d="M -79.9551 -195.375C -79.9551 -198.497 -82.4894 -201.031 -85.6117 -201.031C -88.7339 -201.031 -91.2682 -198.497 -91.2682 -195.375C -91.2682 -192.253 -88.7339 -189.718 -85.6117 -189.718C -82.4894 -189.718 -79.9551 -192.253 -79.9551 -195.375z"/>
<path style="stroke:none; fill:none" d="M 198.6 638.322C 198.6 636.605 197.206 635.211 195.489 635.211C 193.771 635.211 192.377 636.605 192.377 638.322C 192.377 640.039 193.771 641.433 195.489 641.433C 197.206 641.433 198.6 640.039 198.6 638.322z"/>
<path style="stroke:#000000; stroke-width:0.850394; stroke-linejoin:round; stroke-linecap:round; fill:none" d="M 360.236 638.322C 360.236 636.605 358.842 635.211 357.125 635.211C 355.408 635.211 354.014 636.605 354.014 638.322C 354.014 640.039 355.408 641.433 357.125 641.433C 358.842 641.433 360.236 640.039 360.236 638.322z"/>
<path style="stroke:#000000; stroke-width:0.850394; stroke-linejoin:round; stroke-linecap:round; fill:none" d="M 420.608 709.978C 420.608 708.261 419.215 706.867 417.497 706.867C 415.78 706.867 414.386 708.261 414.386 709.978C 414.386 711.695 415.78 713.089 417.497 713.089C 419.215 713.089 420.608 711.695 420.608 709.978z"/>
<path style="stroke:#000000; stroke-width:0.850394; stroke-linejoin:round; stroke-linecap:round; fill:none" d="M 546.241 728.544C 546.241 726.827 544.847 725.433 543.13 725.433C 541.413 725.433 540.019 726.827 540.019 728.544C 540.019 730.261 541.413 731.655 543.13 731.655C 544.847 731.655 546.241 730.261 546.241 728.544z"/>
<path style="stroke:#000000; stroke-width:0.850394; stroke-linejoin:round; stroke-linecap:round; fill:none" d="M 499.504 809.496C 499.504 807.779 498.11 806.385 496.392 806.385C 494.675 806.385 493.281 807.779 493.281 809.496C 493.281 811.213 494.675 812.607 496.392 812.607C 498.11 812.607 499.504 811.213 499.504 809.496z"/>
<path style="stroke:#000000; stroke-width:0.850394; stroke-linejoin:round; stroke-linecap:round; fill:none" d="M 198.6 638.322C 198.6 636.605 197.206 635.211 195.489 635.211C 193.771 635.211 192.377 636.605 192.377 638.322C 192.377 640.039 193.771 641.433 195.489 641.433C 197.206 641.433 198.6 640.039 198.6 638.322z"/>
<path style="stroke:#000000; stroke-width:0.850394; stroke-linejoin:round; stroke-linecap:round; fill:none" d="M 87.9996 719.14C 87.9996 717.423 86.6058 716.029 84.8885 716.029C 83.1713 716.029 81.7774 717.423 81.7774 719.14C 81.7774 720.857 83.1713 722.251 84.8885 722.251C 86.6058 722.251 87.9996 720.857 87.9996 719.14z"/>
<path style="stroke:#000000; stroke-width:0.850394; stroke-linejoin:round; stroke-linecap:round; fill:none" d="M 198.6 530.564C 198.6 528.847 197.206 527.453 195.489 527.453C 193.771 527.453 192.377 528.847 192.377 530.564C 192.377 532.281 193.771 533.675 195.489 533.675C 197.206 533.675 198.6 532.281 198.6 530.564z"/>
<path style="stroke:#000000; stroke-width:0.850394; stroke-linejoin:round; stroke-linecap:round; fill:none" d="M 87.9996 503.625C 87.9996 501.908 86.6058 500.514 84.8885 500.514C 83.1713 500.514 81.7774 501.908 81.7774 503.625C 81.7774 505.342 83.1713 506.736 84.8885 506.736C 86.6058 506.736 87.9996 505.342 87.9996 503.625z"/>
<path style="stroke:#000000; stroke-width:0.850394; stroke-linejoin:round; stroke-linecap:round; fill:none" d="M 360.236 530.564C 360.236 528.847 358.842 527.453 357.125 527.453C 355.408 527.453 354.014 528.847 354.014 530.564C 354.014 532.281 355.408 533.675 357.125 533.675C 358.842 533.675 360.236 532.281 360.236 530.564z"/>
</g>
</svg>