999
Outputted By AR_CAD Ver.1.6.0
  0
SECTION
  2
HEADER
  9
$ACADVER
  1
AC1014
  9
$DWGCODEPAGE
  3
ANSI_932
  9
$EXTMIN
 10
0
 20
0
  9
$EXTMAX
 10
297
 20
210
  9
$INSBASE
 10
0.0
 20
0.0
 30
0.0
  9
$HANDLING
 70
     1
  9
$HANDSEED
  5
257
  9
$LTSCALE
 40
1
  0
ENDSEC
  0
SECTION
  2
TABLES
  0
TABLE
  2
VPORT
  5
1
100
AcDbSymbolTable
 70
     1
  0
VPORT
  5
30
100
AcDbSymbolTableRecord
100
AcDbViewportTableRecord
  2
*ACTIVE
 70
     0
 10
0.0
 20
0.0
 11
1.0
 21
1.0
 12
210.0
 22
148.5
 13
0.0
 23
0.0
 14
10.0
 24
10.0
 15
10.0
 25
10.0
 16
0.0
 26
0.0
 36
1.0
 17
0.0
 27
0.0
 37
0.0
 40
302.94
 41
1.333333
 42
50.0
 43
0.0
 44
0.0
 50
0.0
 51
0.0
 71
     0
 72
   100
 73
     1
 74
     1
 75
     0
 76
     0
 77
     0
 78
     0
  0
ENDTAB
  0
TABLE
  2
LTYPE
  5
2
100
AcDbSymbolTable
 70
     7
  0
LTYPE
  5
31
100
AcDbSymbolTableRecord
100
AcDbLinetypeTableRecord
  2
BYBLOCK
 70
    64
 3

 72
    65
 73
    0
 40
    0
  0
LTYPE
  5
32
100
AcDbSymbolTableRecord
100
AcDbLinetypeTableRecord
  2
BYLAYER
 70
    64
 3

 72
    65
 73
    0
 40
    0
  0
LTYPE
  5
33
100
AcDbSymbolTableRecord
100
AcDbLinetypeTableRecord
  2
CONTINUOUS
 70
    64
 3
CONTINUOUS
 72
    65
 73
    0
 40
    0
  0
LTYPE
  5
34
100
AcDbSymbolTableRecord
100
AcDbLinetypeTableRecord
  2
DASHED
 70
    64
 3

 72
    65
 73
    2
 40
    3.5
 49
    2.917
 74
    0
 49
    -0.583
 74
    0
  0
LTYPE
  5
35
100
AcDbSymbolTableRecord
100
AcDbLinetypeTableRecord
  2
DOT
 70
    64
 3

 72
    65
 73
    2
 40
    0.5
 49
    0.25
 74
    0
 49
    -0.25
 74
    0
  0
LTYPE
  5
36
100
AcDbSymbolTableRecord
100
AcDbLinetypeTableRecord
  2
DASHDOT
 70
    64
 3

 72
    65
 73
    4
 40
    3.5
 49
    1.84147386461011
 74
    0
 49
    -0.552842045129963
 74
    0
 49
    0.552842045129963
 74
    0
 49
    -0.552842045129963
 74
    0
  0
LTYPE
  5
37
100
AcDbSymbolTableRecord
100
AcDbLinetypeTableRecord
  2
DIVIDE
 70
    64
 3

 72
    65
 73
    6
 40
    3.5
 49
    1.4
 74
    0
 49
    -0.42
 74
    0
 49
    0.42
 74
    0
 49
    -0.42
 74
    0
 49
    0.42
 74
    0
 49
    -0.42
 74
    0
  0
LTYPE
  5
38
100
AcDbSymbolTableRecord
100
AcDbLinetypeTableRecord
  2
HIDDEN
 70
    64
 3

 72
    65
 73
    2
 40
    4
 49
    2
 74
    0
 49
    -2
 74
    0
  0
ENDTAB
  0
TABLE
  2
LAYER
  5
3
100
AcDbSymbolTable
 70
   257
  0
LAYER
  5
39
100
AcDbSymbolTableRecord
100
AcDbLayerTableRecord
  2
‰æ‘w0
 70
    0
 62
7
  6
CONTINUOUS
  0
LAYER
  5
3A
100
AcDbSymbolTableRecord
100
AcDbLayerTableRecord
  2
‰æ‘w1
 70
    0
 62
3
  6
CONTINUOUS
  0
LAYER
  5
3B
100
AcDbSymbolTableRecord
100
AcDbLayerTableRecord
  2
‰æ‘w2
 70
    0
 62
9
  6
CONTINUOUS
  0
LAYER
  5
3C
100
AcDbSymbolTableRecord
100
AcDbLayerTableRecord
  2
‰æ‘w3
 70
    0
 62
7
  6
CONTINUOUS
  0
LAYER
  5
3D
100
AcDbSymbolTableRecord
100
AcDbLayerTableRecord
  2
‰æ‘w4
 70
    0
 62
6
  6
CONTINUOUS
  0
LAYER
  5
3E
100
AcDbSymbolTableRecord
100
AcDbLayerTableRecord
  2
‰æ‘w5
 70
    0
 62
-1
  6
CONTINUOUS
  0
LAYER
  5
3F
100
AcDbSymbolTableRecord
100
AcDbLayerTableRecord
  2
‰æ‘w6
 70
    0
 62
7
  6
CONTINUOUS
  0
LAYER
  5
40
100
AcDbSymbolTableRecord
100
AcDbLayerTableRecord
  2
‰æ‘w7
 70
    0
 62
51
  6
CONTINUOUS
  0
LAYER
  5
41
100
AcDbSymbolTableRecord
100
AcDbLayerTableRecord
  2
‰æ‘w8
 70
    0
 62
61
  6
CONTINUOUS
  0
LAYER
  5
42
100
AcDbSymbolTableRecord
100
AcDbLayerTableRecord
  2
‰æ‘w9
 70
    0
 62
111
  6
CONTINUOUS
  0
LAYER
  5
43
100
AcDbSymbolTableRecord
100
AcDbLayerTableRecord
  2
‰æ‘w10
 70
    0
 62
91
  6
CONTINUOUS
  0
LAYER
  5
44
100
AcDbSymbolTableRecord
100
AcDbLayerTableRecord
  2
‰æ‘w11
 70
    0
 62
131
  6
CONTINUOUS
  0
LAYER
  5
45
100
AcDbSymbolTableRecord
100
AcDbLayerTableRecord
  2
‰æ‘w12
 70
    0
 62
161
  6
CONTINUOUS
  0
LAYER
  5
46
100
AcDbSymbolTableRecord
100
AcDbLayerTableRecord
  2
‰æ‘w13
 70
    0
 62
5
  6
CONTINUOUS
  0
LAYER
  5
47
100
AcDbSymbolTableRecord
100
AcDbLayerTableRecord
  2
‰æ‘w14
 70
    0
 62
7
  6
CONTINUOUS
  0
LAYER
  5
48
100
AcDbSymbolTableRecord
100
AcDbLayerTableRecord
  2
‰æ‘w15
 70
    0
 62
11
  6
CONTINUOUS
  0
LAYER
  5
49
100
AcDbSymbolTableRecord
100
AcDbLayerTableRecord
  2
‰æ‘w16
 70
    0
 62
7
  6
CONTINUOUS
  0
LAYER
  5
4A
100
AcDbSymbolTableRecord
100
AcDbLayerTableRecord
  2
‰æ‘w17
 70
    0
 62
70
  6
CONTINUOUS
  0
LAYER
  5
4B
100
AcDbSymbolTableRecord
100
AcDbLayerTableRecord
  2
‰æ‘w18
 70
    0
 62
211
  6
CONTINUOUS
  0
LAYER
  5
4C
100
AcDbSymbolTableRecord
100
AcDbLayerTableRecord
  2
‰æ‘w19
 70
    0
 62
137
  6
CONTINUOUS
  0
LAYER
  5
4D
100
AcDbSymbolTableRecord
100
AcDbLayerTableRecord
  2
‰æ‘w20
 70
    0
 62
4
  6
CONTINUOUS
  0
LAYER
  5
4E
100
AcDbSymbolTableRecord
100
AcDbLayerTableRecord
  2
‰æ‘w21
 70
    0
 62
131
  6
CONTINUOUS
  0
LAYER
  5
4F
100
AcDbSymbolTableRecord
100
AcDbLayerTableRecord
  2
‰æ‘w22
 70
    0
 62
4
  6
CONTINUOUS
  0
LAYER
  5
50
100
AcDbSymbolTableRecord
100
AcDbLayerTableRecord
  2
‰æ‘w23
 70
    0
 62
4
  6
CONTINUOUS
  0
LAYER
  5
51
100
AcDbSymbolTableRecord
100
AcDbLayerTableRecord
  2
‰æ‘w24
 70
    0
 62
7
  6
CONTINUOUS
  0
LAYER
  5
52
100
AcDbSymbolTableRecord
100
AcDbLayerTableRecord
  2
‰æ‘w25
 70
    0
 62
7
  6
CONTINUOUS
  0
LAYER
  5
53
100
AcDbSymbolTableRecord
100
AcDbLayerTableRecord
  2
‰æ‘w26
 70
    0
 62
7
  6
CONTINUOUS
  0
LAYER
  5
54
100
AcDbSymbolTableRecord
100
AcDbLayerTableRecord
  2
‰æ‘w27
 70
    0
 62
7
  6
CONTINUOUS
  0
LAYER
  5
55
100
AcDbSymbolTableRecord
100
AcDbLayerTableRecord
  2
‰æ‘w28
 70
    0
 62
7
  6
CONTINUOUS
  0
LAYER
  5
56
100
AcDbSymbolTableRecord
100
AcDbLayerTableRecord
  2
‰æ‘w29
 70
    0
 62
7
  6
CONTINUOUS
  0
LAYER
  5
57
100
AcDbSymbolTableRecord
100
AcDbLayerTableRecord
  2
‰æ‘w30
 70
    0
 62
7
  6
CONTINUOUS
  0
LAYER
  5
58
100
AcDbSymbolTableRecord
100
AcDbLayerTableRecord
  2
‰æ‘w31
 70
    0
 62
7
  6
CONTINUOUS
  0
LAYER
  5
59
100
AcDbSymbolTableRecord
100
AcDbLayerTableRecord
  2
‰æ‘w32
 70
    0
 62
7
  6
CONTINUOUS
  0
LAYER
  5
5A
100
AcDbSymbolTableRecord
100
AcDbLayerTableRecord
  2
‰æ‘w33
 70
    0
 62
7
  6
CONTINUOUS
  0
LAYER
  5
5B
100
AcDbSymbolTableRecord
100
AcDbLayerTableRecord
  2
‰æ‘w34
 70
    0
 62
7
  6
CONTINUOUS
  0
LAYER
  5
5C
100
AcDbSymbolTableRecord
100
AcDbLayerTableRecord
  2
‰æ‘w35
 70
    0
 62
7
  6
CONTINUOUS
  0
LAYER
  5
5D
100
AcDbSymbolTableRecord
100
AcDbLayerTableRecord
  2
‰æ‘w36
 70
    0
 62
7
  6
CONTINUOUS
  0
LAYER
  5
5E
100
AcDbSymbolTableRecord
100
AcDbLayerTableRecord
  2
‰æ‘w37
 70
    0
 62
7
  6
CONTINUOUS
  0
LAYER
  5
5F
100
AcDbSymbolTableRecord
100
AcDbLayerTableRecord
  2
‰æ‘w38
 70
    0
 62
7
  6
CONTINUOUS
  0
LAYER
  5
60
100
AcDbSymbolTableRecord
100
AcDbLayerTableRecord
  2
‰æ‘w39
 70
    0
 62
7
  6
CONTINUOUS
  0
LAYER
  5
61
100
AcDbSymbolTableRecord
100
AcDbLayerTableRecord
  2
‰æ‘w40
 70
    0
 62
7
  6
CONTINUOUS
  0
LAYER
  5
62
100
AcDbSymbolTableRecord
100
AcDbLayerTableRecord
  2
‰æ‘w41
 70
    0
 62
7
  6
CONTINUOUS
  0
LAYER
  5
63
100
AcDbSymbolTableRecord
100
AcDbLayerTableRecord
  2
‰æ‘w42
 70
    0
 62
7
  6
CONTINUOUS
  0
LAYER
  5
64
100
AcDbSymbolTableRecord
100
AcDbLayerTableRecord
  2
‰æ‘w43
 70
    0
 62
7
  6
CONTINUOUS
  0
LAYER
  5
65
100
AcDbSymbolTableRecord
100
AcDbLayerTableRecord
  2
‰æ‘w44
 70
    0
 62
7
  6
CONTINUOUS
  0
LAYER
  5
66
100
AcDbSymbolTableRecord
100
AcDbLayerTableRecord
  2
‰æ‘w45
 70
    0
 62
7
  6
CONTINUOUS
  0
LAYER
  5
67
100
AcDbSymbolTableRecord
100
AcDbLayerTableRecord
  2
‰æ‘w46
 70
    0
 62
7
  6
CONTINUOUS
  0
LAYER
  5
68
100
AcDbSymbolTableRecord
100
AcDbLayerTableRecord
  2
‰æ‘w47
 70
    0
 62
7
  6
CONTINUOUS
  0
LAYER
  5
69
100
AcDbSymbolTableRecord
100
AcDbLayerTableRecord
  2
‰æ‘w48
 70
    0
 62
7
  6
CONTINUOUS
  0
LAYER
  5
6A
100
AcDbSymbolTableRecord
100
AcDbLayerTableRecord
  2
‰æ‘w49
 70
    0
 62
7
  6
CONTINUOUS
  0
LAYER
  5
6B
100
AcDbSymbolTableRecord
100
AcDbLayerTableRecord
  2
‰æ‘w50
 70
    0
 62
7
  6
CONTINUOUS
  0
LAYER
  5
6C
100
AcDbSymbolTableRecord
100
AcDbLayerTableRecord
  2
‰æ‘w51
 70
    0
 62
7
  6
CONTINUOUS
  0
LAYER
  5
6D
100
AcDbSymbolTableRecord
100
AcDbLayerTableRecord
  2
‰æ‘w52
 70
    0
 62
7
  6
CONTINUOUS
  0
LAYER
  5
6E
100
AcDbSymbolTableRecord
100
AcDbLayerTableRecord
  2
‰æ‘w53
 70
    0
 62
7
  6
CONTINUOUS
  0
LAYER
  5
6F
100
AcDbSymbolTableRecord
100
AcDbLayerTableRecord
  2
‰æ‘w54
 70
    0
 62
7
  6
CONTINUOUS
  0
LAYER
  5
70
100
AcDbSymbolTableRecord
100
AcDbLayerTableRecord
  2
‰æ‘w55
 70
    0
 62
7
  6
CONTINUOUS
  0
LAYER
  5
71
100
AcDbSymbolTableRecord
100
AcDbLayerTableRecord
  2
‰æ‘w56
 70
    0
 62
7
  6
CONTINUOUS
  0
LAYER
  5
72
100
AcDbSymbolTableRecord
100
AcDbLayerTableRecord
  2
‰æ‘w57
 70
    0
 62
7
  6
CONTINUOUS
  0
LAYER
  5
73
100
AcDbSymbolTableRecord
100
AcDbLayerTableRecord
  2
‰æ‘w58
 70
    0
 62
7
  6
CONTINUOUS
  0
LAYER
  5
74
100
AcDbSymbolTableRecord
100
AcDbLayerTableRecord
  2
‰æ‘w59
 70
    0
 62
7
  6
CONTINUOUS
  0
LAYER
  5
75
100
AcDbSymbolTableRecord
100
AcDbLayerTableRecord
  2
‰æ‘w60
 70
    0
 62
7
  6
CONTINUOUS
  0
LAYER
  5
76
100
AcDbSymbolTableRecord
100
AcDbLayerTableRecord
  2
‰æ‘w61
 70
    0
 62
7
  6
CONTINUOUS
  0
LAYER
  5
77
100
AcDbSymbolTableRecord
100
AcDbLayerTableRecord
  2
‰æ‘w62
 70
    0
 62
7
  6
CONTINUOUS
  0
LAYER
  5
78
100
AcDbSymbolTableRecord
100
AcDbLayerTableRecord
  2
‰æ‘w63
 70
    0
 62
7
  6
CONTINUOUS
  0
LAYER
  5
79
100
AcDbSymbolTableRecord
100
AcDbLayerTableRecord
  2
‰æ‘w64
 70
    0
 62
7
  6
CONTINUOUS
  0
LAYER
  5
7A
100
AcDbSymbolTableRecord
100
AcDbLayerTableRecord
  2
‰æ‘w65
 70
    0
 62
7
  6
CONTINUOUS
  0
LAYER
  5
7B
100
AcDbSymbolTableRecord
100
AcDbLayerTableRecord
  2
‰æ‘w66
 70
    0
 62
7
  6
CONTINUOUS
  0
LAYER
  5
7C
100
AcDbSymbolTableRecord
100
AcDbLayerTableRecord
  2
‰æ‘w67
 70
    0
 62
7
  6
CONTINUOUS
  0
LAYER
  5
7D
100
AcDbSymbolTableRecord
100
AcDbLayerTableRecord
  2
‰æ‘w68
 70
    0
 62
7
  6
CONTINUOUS
  0
LAYER
  5
7E
100
AcDbSymbolTableRecord
100
AcDbLayerTableRecord
  2
‰æ‘w69
 70
    0
 62
7
  6
CONTINUOUS
  0
LAYER
  5
7F
100
AcDbSymbolTableRecord
100
AcDbLayerTableRecord
  2
‰æ‘w70
 70
    0
 62
7
  6
CONTINUOUS
  0
LAYER
  5
80
100
AcDbSymbolTableRecord
100
AcDbLayerTableRecord
  2
‰æ‘w71
 70
    0
 62
7
  6
CONTINUOUS
  0
LAYER
  5
81
100
AcDbSymbolTableRecord
100
AcDbLayerTableRecord
  2
‰æ‘w72
 70
    0
 62
7
  6
CONTINUOUS
  0
LAYER
  5
82
100
AcDbSymbolTableRecord
100
AcDbLayerTableRecord
  2
‰æ‘w73
 70
    0
 62
7
  6
CONTINUOUS
  0
LAYER
  5
83
100
AcDbSymbolTableRecord
100
AcDbLayerTableRecord
  2
‰æ‘w74
 70
    0
 62
7
  6
CONTINUOUS
  0
LAYER
  5
84
100
AcDbSymbolTableRecord
100
AcDbLayerTableRecord
  2
‰æ‘w75
 70
    0
 62
7
  6
CONTINUOUS
  0
LAYER
  5
85
100
AcDbSymbolTableRecord
100
AcDbLayerTableRecord
  2
‰æ‘w76
 70
    0
 62
7
  6
CONTINUOUS
  0
LAYER
  5
86
100
AcDbSymbolTableRecord
100
AcDbLayerTableRecord
  2
‰æ‘w77
 70
    0
 62
7
  6
CONTINUOUS
  0
LAYER
  5
87
100
AcDbSymbolTableRecord
100
AcDbLayerTableRecord
  2
‰æ‘w78
 70
    0
 62
7
  6
CONTINUOUS
  0
LAYER
  5
88
100
AcDbSymbolTableRecord
100
AcDbLayerTableRecord
  2
‰æ‘w79
 70
    0
 62
7
  6
CONTINUOUS
  0
LAYER
  5
89
100
AcDbSymbolTableRecord
100
AcDbLayerTableRecord
  2
‰æ‘w80
 70
    0
 62
7
  6
CONTINUOUS
  0
LAYER
  5
8A
100
AcDbSymbolTableRecord
100
AcDbLayerTableRecord
  2
‰æ‘w81
 70
    0
 62
7
  6
CONTINUOUS
  0
LAYER
  5
8B
100
AcDbSymbolTableRecord
100
AcDbLayerTableRecord
  2
‰æ‘w82
 70
    0
 62
7
  6
CONTINUOUS
  0
LAYER
  5
8C
100
AcDbSymbolTableRecord
100
AcDbLayerTableRecord
  2
‰æ‘w83
 70
    0
 62
7
  6
CONTINUOUS
  0
LAYER
  5
8D
100
AcDbSymbolTableRecord
100
AcDbLayerTableRecord
  2
‰æ‘w84
 70
    0
 62
7
  6
CONTINUOUS
  0
LAYER
  5
8E
100
AcDbSymbolTableRecord
100
AcDbLayerTableRecord
  2
‰æ‘w85
 70
    0
 62
7
  6
CONTINUOUS
  0
LAYER
  5
8F
100
AcDbSymbolTableRecord
100
AcDbLayerTableRecord
  2
‰æ‘w86
 70
    0
 62
7
  6
CONTINUOUS
  0
LAYER
  5
90
100
AcDbSymbolTableRecord
100
AcDbLayerTableRecord
  2
‰æ‘w87
 70
    0
 62
7
  6
CONTINUOUS
  0
LAYER
  5
91
100
AcDbSymbolTableRecord
100
AcDbLayerTableRecord
  2
‰æ‘w88
 70
    0
 62
7
  6
CONTINUOUS
  0
LAYER
  5
92
100
AcDbSymbolTableRecord
100
AcDbLayerTableRecord
  2
‰æ‘w89
 70
    0
 62
7
  6
CONTINUOUS
  0
LAYER
  5
93
100
AcDbSymbolTableRecord
100
AcDbLayerTableRecord
  2
‰æ‘w90
 70
    0
 62
7
  6
CONTINUOUS
  0
LAYER
  5
94
100
AcDbSymbolTableRecord
100
AcDbLayerTableRecord
  2
‰æ‘w91
 70
    0
 62
7
  6
CONTINUOUS
  0
LAYER
  5
95
100
AcDbSymbolTableRecord
100
AcDbLayerTableRecord
  2
‰æ‘w92
 70
    0
 62
7
  6
CONTINUOUS
  0
LAYER
  5
96
100
AcDbSymbolTableRecord
100
AcDbLayerTableRecord
  2
‰æ‘w93
 70
    0
 62
7
  6
CONTINUOUS
  0
LAYER
  5
97
100
AcDbSymbolTableRecord
100
AcDbLayerTableRecord
  2
‰æ‘w94
 70
    0
 62
7
  6
CONTINUOUS
  0
LAYER
  5
98
100
AcDbSymbolTableRecord
100
AcDbLayerTableRecord
  2
‰æ‘w95
 70
    0
 62
7
  6
CONTINUOUS
  0
LAYER
  5
99
100
AcDbSymbolTableRecord
100
AcDbLayerTableRecord
  2
‰æ‘w96
 70
    0
 62
7
  6
CONTINUOUS
  0
LAYER
  5
9A
100
AcDbSymbolTableRecord
100
AcDbLayerTableRecord
  2
‰æ‘w97
 70
    0
 62
7
  6
CONTINUOUS
  0
LAYER
  5
9B
100
AcDbSymbolTableRecord
100
AcDbLayerTableRecord
  2
‰æ‘w98
 70
    0
 62
7
  6
CONTINUOUS
  0
LAYER
  5
9C
100
AcDbSymbolTableRecord
100
AcDbLayerTableRecord
  2
‰æ‘w99
 70
    0
 62
7
  6
CONTINUOUS
  0
LAYER
  5
9D
100
AcDbSymbolTableRecord
100
AcDbLayerTableRecord
  2
‰æ‘w100
 70
    0
 62
7
  6
CONTINUOUS
  0
LAYER
  5
9E
100
AcDbSymbolTableRecord
100
AcDbLayerTableRecord
  2
‰æ‘w101
 70
    0
 62
7
  6
CONTINUOUS
  0
LAYER
  5
9F
100
AcDbSymbolTableRecord
100
AcDbLayerTableRecord
  2
‰æ‘w102
 70
    0
 62
7
  6
CONTINUOUS
  0
LAYER
  5
A0
100
AcDbSymbolTableRecord
100
AcDbLayerTableRecord
  2
‰æ‘w103
 70
    0
 62
7
  6
CONTINUOUS
  0
LAYER
  5
A1
100
AcDbSymbolTableRecord
100
AcDbLayerTableRecord
  2
‰æ‘w104
 70
    0
 62
7
  6
CONTINUOUS
  0
LAYER
  5
A2
100
AcDbSymbolTableRecord
100
AcDbLayerTableRecord
  2
‰æ‘w105
 70
    0
 62
7
  6
CONTINUOUS
  0
LAYER
  5
A3
100
AcDbSymbolTableRecord
100
AcDbLayerTableRecord
  2
‰æ‘w106
 70
    0
 62
7
  6
CONTINUOUS
  0
LAYER
  5
A4
100
AcDbSymbolTableRecord
100
AcDbLayerTableRecord
  2
‰æ‘w107
 70
    0
 62
7
  6
CONTINUOUS
  0
LAYER
  5
A5
100
AcDbSymbolTableRecord
100
AcDbLayerTableRecord
  2
‰æ‘w108
 70
    0
 62
7
  6
CONTINUOUS
  0
LAYER
  5
A6
100
AcDbSymbolTableRecord
100
AcDbLayerTableRecord
  2
‰æ‘w109
 70
    0
 62
7
  6
CONTINUOUS
  0
LAYER
  5
A7
100
AcDbSymbolTableRecord
100
AcDbLayerTableRecord
  2
‰æ‘w110
 70
    0
 62
7
  6
CONTINUOUS
  0
LAYER
  5
A8
100
AcDbSymbolTableRecord
100
AcDbLayerTableRecord
  2
‰æ‘w111
 70
    0
 62
7
  6
CONTINUOUS
  0
LAYER
  5
A9
100
AcDbSymbolTableRecord
100
AcDbLayerTableRecord
  2
‰æ‘w112
 70
    0
 62
7
  6
CONTINUOUS
  0
LAYER
  5
AA
100
AcDbSymbolTableRecord
100
AcDbLayerTableRecord
  2
‰æ‘w113
 70
    0
 62
7
  6
CONTINUOUS
  0
LAYER
  5
AB
100
AcDbSymbolTableRecord
100
AcDbLayerTableRecord
  2
‰æ‘w114
 70
    0
 62
7
  6
CONTINUOUS
  0
LAYER
  5
AC
100
AcDbSymbolTableRecord
100
AcDbLayerTableRecord
  2
‰æ‘w115
 70
    0
 62
7
  6
CONTINUOUS
  0
LAYER
  5
AD
100
AcDbSymbolTableRecord
100
AcDbLayerTableRecord
  2
‰æ‘w116
 70
    0
 62
7
  6
CONTINUOUS
  0
LAYER
  5
AE
100
AcDbSymbolTableRecord
100
AcDbLayerTableRecord
  2
‰æ‘w117
 70
    0
 62
7
  6
CONTINUOUS
  0
LAYER
  5
AF
100
AcDbSymbolTableRecord
100
AcDbLayerTableRecord
  2
‰æ‘w118
 70
    0
 62
7
  6
CONTINUOUS
  0
LAYER
  5
B0
100
AcDbSymbolTableRecord
100
AcDbLayerTableRecord
  2
‰æ‘w119
 70
    0
 62
7
  6
CONTINUOUS
  0
LAYER
  5
B1
100
AcDbSymbolTableRecord
100
AcDbLayerTableRecord
  2
‰æ‘w120
 70
    0
 62
7
  6
CONTINUOUS
  0
LAYER
  5
B2
100
AcDbSymbolTableRecord
100
AcDbLayerTableRecord
  2
‰æ‘w121
 70
    0
 62
7
  6
CONTINUOUS
  0
LAYER
  5
B3
100
AcDbSymbolTableRecord
100
AcDbLayerTableRecord
  2
‰æ‘w122
 70
    0
 62
7
  6
CONTINUOUS
  0
LAYER
  5
B4
100
AcDbSymbolTableRecord
100
AcDbLayerTableRecord
  2
‰æ‘w123
 70
    0
 62
7
  6
CONTINUOUS
  0
LAYER
  5
B5
100
AcDbSymbolTableRecord
100
AcDbLayerTableRecord
  2
‰æ‘w124
 70
    0
 62
7
  6
CONTINUOUS
  0
LAYER
  5
B6
100
AcDbSymbolTableRecord
100
AcDbLayerTableRecord
  2
‰æ‘w125
 70
    0
 62
7
  6
CONTINUOUS
  0
LAYER
  5
B7
100
AcDbSymbolTableRecord
100
AcDbLayerTableRecord
  2
‰æ‘w126
 70
    0
 62
7
  6
CONTINUOUS
  0
LAYER
  5
B8
100
AcDbSymbolTableRecord
100
AcDbLayerTableRecord
  2
‰æ‘w127
 70
    0
 62
7
  6
CONTINUOUS
  0
LAYER
  5
B9
100
AcDbSymbolTableRecord
100
AcDbLayerTableRecord
  2
‰æ‘w128
 70
    0
 62
7
  6
CONTINUOUS
  0
LAYER
  5
BA
100
AcDbSymbolTableRecord
100
AcDbLayerTableRecord
  2
‰æ‘w129
 70
    0
 62
7
  6
CONTINUOUS
  0
LAYER
  5
BB
100
AcDbSymbolTableRecord
100
AcDbLayerTableRecord
  2
‰æ‘w130
 70
    0
 62
7
  6
CONTINUOUS
  0
LAYER
  5
BC
100
AcDbSymbolTableRecord
100
AcDbLayerTableRecord
  2
‰æ‘w131
 70
    0
 62
7
  6
CONTINUOUS
  0
LAYER
  5
BD
100
AcDbSymbolTableRecord
100
AcDbLayerTableRecord
  2
‰æ‘w132
 70
    0
 62
7
  6
CONTINUOUS
  0
LAYER
  5
BE
100
AcDbSymbolTableRecord
100
AcDbLayerTableRecord
  2
‰æ‘w133
 70
    0
 62
7
  6
CONTINUOUS
  0
LAYER
  5
BF
100
AcDbSymbolTableRecord
100
AcDbLayerTableRecord
  2
‰æ‘w134
 70
    0
 62
7
  6
CONTINUOUS
  0
LAYER
  5
C0
100
AcDbSymbolTableRecord
100
AcDbLayerTableRecord
  2
‰æ‘w135
 70
    0
 62
7
  6
CONTINUOUS
  0
LAYER
  5
C1
100
AcDbSymbolTableRecord
100
AcDbLayerTableRecord
  2
‰æ‘w136
 70
    0
 62
7
  6
CONTINUOUS
  0
LAYER
  5
C2
100
AcDbSymbolTableRecord
100
AcDbLayerTableRecord
  2
‰æ‘w137
 70
    0
 62
7
  6
CONTINUOUS
  0
LAYER
  5
C3
100
AcDbSymbolTableRecord
100
AcDbLayerTableRecord
  2
‰æ‘w138
 70
    0
 62
7
  6
CONTINUOUS
  0
LAYER
  5
C4
100
AcDbSymbolTableRecord
100
AcDbLayerTableRecord
  2
‰æ‘w139
 70
    0
 62
7
  6
CONTINUOUS
  0
LAYER
  5
C5
100
AcDbSymbolTableRecord
100
AcDbLayerTableRecord
  2
‰æ‘w140
 70
    0
 62
7
  6
CONTINUOUS
  0
LAYER
  5
C6
100
AcDbSymbolTableRecord
100
AcDbLayerTableRecord
  2
‰æ‘w141
 70
    0
 62
7
  6
CONTINUOUS
  0
LAYER
  5
C7
100
AcDbSymbolTableRecord
100
AcDbLayerTableRecord
  2
‰æ‘w142
 70
    0
 62
7
  6
CONTINUOUS
  0
LAYER
  5
C8
100
AcDbSymbolTableRecord
100
AcDbLayerTableRecord
  2
‰æ‘w143
 70
    0
 62
7
  6
CONTINUOUS
  0
LAYER
  5
C9
100
AcDbSymbolTableRecord
100
AcDbLayerTableRecord
  2
‰æ‘w144
 70
    0
 62
7
  6
CONTINUOUS
  0
LAYER
  5
CA
100
AcDbSymbolTableRecord
100
AcDbLayerTableRecord
  2
‰æ‘w145
 70
    0
 62
7
  6
CONTINUOUS
  0
LAYER
  5
CB
100
AcDbSymbolTableRecord
100
AcDbLayerTableRecord
  2
‰æ‘w146
 70
    0
 62
7
  6
CONTINUOUS
  0
LAYER
  5
CC
100
AcDbSymbolTableRecord
100
AcDbLayerTableRecord
  2
‰æ‘w147
 70
    0
 62
7
  6
CONTINUOUS
  0
LAYER
  5
CD
100
AcDbSymbolTableRecord
100
AcDbLayerTableRecord
  2
‰æ‘w148
 70
    0
 62
7
  6
CONTINUOUS
  0
LAYER
  5
CE
100
AcDbSymbolTableRecord
100
AcDbLayerTableRecord
  2
‰æ‘w149
 70
    0
 62
7
  6
CONTINUOUS
  0
LAYER
  5
CF
100
AcDbSymbolTableRecord
100
AcDbLayerTableRecord
  2
‰æ‘w150
 70
    0
 62
7
  6
CONTINUOUS
  0
LAYER
  5
D0
100
AcDbSymbolTableRecord
100
AcDbLayerTableRecord
  2
‰æ‘w151
 70
    0
 62
7
  6
CONTINUOUS
  0
LAYER
  5
D1
100
AcDbSymbolTableRecord
100
AcDbLayerTableRecord
  2
‰æ‘w152
 70
    0
 62
7
  6
CONTINUOUS
  0
LAYER
  5
D2
100
AcDbSymbolTableRecord
100
AcDbLayerTableRecord
  2
‰æ‘w153
 70
    0
 62
7
  6
CONTINUOUS
  0
LAYER
  5
D3
100
AcDbSymbolTableRecord
100
AcDbLayerTableRecord
  2
‰æ‘w154
 70
    0
 62
7
  6
CONTINUOUS
  0
LAYER
  5
D4
100
AcDbSymbolTableRecord
100
AcDbLayerTableRecord
  2
‰æ‘w155
 70
    0
 62
7
  6
CONTINUOUS
  0
LAYER
  5
D5
100
AcDbSymbolTableRecord
100
AcDbLayerTableRecord
  2
‰æ‘w156
 70
    0
 62
7
  6
CONTINUOUS
  0
LAYER
  5
D6
100
AcDbSymbolTableRecord
100
AcDbLayerTableRecord
  2
‰æ‘w157
 70
    0
 62
7
  6
CONTINUOUS
  0
LAYER
  5
D7
100
AcDbSymbolTableRecord
100
AcDbLayerTableRecord
  2
‰æ‘w158
 70
    0
 62
7
  6
CONTINUOUS
  0
LAYER
  5
D8
100
AcDbSymbolTableRecord
100
AcDbLayerTableRecord
  2
‰æ‘w159
 70
    0
 62
7
  6
CONTINUOUS
  0
LAYER
  5
D9
100
AcDbSymbolTableRecord
100
AcDbLayerTableRecord
  2
‰æ‘w160
 70
    0
 62
7
  6
CONTINUOUS
  0
LAYER
  5
DA
100
AcDbSymbolTableRecord
100
AcDbLayerTableRecord
  2
‰æ‘w161
 70
    0
 62
7
  6
CONTINUOUS
  0
LAYER
  5
DB
100
AcDbSymbolTableRecord
100
AcDbLayerTableRecord
  2
‰æ‘w162
 70
    0
 62
7
  6
CONTINUOUS
  0
LAYER
  5
DC
100
AcDbSymbolTableRecord
100
AcDbLayerTableRecord
  2
‰æ‘w163
 70
    0
 62
7
  6
CONTINUOUS
  0
LAYER
  5
DD
100
AcDbSymbolTableRecord
100
AcDbLayerTableRecord
  2
‰æ‘w164
 70
    0
 62
7
  6
CONTINUOUS
  0
LAYER
  5
DE
100
AcDbSymbolTableRecord
100
AcDbLayerTableRecord
  2
‰æ‘w165
 70
    0
 62
7
  6
CONTINUOUS
  0
LAYER
  5
DF
100
AcDbSymbolTableRecord
100
AcDbLayerTableRecord
  2
‰æ‘w166
 70
    0
 62
7
  6
CONTINUOUS
  0
LAYER
  5
E0
100
AcDbSymbolTableRecord
100
AcDbLayerTableRecord
  2
‰æ‘w167
 70
    0
 62
7
  6
CONTINUOUS
  0
LAYER
  5
E1
100
AcDbSymbolTableRecord
100
AcDbLayerTableRecord
  2
‰æ‘w168
 70
    0
 62
7
  6
CONTINUOUS
  0
LAYER
  5
E2
100
AcDbSymbolTableRecord
100
AcDbLayerTableRecord
  2
‰æ‘w169
 70
    0
 62
7
  6
CONTINUOUS
  0
LAYER
  5
E3
100
AcDbSymbolTableRecord
100
AcDbLayerTableRecord
  2
‰æ‘w170
 70
    0
 62
7
  6
CONTINUOUS
  0
LAYER
  5
E4
100
AcDbSymbolTableRecord
100
AcDbLayerTableRecord
  2
‰æ‘w171
 70
    0
 62
7
  6
CONTINUOUS
  0
LAYER
  5
E5
100
AcDbSymbolTableRecord
100
AcDbLayerTableRecord
  2
‰æ‘w172
 70
    0
 62
7
  6
CONTINUOUS
  0
LAYER
  5
E6
100
AcDbSymbolTableRecord
100
AcDbLayerTableRecord
  2
‰æ‘w173
 70
    0
 62
7
  6
CONTINUOUS
  0
LAYER
  5
E7
100
AcDbSymbolTableRecord
100
AcDbLayerTableRecord
  2
‰æ‘w174
 70
    0
 62
7
  6
CONTINUOUS
  0
LAYER
  5
E8
100
AcDbSymbolTableRecord
100
AcDbLayerTableRecord
  2
‰æ‘w175
 70
    0
 62
7
  6
CONTINUOUS
  0
LAYER
  5
E9
100
AcDbSymbolTableRecord
100
AcDbLayerTableRecord
  2
‰æ‘w176
 70
    0
 62
7
  6
CONTINUOUS
  0
LAYER
  5
EA
100
AcDbSymbolTableRecord
100
AcDbLayerTableRecord
  2
‰æ‘w177
 70
    0
 62
7
  6
CONTINUOUS
  0
LAYER
  5
EB
100
AcDbSymbolTableRecord
100
AcDbLayerTableRecord
  2
‰æ‘w178
 70
    0
 62
7
  6
CONTINUOUS
  0
LAYER
  5
EC
100
AcDbSymbolTableRecord
100
AcDbLayerTableRecord
  2
‰æ‘w179
 70
    0
 62
7
  6
CONTINUOUS
  0
LAYER
  5
ED
100
AcDbSymbolTableRecord
100
AcDbLayerTableRecord
  2
‰æ‘w180
 70
    0
 62
7
  6
CONTINUOUS
  0
LAYER
  5
EE
100
AcDbSymbolTableRecord
100
AcDbLayerTableRecord
  2
‰æ‘w181
 70
    0
 62
7
  6
CONTINUOUS
  0
LAYER
  5
EF
100
AcDbSymbolTableRecord
100
AcDbLayerTableRecord
  2
‰æ‘w182
 70
    0
 62
7
  6
CONTINUOUS
  0
LAYER
  5
F0
100
AcDbSymbolTableRecord
100
AcDbLayerTableRecord
  2
‰æ‘w183
 70
    0
 62
7
  6
CONTINUOUS
  0
LAYER
  5
F1
100
AcDbSymbolTableRecord
100
AcDbLayerTableRecord
  2
‰æ‘w184
 70
    0
 62
7
  6
CONTINUOUS
  0
LAYER
  5
F2
100
AcDbSymbolTableRecord
100
AcDbLayerTableRecord
  2
‰æ‘w185
 70
    0
 62
7
  6
CONTINUOUS
  0
LAYER
  5
F3
100
AcDbSymbolTableRecord
100
AcDbLayerTableRecord
  2
‰æ‘w186
 70
    0
 62
7
  6
CONTINUOUS
  0
LAYER
  5
F4
100
AcDbSymbolTableRecord
100
AcDbLayerTableRecord
  2
‰æ‘w187
 70
    0
 62
7
  6
CONTINUOUS
  0
LAYER
  5
F5
100
AcDbSymbolTableRecord
100
AcDbLayerTableRecord
  2
‰æ‘w188
 70
    0
 62
7
  6
CONTINUOUS
  0
LAYER
  5
F6
100
AcDbSymbolTableRecord
100
AcDbLayerTableRecord
  2
‰æ‘w189
 70
    0
 62
7
  6
CONTINUOUS
  0
LAYER
  5
F7
100
AcDbSymbolTableRecord
100
AcDbLayerTableRecord
  2
‰æ‘w190
 70
    0
 62
7
  6
CONTINUOUS
  0
LAYER
  5
F8
100
AcDbSymbolTableRecord
100
AcDbLayerTableRecord
  2
‰æ‘w191
 70
    0
 62
7
  6
CONTINUOUS
  0
LAYER
  5
F9
100
AcDbSymbolTableRecord
100
AcDbLayerTableRecord
  2
‰æ‘w192
 70
    0
 62
7
  6
CONTINUOUS
  0
LAYER
  5
FA
100
AcDbSymbolTableRecord
100
AcDbLayerTableRecord
  2
‰æ‘w193
 70
    0
 62
7
  6
CONTINUOUS
  0
LAYER
  5
FB
100
AcDbSymbolTableRecord
100
AcDbLayerTableRecord
  2
‰æ‘w194
 70
    0
 62
7
  6
CONTINUOUS
  0
LAYER
  5
FC
100
AcDbSymbolTableRecord
100
AcDbLayerTableRecord
  2
‰æ‘w195
 70
    0
 62
7
  6
CONTINUOUS
  0
LAYER
  5
FD
100
AcDbSymbolTableRecord
100
AcDbLayerTableRecord
  2
‰æ‘w196
 70
    0
 62
7
  6
CONTINUOUS
  0
LAYER
  5
FE
100
AcDbSymbolTableRecord
100
AcDbLayerTableRecord
  2
‰æ‘w197
 70
    0
 62
7
  6
CONTINUOUS
  0
LAYER
  5
FF
100
AcDbSymbolTableRecord
100
AcDbLayerTableRecord
  2
‰æ‘w198
 70
    0
 62
7
  6
CONTINUOUS
  0
LAYER
  5
100
100
AcDbSymbolTableRecord
100
AcDbLayerTableRecord
  2
‰æ‘w199
 70
    0
 62
7
  6
CONTINUOUS
  0
LAYER
  5
101
100
AcDbSymbolTableRecord
100
AcDbLayerTableRecord
  2
‰æ‘w200
 70
    0
 62
7
  6
CONTINUOUS
  0
LAYER
  5
102
100
AcDbSymbolTableRecord
100
AcDbLayerTableRecord
  2
‰æ‘w201
 70
    0
 62
7
  6
CONTINUOUS
  0
LAYER
  5
103
100
AcDbSymbolTableRecord
100
AcDbLayerTableRecord
  2
‰æ‘w202
 70
    0
 62
7
  6
CONTINUOUS
  0
LAYER
  5
104
100
AcDbSymbolTableRecord
100
AcDbLayerTableRecord
  2
‰æ‘w203
 70
    0
 62
7
  6
CONTINUOUS
  0
LAYER
  5
105
100
AcDbSymbolTableRecord
100
AcDbLayerTableRecord
  2
‰æ‘w204
 70
    0
 62
7
  6
CONTINUOUS
  0
LAYER
  5
106
100
AcDbSymbolTableRecord
100
AcDbLayerTableRecord
  2
‰æ‘w205
 70
    0
 62
7
  6
CONTINUOUS
  0
LAYER
  5
107
100
AcDbSymbolTableRecord
100
AcDbLayerTableRecord
  2
‰æ‘w206
 70
    0
 62
7
  6
CONTINUOUS
  0
LAYER
  5
108
100
AcDbSymbolTableRecord
100
AcDbLayerTableRecord
  2
‰æ‘w207
 70
    0
 62
7
  6
CONTINUOUS
  0
LAYER
  5
109
100
AcDbSymbolTableRecord
100
AcDbLayerTableRecord
  2
‰æ‘w208
 70
    0
 62
7
  6
CONTINUOUS
  0
LAYER
  5
10A
100
AcDbSymbolTableRecord
100
AcDbLayerTableRecord
  2
‰æ‘w209
 70
    0
 62
7
  6
CONTINUOUS
  0
LAYER
  5
10B
100
AcDbSymbolTableRecord
100
AcDbLayerTableRecord
  2
‰æ‘w210
 70
    0
 62
7
  6
CONTINUOUS
  0
LAYER
  5
10C
100
AcDbSymbolTableRecord
100
AcDbLayerTableRecord
  2
‰æ‘w211
 70
    0
 62
7
  6
CONTINUOUS
  0
LAYER
  5
10D
100
AcDbSymbolTableRecord
100
AcDbLayerTableRecord
  2
‰æ‘w212
 70
    0
 62
7
  6
CONTINUOUS
  0
LAYER
  5
10E
100
AcDbSymbolTableRecord
100
AcDbLayerTableRecord
  2
‰æ‘w213
 70
    0
 62
7
  6
CONTINUOUS
  0
LAYER
  5
10F
100
AcDbSymbolTableRecord
100
AcDbLayerTableRecord
  2
‰æ‘w214
 70
    0
 62
7
  6
CONTINUOUS
  0
LAYER
  5
110
100
AcDbSymbolTableRecord
100
AcDbLayerTableRecord
  2
‰æ‘w215
 70
    0
 62
7
  6
CONTINUOUS
  0
LAYER
  5
111
100
AcDbSymbolTableRecord
100
AcDbLayerTableRecord
  2
‰æ‘w216
 70
    0
 62
7
  6
CONTINUOUS
  0
LAYER
  5
112
100
AcDbSymbolTableRecord
100
AcDbLayerTableRecord
  2
‰æ‘w217
 70
    0
 62
7
  6
CONTINUOUS
  0
LAYER
  5
113
100
AcDbSymbolTableRecord
100
AcDbLayerTableRecord
  2
‰æ‘w218
 70
    0
 62
7
  6
CONTINUOUS
  0
LAYER
  5
114
100
AcDbSymbolTableRecord
100
AcDbLayerTableRecord
  2
‰æ‘w219
 70
    0
 62
7
  6
CONTINUOUS
  0
LAYER
  5
115
100
AcDbSymbolTableRecord
100
AcDbLayerTableRecord
  2
‰æ‘w220
 70
    0
 62
7
  6
CONTINUOUS
  0
LAYER
  5
116
100
AcDbSymbolTableRecord
100
AcDbLayerTableRecord
  2
‰æ‘w221
 70
    0
 62
7
  6
CONTINUOUS
  0
LAYER
  5
117
100
AcDbSymbolTableRecord
100
AcDbLayerTableRecord
  2
‰æ‘w222
 70
    0
 62
7
  6
CONTINUOUS
  0
LAYER
  5
118
100
AcDbSymbolTableRecord
100
AcDbLayerTableRecord
  2
‰æ‘w223
 70
    0
 62
7
  6
CONTINUOUS
  0
LAYER
  5
119
100
AcDbSymbolTableRecord
100
AcDbLayerTableRecord
  2
‰æ‘w224
 70
    0
 62
7
  6
CONTINUOUS
  0
LAYER
  5
11A
100
AcDbSymbolTableRecord
100
AcDbLayerTableRecord
  2
‰æ‘w225
 70
    0
 62
7
  6
CONTINUOUS
  0
LAYER
  5
11B
100
AcDbSymbolTableRecord
100
AcDbLayerTableRecord
  2
‰æ‘w226
 70
    0
 62
7
  6
CONTINUOUS
  0
LAYER
  5
11C
100
AcDbSymbolTableRecord
100
AcDbLayerTableRecord
  2
‰æ‘w227
 70
    0
 62
7
  6
CONTINUOUS
  0
LAYER
  5
11D
100
AcDbSymbolTableRecord
100
AcDbLayerTableRecord
  2
‰æ‘w228
 70
    0
 62
7
  6
CONTINUOUS
  0
LAYER
  5
11E
100
AcDbSymbolTableRecord
100
AcDbLayerTableRecord
  2
‰æ‘w229
 70
    0
 62
7
  6
CONTINUOUS
  0
LAYER
  5
11F
100
AcDbSymbolTableRecord
100
AcDbLayerTableRecord
  2
‰æ‘w230
 70
    0
 62
7
  6
CONTINUOUS
  0
LAYER
  5
120
100
AcDbSymbolTableRecord
100
AcDbLayerTableRecord
  2
‰æ‘w231
 70
    0
 62
7
  6
CONTINUOUS
  0
LAYER
  5
121
100
AcDbSymbolTableRecord
100
AcDbLayerTableRecord
  2
‰æ‘w232
 70
    0
 62
7
  6
CONTINUOUS
  0
LAYER
  5
122
100
AcDbSymbolTableRecord
100
AcDbLayerTableRecord
  2
‰æ‘w233
 70
    0
 62
7
  6
CONTINUOUS
  0
LAYER
  5
123
100
AcDbSymbolTableRecord
100
AcDbLayerTableRecord
  2
‰æ‘w234
 70
    0
 62
7
  6
CONTINUOUS
  0
LAYER
  5
124
100
AcDbSymbolTableRecord
100
AcDbLayerTableRecord
  2
‰æ‘w235
 70
    0
 62
7
  6
CONTINUOUS
  0
LAYER
  5
125
100
AcDbSymbolTableRecord
100
AcDbLayerTableRecord
  2
‰æ‘w236
 70
    0
 62
7
  6
CONTINUOUS
  0
LAYER
  5
126
100
AcDbSymbolTableRecord
100
AcDbLayerTableRecord
  2
‰æ‘w237
 70
    0
 62
7
  6
CONTINUOUS
  0
LAYER
  5
127
100
AcDbSymbolTableRecord
100
AcDbLayerTableRecord
  2
‰æ‘w238
 70
    0
 62
7
  6
CONTINUOUS
  0
LAYER
  5
128
100
AcDbSymbolTableRecord
100
AcDbLayerTableRecord
  2
‰æ‘w239
 70
    0
 62
7
  6
CONTINUOUS
  0
LAYER
  5
129
100
AcDbSymbolTableRecord
100
AcDbLayerTableRecord
  2
‰æ‘w240
 70
    0
 62
7
  6
CONTINUOUS
  0
LAYER
  5
12A
100
AcDbSymbolTableRecord
100
AcDbLayerTableRecord
  2
‰æ‘w241
 70
    0
 62
7
  6
CONTINUOUS
  0
LAYER
  5
12B
100
AcDbSymbolTableRecord
100
AcDbLayerTableRecord
  2
‰æ‘w242
 70
    0
 62
7
  6
CONTINUOUS
  0
LAYER
  5
12C
100
AcDbSymbolTableRecord
100
AcDbLayerTableRecord
  2
‰æ‘w243
 70
    0
 62
7
  6
CONTINUOUS
  0
LAYER
  5
12D
100
AcDbSymbolTableRecord
100
AcDbLayerTableRecord
  2
‰æ‘w244
 70
    0
 62
7
  6
CONTINUOUS
  0
LAYER
  5
12E
100
AcDbSymbolTableRecord
100
AcDbLayerTableRecord
  2
‰æ‘w245
 70
    0
 62
7
  6
CONTINUOUS
  0
LAYER
  5
12F
100
AcDbSymbolTableRecord
100
AcDbLayerTableRecord
  2
‰æ‘w246
 70
    0
 62
7
  6
CONTINUOUS
  0
LAYER
  5
130
100
AcDbSymbolTableRecord
100
AcDbLayerTableRecord
  2
‰æ‘w247
 70
    0
 62
7
  6
CONTINUOUS
  0
LAYER
  5
131
100
AcDbSymbolTableRecord
100
AcDbLayerTableRecord
  2
‰æ‘w248
 70
    0
 62
7
  6
CONTINUOUS
  0
LAYER
  5
132
100
AcDbSymbolTableRecord
100
AcDbLayerTableRecord
  2
‰æ‘w249
 70
    0
 62
7
  6
CONTINUOUS
  0
LAYER
  5
133
100
AcDbSymbolTableRecord
100
AcDbLayerTableRecord
  2
‰æ‘w250
 70
    0
 62
7
  6
CONTINUOUS
  0
LAYER
  5
134
100
AcDbSymbolTableRecord
100
AcDbLayerTableRecord
  2
‰æ‘w251
 70
    0
 62
7
  6
CONTINUOUS
  0
LAYER
  5
135
100
AcDbSymbolTableRecord
100
AcDbLayerTableRecord
  2
‰æ‘w252
 70
    0
 62
7
  6
CONTINUOUS
  0
LAYER
  5
136
100
AcDbSymbolTableRecord
100
AcDbLayerTableRecord
  2
‰æ‘w253
 70
    0
 62
7
  6
CONTINUOUS
  0
LAYER
  5
137
100
AcDbSymbolTableRecord
100
AcDbLayerTableRecord
  2
‰æ‘w254
 70
    0
 62
7
  6
CONTINUOUS
  0
LAYER
  5
138
100
AcDbSymbolTableRecord
100
AcDbLayerTableRecord
  2
‰æ‘w255
 70
    0
 62
7
  6
CONTINUOUS
  0
LAYER
  5
139
100
AcDbSymbolTableRecord
100
AcDbLayerTableRecord
  2
0
 70
   64
 62
    7
  6
CONTINUOUS
  0
ENDTAB
  0
TABLE
  2
STYLE
  5
4
100
AcDbSymbolTable
 70
     1
  0
STYLE
  5
13A
100
AcDbSymbolTableRecord
100
AcDbTextStyleTableRecord
  2
Standard
 70
     0
 40
0.0
 41
1.0
 50
0.0
 71
     0
 42
3.2
  3
TXT
  4
BIGFONT
  0
STYLE
  5
13B
100
AcDbSymbolTableRecord
100
AcDbTextStyleTableRecord
  2
Font_0
 70
     0
 40
0.0
 41
1.0
 50
0.0
 71
     0
 42
3.2
  3
MS Gothic.ttf
  4

1001
ACAD
1000
MS Gothic
1071
  32817
  0
ENDTAB
  0
TABLE
  2
VIEW
  5
5
100
AcDbSymbolTable
 70
     0
  0
ENDTAB
  0
TABLE
  2
UCS
  5
6
100
AcDbSymbolTable
 70
     0
  0
ENDTAB
  0
TABLE
  2
APPID
  5
7
100
AcDbSymbolTable
 70
     1
  0
APPID
  5
13C
100
AcDbSymbolTableRecord
100
AcDbRegAppTableRecord
  2
ACAD
 70
     0
  0
ENDTAB
  0
TABLE
  2
DIMSTYLE
  5
8
100
AcDbSymbolTable
 70
     1
  0
DIMSTYLE
105
2A
100
AcDbSymbolTableRecord
100
AcDbDimStyleTableRecord
  2
STANDARD
 70
     0
  3

  4

  5

  6

  7

 40
1.0
 41
2.5
 42
2.0
 43
7.0
 44
1.25
 45
0.0
 46
0.0
 47
0.0
 48
0.0
 71
     0
 72
     0
 73
     0
 74
     0
 75
     0
 76
     0
 77
     1
 78
     0
140
2.5
141
2.5
142
0.0
143
0.0394
144
1.0
145
0.0
146
1.0
147
1.0
170
     0
171
     2
172
     0
173
     0
174
     1
175
     0
176
     0
177
     0
178
     0
270
     2
271
     2
272
     4
273
     2
274
     2
275
     0
280
     0
281
     0
282
     0
283
     1
284
     0
285
     0
286
     0
287
     3
288
     0
  0
ENDTAB
  0
TABLE
  2
BLOCK_RECORD
  5
9
100
AcDbSymbolTable
 70
     0
  0
BLOCK_RECORD
  5
13D
100
AcDbSymbolTableRecord
100
AcDbBlockTableRecord
  2
*MODEL_SPACE
  0
BLOCK_RECORD
  5
13E
100
AcDbSymbolTableRecord
100
AcDbBlockTableRecord
  2
*PAPER_SPACE
  0
ENDTAB
  0
ENDSEC
  0
SECTION
  2
BLOCKS
  0
BLOCK
  5
140
100
AcDbEntity
  8
0
100
AcDbBlockBegin
2
*MODEL_SPACE
 70
     0
 10
0.0
 20
0.0
 30
0.0
  3
*MODEL_SPACE
  1

  0
ENDBLK
  5
141
100
AcDbEntity
  8
‰æ‘w0
100
AcDbBlockEnd
  0
BLOCK
  5
142
100
AcDbEntity
 67
     1
  8
‰æ‘w0
100
AcDbBlockBegin
  2
*PAPER_SPACE
 70
     0
 10
0.0
 20
0.0
 30
0.0
  3
*PAPER_SPACE
  1

  0
ENDBLK
  5
143
100
AcDbEntity
 67
     1
  8
‰æ‘w0
100
AcDbBlockEnd
  0
ENDSEC
  0
SECTION
  2
ENTITIES
  0
LINE
  5
144
100
AcDbEntity
  8
‰æ‘w0
100
AcDbLine
  6
BYLAYER
370
13
 10
33.5441549179409
 20
50.4008043742656
 11
33.5441549179409
 21
49.4008043742656
  0
LINE
  5
145
100
AcDbEntity
  8
‰æ‘w0
100
AcDbLine
  6
BYLAYER
370
13
 10
33.5441549179409
 20
49.4008043742656
 11
32.7441549179409
 21
49.4008043742656
  0
LINE
  5
146
100
AcDbEntity
  8
‰æ‘w0
100
AcDbLine
  6
BYLAYER
370
13
 10
32.7441549179409
 20
49.4008043742656
 11
32.7441549179409
 21
45.9008043742656
  0
LINE
  5
147
100
AcDbEntity
  8
‰æ‘w0
100
AcDbLine
  6
BYLAYER
370
13
 10
32.7441549179409
 20
45.9008043742656
 11
33.5441549179409
 21
45.9008043742656
  0
LINE
  5
148
100
AcDbEntity
  8
‰æ‘w0
100
AcDbLine
  6
BYLAYER
370
13
 10
33.5441549179409
 20
40.9008043742656
 11
32.7441549179409
 21
40.9008043742656
  0
LINE
  5
149
100
AcDbEntity
  8
‰æ‘w0
100
AcDbLine
  6
BYLAYER
370
13
 10
32.7441549179409
 20
40.9008043742656
 11
32.7441549179409
 21
37.4008043742656
  0
LINE
  5
14A
100
AcDbEntity
  8
‰æ‘w0
100
AcDbLine
  6
BYLAYER
370
13
 10
32.7441549179409
 20
37.4008043742656
 11
33.5441549179409
 21
37.4008043742656
  0
LINE
  5
14B
100
AcDbEntity
  8
‰æ‘w0
100
AcDbLine
  6
BYLAYER
370
13
 10
33.5441549179409
 20
37.4008043742656
 11
33.5441549179409
 21
36.4008043742656
  0
LINE
  5
14C
100
AcDbEntity
  8
‰æ‘w0
100
AcDbLine
  6
BYLAYER
370
13
 10
66.5941549179412
 20
37.4008043742656
 11
67.3941549179412
 21
37.4008043742656
  0
LINE
  5
14D
100
AcDbEntity
  8
‰æ‘w0
100
AcDbLine
  6
BYLAYER
370
13
 10
67.3941549179412
 20
37.4008043742656
 11
67.3941549179412
 21
40.9008043742656
  0
LINE
  5
14E
100
AcDbEntity
  8
‰æ‘w0
100
AcDbLine
  6
BYLAYER
370
13
 10
67.3941549179412
 20
40.9008043742656
 11
66.5941549179412
 21
40.9008043742656
  0
LINE
  5
14F
100
AcDbEntity
  8
‰æ‘w0
100
AcDbLine
  6
BYLAYER
370
13
 10
66.5941549179412
 20
45.9008043742656
 11
67.3941549179412
 21
45.9008043742656
  0
LINE
  5
150
100
AcDbEntity
  8
‰æ‘w0
100
AcDbLine
  6
BYLAYER
370
13
 10
67.3941549179412
 20
45.9008043742656
 11
67.3941549179412
 21
49.4008043742656
  0
LINE
  5
151
100
AcDbEntity
  8
‰æ‘w0
100
AcDbLine
  6
BYLAYER
370
13
 10
67.3941549179412
 20
49.4008043742656
 11
66.5941549179412
 21
49.4008043742656
  0
LINE
  5
152
100
AcDbEntity
  8
‰æ‘w0
100
AcDbLine
  6
BYLAYER
370
13
 10
66.5941549179412
 20
49.4008043742656
 11
66.5941549179412
 21
50.4008043742656
  0
LINE
  5
153
100
AcDbEntity
  8
‰æ‘w0
100
AcDbLine
  6
BYLAYER
370
13
 10
66.5941549179412
 20
36.4008043742656
 11
66.5941549179412
 21
37.4008043742656
  0
LINE
  5
154
100
AcDbEntity
  8
‰æ‘w0
100
AcDbLine
  6
CONTINUOUS
370
13
 10
33.5441549179409
 20
50.4008043742656
 11
66.5941549179412
 21
50.4008043742656
  0
LINE
  5
155
100
AcDbEntity
  8
‰æ‘w0
100
AcDbLine
  6
CONTINUOUS
370
13
 10
33.5441549179409
 20
36.4008043742656
 11
66.5941549179412
 21
36.4008043742656
  0
LINE
  5
156
100
AcDbEntity
  8
‰æ‘w0
100
AcDbLine
  6
CONTINUOUS
370
13
 10
27.0141549179409
 20
129.130804374266
 11
27.0141549179409
 21
33.8708043742656
  0
LINE
  5
157
100
AcDbEntity
  8
‰æ‘w0
100
AcDbLine
  6
CONTINUOUS
370
13
 10
27.0141549179409
 20
33.8708043742656
 11
69.1191549179412
 21
33.8708043742656
  0
LINE
  5
158
100
AcDbEntity
  8
‰æ‘w0
100
AcDbLine
  6
CONTINUOUS
370
13
 10
148.632500562995
 20
24.0500626170265
 11
176.843264018372
 21
7.76257074201958
  0
LINE
  5
159
100
AcDbEntity
  8
‰æ‘w0
100
AcDbLine
  6
CONTINUOUS
370
13
 10
176.843264018372
 20
7.76257074201857
 11
195.898296196181
 21
40.7668546138446
  0
LINE
  5
15A
100
AcDbEntity
  8
‰æ‘w0
100
AcDbLine
  6
CONTINUOUS
370
13
 10
66.5941549179412
 20
44.9008043742656
 11
66.5941549179412
 21
45.9008043742656
  0
LINE
  5
15B
100
AcDbEntity
  8
‰æ‘w0
100
AcDbLine
  6
CONTINUOUS
370
13
 10
66.5941549179412
 20
41.9008043742656
 11
66.5941549179412
 21
40.9008043742656
  0
LINE
  5
15C
100
AcDbEntity
  8
‰æ‘w0
100
AcDbLine
  6
CONTINUOUS
370
13
 10
33.5441549179409
 20
40.9008043742656
 11
33.5441549179409
 21
41.9008043742656
  0
LINE
  5
15D
100
AcDbEntity
  8
‰æ‘w0
100
AcDbLine
  6
CONTINUOUS
370
13
 10
33.5441549179409
 20
44.9008043742656
 11
33.5441549179409
 21
45.9008043742656
  0
LINE
  5
15E
100
AcDbEntity
  8
‰æ‘w0
100
AcDbLine
  6
CONTINUOUS
370
13
 10
27.0141549179409
 20
129.130804374266
 11
164.374154917941
 21
129.130804374266
  0
LWPOLYLINE
  5
15F
100
AcDbEntity
  8
‰æ‘w0
100
AcDbPolyline
  6
BYLAYER
370
13
 90
     20
 70
     1
 10
47.5441549179409
  20
113.600804374266
 10
48.3441549179409
  20
113.600804374266
 10
48.3441549179409
  20
117.100804374266
 10
47.5441549179409
  20
117.100804374266
 10
47.5441549179409
  20
122.100804374266
 10
48.3441549179409
  20
122.100804374266
 10
48.3441549179409
  20
125.600804374266
 10
47.5441549179409
  20
125.600804374266
 10
47.5441549179409
  20
126.600804374266
 10
33.5441549179409
  20
126.600804374266
 10
33.5441549179409
  20
125.600804374266
 10
32.7441549179409
  20
125.600804374266
 10
32.7441549179409
  20
122.100804374266
 10
33.5441549179409
  20
122.100804374266
 10
33.5441549179409
  20
117.100804374266
 10
32.7441549179409
  20
117.100804374266
 10
32.7441549179409
  20
113.600804374266
 10
33.5441549179409
  20
113.600804374266
 10
33.5441549179409
  20
112.600804374266
 10
47.5441549179409
  20
112.600804374266
  0
LWPOLYLINE
  5
160
100
AcDbEntity
  8
‰æ‘w0
100
AcDbPolyline
  6
BYLAYER
370
13
 90
     20
 70
     1
 10
66.5941549179412
  20
113.600804374266
 10
67.3941549179412
  20
113.600804374266
 10
67.3941549179412
  20
117.100804374266
 10
66.5941549179412
  20
117.100804374266
 10
66.5941549179412
  20
122.100804374266
 10
67.3941549179412
  20
122.100804374266
 10
67.3941549179412
  20
125.600804374266
 10
66.5941549179412
  20
125.600804374266
 10
66.5941549179412
  20
126.600804374266
 10
52.5941549179409
  20
126.600804374266
 10
52.5941549179409
  20
125.600804374266
 10
51.7941549179409
  20
125.600804374266
 10
51.7941549179409
  20
122.100804374266
 10
52.5941549179409
  20
122.100804374266
 10
52.5941549179409
  20
117.100804374266
 10
51.7941549179409
  20
117.100804374266
 10
51.7941549179409
  20
113.600804374266
 10
52.5941549179409
  20
113.600804374266
 10
52.5941549179409
  20
112.600804374266
 10
66.5941549179412
  20
112.600804374266
  0
LWPOLYLINE
  5
161
100
AcDbEntity
  8
‰æ‘w0
100
AcDbPolyline
  6
BYLAYER
370
13
 90
     20
 70
     1
 10
85.6441549179412
  20
113.600804374266
 10
86.4441549179412
  20
113.600804374266
 10
86.4441549179412
  20
117.100804374266
 10
85.6441549179412
  20
117.100804374266
 10
85.6441549179412
  20
122.100804374266
 10
86.4441549179412
  20
122.100804374266
 10
86.4441549179412
  20
125.600804374266
 10
85.6441549179412
  20
125.600804374266
 10
85.6441549179412
  20
126.600804374266
 10
71.6441549179412
  20
126.600804374266
 10
71.6441549179412
  20
125.600804374266
 10
70.8441549179412
  20
125.600804374266
 10
70.8441549179412
  20
122.100804374266
 10
71.6441549179412
  20
122.100804374266
 10
71.6441549179412
  20
117.100804374266
 10
70.8441549179412
  20
117.100804374266
 10
70.8441549179412
  20
113.600804374266
 10
71.6441549179412
  20
113.600804374266
 10
71.6441549179412
  20
112.600804374266
 10
85.6441549179412
  20
112.600804374266
  0
LWPOLYLINE
  5
162
100
AcDbEntity
  8
‰æ‘w0
100
AcDbPolyline
  6
BYLAYER
370
13
 90
     20
 70
     1
 10
104.694154917941
  20
113.600804374266
 10
105.494154917941
  20
113.600804374266
 10
105.494154917941
  20
117.100804374266
 10
104.694154917941
  20
117.100804374266
 10
104.694154917941
  20
122.100804374266
 10
105.494154917941
  20
122.100804374266
 10
105.494154917941
  20
125.600804374266
 10
104.694154917941
  20
125.600804374266
 10
104.694154917941
  20
126.600804374266
 10
90.6941549179412
  20
126.600804374266
 10
90.6941549179412
  20
125.600804374266
 10
89.8941549179412
  20
125.600804374266
 10
89.8941549179412
  20
122.100804374266
 10
90.6941549179412
  20
122.100804374266
 10
90.6941549179412
  20
117.100804374266
 10
89.8941549179412
  20
117.100804374266
 10
89.8941549179412
  20
113.600804374266
 10
90.6941549179412
  20
113.600804374266
 10
90.6941549179412
  20
112.600804374266
 10
104.694154917941
  20
112.600804374266
  0
LWPOLYLINE
  5
163
100
AcDbEntity
  8
‰æ‘w0
100
AcDbPolyline
  6
BYLAYER
370
13
 90
     20
 70
     1
 10
123.744154917941
  20
113.600804374266
 10
124.544154917941
  20
113.600804374266
 10
124.544154917941
  20
117.100804374266
 10
123.744154917941
  20
117.100804374266
 10
123.744154917941
  20
122.100804374266
 10
124.544154917941
  20
122.100804374266
 10
124.544154917941
  20
125.600804374266
 10
123.744154917941
  20
125.600804374266
 10
123.744154917941
  20
126.600804374266
 10
109.744154917941
  20
126.600804374266
 10
109.744154917941
  20
125.600804374266
 10
108.944154917941
  20
125.600804374266
 10
108.944154917941
  20
122.100804374266
 10
109.744154917941
  20
122.100804374266
 10
109.744154917941
  20
117.100804374266
 10
108.944154917941
  20
117.100804374266
 10
108.944154917941
  20
113.600804374266
 10
109.744154917941
  20
113.600804374266
 10
109.744154917941
  20
112.600804374266
 10
123.744154917941
  20
112.600804374266
  0
LWPOLYLINE
  5
164
100
AcDbEntity
  8
‰æ‘w0
100
AcDbPolyline
  6
BYLAYER
370
13
 90
     20
 70
     1
 10
142.794154917941
  20
113.600804374266
 10
143.594154917941
  20
113.600804374266
 10
143.594154917941
  20
117.100804374266
 10
142.794154917941
  20
117.100804374266
 10
142.794154917941
  20
122.100804374266
 10
143.594154917941
  20
122.100804374266
 10
143.594154917941
  20
125.600804374266
 10
142.794154917941
  20
125.600804374266
 10
142.794154917941
  20
126.600804374266
 10
128.794154917941
  20
126.600804374266
 10
128.794154917941
  20
125.600804374266
 10
127.994154917941
  20
125.600804374266
 10
127.994154917941
  20
122.100804374266
 10
128.794154917941
  20
122.100804374266
 10
128.794154917941
  20
117.100804374266
 10
127.994154917941
  20
117.100804374266
 10
127.994154917941
  20
113.600804374266
 10
128.794154917941
  20
113.600804374266
 10
128.794154917941
  20
112.600804374266
 10
142.794154917941
  20
112.600804374266
  0
LWPOLYLINE
  5
165
100
AcDbEntity
  8
‰æ‘w0
100
AcDbPolyline
  6
BYLAYER
370
13
 90
     20
 70
     1
 10
161.844154917941
  20
113.600804374266
 10
162.644154917941
  20
113.600804374266
 10
162.644154917941
  20
117.100804374266
 10
161.844154917941
  20
117.100804374266
 10
161.844154917941
  20
122.100804374266
 10
162.644154917941
  20
122.100804374266
 10
162.644154917941
  20
125.600804374266
 10
161.844154917941
  20
125.600804374266
 10
161.844154917941
  20
126.600804374266
 10
147.844154917941
  20
126.600804374266
 10
147.844154917941
  20
125.600804374266
 10
147.044154917941
  20
125.600804374266
 10
147.044154917941
  20
122.100804374266
 10
147.844154917941
  20
122.100804374266
 10
147.844154917941
  20
117.100804374266
 10
147.044154917941
  20
117.100804374266
 10
147.044154917941
  20
113.600804374266
 10
147.844154917941
  20
113.600804374266
 10
147.844154917941
  20
112.600804374266
 10
161.844154917941
  20
112.600804374266
  0
LWPOLYLINE
  5
166
100
AcDbEntity
  8
‰æ‘w0
100
AcDbPolyline
  6
BYLAYER
370
13
 90
     20
 70
     1
 10
47.5441549179409
  20
94.5508043742657
 10
48.3441549179409
  20
94.5508043742657
 10
48.3441549179409
  20
98.0508043742657
 10
47.5441549179409
  20
98.0508043742657
 10
47.5441549179409
  20
103.050804374266
 10
48.3441549179409
  20
103.050804374266
 10
48.3441549179409
  20
106.550804374266
 10
47.5441549179409
  20
106.550804374266
 10
47.5441549179409
  20
107.550804374266
 10
33.5441549179409
  20
107.550804374266
 10
33.5441549179409
  20
106.550804374266
 10
32.7441549179409
  20
106.550804374266
 10
32.7441549179409
  20
103.050804374266
 10
33.5441549179409
  20
103.050804374266
 10
33.5441549179409
  20
98.0508043742657
 10
32.7441549179409
  20
98.0508043742657
 10
32.7441549179409
  20
94.5508043742657
 10
33.5441549179409
  20
94.5508043742657
 10
33.5441549179409
  20
93.5508043742657
 10
47.5441549179409
  20
93.5508043742657
  0
LWPOLYLINE
  5
167
100
AcDbEntity
  8
‰æ‘w0
100
AcDbPolyline
  6
BYLAYER
370
13
 90
     20
 70
     1
 10
66.5941549179412
  20
94.5508043742657
 10
67.3941549179412
  20
94.5508043742657
 10
67.3941549179412
  20
98.0508043742657
 10
66.5941549179412
  20
98.0508043742657
 10
66.5941549179412
  20
103.050804374266
 10
67.3941549179412
  20
103.050804374266
 10
67.3941549179412
  20
106.550804374266
 10
66.5941549179412
  20
106.550804374266
 10
66.5941549179412
  20
107.550804374266
 10
52.5941549179409
  20
107.550804374266
 10
52.5941549179409
  20
106.550804374266
 10
51.7941549179409
  20
106.550804374266
 10
51.7941549179409
  20
103.050804374266
 10
52.5941549179409
  20
103.050804374266
 10
52.5941549179409
  20
98.0508043742657
 10
51.7941549179409
  20
98.0508043742657
 10
51.7941549179409
  20
94.5508043742657
 10
52.5941549179409
  20
94.5508043742657
 10
52.5941549179409
  20
93.5508043742657
 10
66.5941549179412
  20
93.5508043742657
  0
LWPOLYLINE
  5
168
100
AcDbEntity
  8
‰æ‘w0
100
AcDbPolyline
  6
BYLAYER
370
13
 90
     20
 70
     1
 10
85.6441549179412
  20
94.5508043742657
 10
86.4441549179412
  20
94.5508043742657
 10
86.4441549179412
  20
98.0508043742657
 10
85.6441549179412
  20
98.0508043742657
 10
85.6441549179412
  20
103.050804374266
 10
86.4441549179412
  20
103.050804374266
 10
86.4441549179412
  20
106.550804374266
 10
85.6441549179412
  20
106.550804374266
 10
85.6441549179412
  20
107.550804374266
 10
71.6441549179412
  20
107.550804374266
 10
71.6441549179412
  20
106.550804374266
 10
70.8441549179412
  20
106.550804374266
 10
70.8441549179412
  20
103.050804374266
 10
71.6441549179412
  20
103.050804374266
 10
71.6441549179412
  20
98.0508043742657
 10
70.8441549179412
  20
98.0508043742657
 10
70.8441549179412
  20
94.5508043742657
 10
71.6441549179412
  20
94.5508043742657
 10
71.6441549179412
  20
93.5508043742657
 10
85.6441549179412
  20
93.5508043742657
  0
LWPOLYLINE
  5
169
100
AcDbEntity
  8
‰æ‘w0
100
AcDbPolyline
  6
BYLAYER
370
13
 90
     20
 70
     1
 10
104.694154917941
  20
94.5508043742657
 10
105.494154917941
  20
94.5508043742657
 10
105.494154917941
  20
98.0508043742657
 10
104.694154917941
  20
98.0508043742657
 10
104.694154917941
  20
103.050804374266
 10
105.494154917941
  20
103.050804374266
 10
105.494154917941
  20
106.550804374266
 10
104.694154917941
  20
106.550804374266
 10
104.694154917941
  20
107.550804374266
 10
90.6941549179412
  20
107.550804374266
 10
90.6941549179412
  20
106.550804374266
 10
89.8941549179412
  20
106.550804374266
 10
89.8941549179412
  20
103.050804374266
 10
90.6941549179412
  20
103.050804374266
 10
90.6941549179412
  20
98.0508043742657
 10
89.8941549179412
  20
98.0508043742657
 10
89.8941549179412
  20
94.5508043742657
 10
90.6941549179412
  20
94.5508043742657
 10
90.6941549179412
  20
93.5508043742657
 10
104.694154917941
  20
93.5508043742657
  0
LWPOLYLINE
  5
16A
100
AcDbEntity
  8
‰æ‘w0
100
AcDbPolyline
  6
BYLAYER
370
13
 90
     20
 70
     1
 10
123.744154917941
  20
94.5508043742657
 10
124.544154917941
  20
94.5508043742657
 10
124.544154917941
  20
98.0508043742657
 10
123.744154917941
  20
98.0508043742657
 10
123.744154917941
  20
103.050804374266
 10
124.544154917941
  20
103.050804374266
 10
124.544154917941
  20
106.550804374266
 10
123.744154917941
  20
106.550804374266
 10
123.744154917941
  20
107.550804374266
 10
109.744154917941
  20
107.550804374266
 10
109.744154917941
  20
106.550804374266
 10
108.944154917941
  20
106.550804374266
 10
108.944154917941
  20
103.050804374266
 10
109.744154917941
  20
103.050804374266
 10
109.744154917941
  20
98.0508043742657
 10
108.944154917941
  20
98.0508043742657
 10
108.944154917941
  20
94.5508043742657
 10
109.744154917941
  20
94.5508043742657
 10
109.744154917941
  20
93.5508043742657
 10
123.744154917941
  20
93.5508043742657
  0
LWPOLYLINE
  5
16B
100
AcDbEntity
  8
‰æ‘w0
100
AcDbPolyline
  6
BYLAYER
370
13
 90
     20
 70
     1
 10
142.794154917941
  20
94.5508043742657
 10
143.594154917941
  20
94.5508043742657
 10
143.594154917941
  20
98.0508043742657
 10
142.794154917941
  20
98.0508043742657
 10
142.794154917941
  20
103.050804374266
 10
143.594154917941
  20
103.050804374266
 10
143.594154917941
  20
106.550804374266
 10
142.794154917941
  20
106.550804374266
 10
142.794154917941
  20
107.550804374266
 10
128.794154917941
  20
107.550804374266
 10
128.794154917941
  20
106.550804374266
 10
127.994154917941
  20
106.550804374266
 10
127.994154917941
  20
103.050804374266
 10
128.794154917941
  20
103.050804374266
 10
128.794154917941
  20
98.0508043742657
 10
127.994154917941
  20
98.0508043742657
 10
127.994154917941
  20
94.5508043742657
 10
128.794154917941
  20
94.5508043742657
 10
128.794154917941
  20
93.5508043742657
 10
142.794154917941
  20
93.5508043742657
  0
LWPOLYLINE
  5
16C
100
AcDbEntity
  8
‰æ‘w0
100
AcDbPolyline
  6
BYLAYER
370
13
 90
     20
 70
     1
 10
161.844154917941
  20
94.5508043742657
 10
162.644154917941
  20
94.5508043742657
 10
162.644154917941
  20
98.0508043742657
 10
161.844154917941
  20
98.0508043742657
 10
161.844154917941
  20
103.050804374266
 10
162.644154917941
  20
103.050804374266
 10
162.644154917941
  20
106.550804374266
 10
161.844154917941
  20
106.550804374266
 10
161.844154917941
  20
107.550804374266
 10
147.844154917941
  20
107.550804374266
 10
147.844154917941
  20
106.550804374266
 10
147.044154917941
  20
106.550804374266
 10
147.044154917941
  20
103.050804374266
 10
147.844154917941
  20
103.050804374266
 10
147.844154917941
  20
98.0508043742657
 10
147.044154917941
  20
98.0508043742657
 10
147.044154917941
  20
94.5508043742657
 10
147.844154917941
  20
94.5508043742657
 10
147.844154917941
  20
93.5508043742657
 10
161.844154917941
  20
93.5508043742657
  0
LWPOLYLINE
  5
16D
100
AcDbEntity
  8
‰æ‘w0
100
AcDbPolyline
  6
BYLAYER
370
13
 90
     20
 70
     1
 10
47.5441549179409
  20
75.5008043742657
 10
48.3441549179409
  20
75.5008043742657
 10
48.3441549179409
  20
79.0008043742657
 10
47.5441549179409
  20
79.0008043742657
 10
47.5441549179409
  20
84.0008043742657
 10
48.3441549179409
  20
84.0008043742657
 10
48.3441549179409
  20
87.5008043742657
 10
47.5441549179409
  20
87.5008043742657
 10
47.5441549179409
  20
88.5008043742657
 10
33.5441549179409
  20
88.5008043742657
 10
33.5441549179409
  20
87.5008043742657
 10
32.7441549179409
  20
87.5008043742657
 10
32.7441549179409
  20
84.0008043742657
 10
33.5441549179409
  20
84.0008043742657
 10
33.5441549179409
  20
79.0008043742657
 10
32.7441549179409
  20
79.0008043742657
 10
32.7441549179409
  20
75.5008043742657
 10
33.5441549179409
  20
75.5008043742657
 10
33.5441549179409
  20
74.5008043742657
 10
47.5441549179409
  20
74.5008043742657
  0
LWPOLYLINE
  5
16E
100
AcDbEntity
  8
‰æ‘w0
100
AcDbPolyline
  6
BYLAYER
370
13
 90
     20
 70
     1
 10
66.5941549179412
  20
75.5008043742657
 10
67.3941549179412
  20
75.5008043742657
 10
67.3941549179412
  20
79.0008043742657
 10
66.5941549179412
  20
79.0008043742657
 10
66.5941549179412
  20
84.0008043742657
 10
67.3941549179412
  20
84.0008043742657
 10
67.3941549179412
  20
87.5008043742657
 10
66.5941549179412
  20
87.5008043742657
 10
66.5941549179412
  20
88.5008043742657
 10
52.5941549179409
  20
88.5008043742657
 10
52.5941549179409
  20
87.5008043742657
 10
51.7941549179409
  20
87.5008043742657
 10
51.7941549179409
  20
84.0008043742657
 10
52.5941549179409
  20
84.0008043742657
 10
52.5941549179409
  20
79.0008043742657
 10
51.7941549179409
  20
79.0008043742657
 10
51.7941549179409
  20
75.5008043742657
 10
52.5941549179409
  20
75.5008043742657
 10
52.5941549179409
  20
74.5008043742657
 10
66.5941549179412
  20
74.5008043742657
  0
LWPOLYLINE
  5
16F
100
AcDbEntity
  8
‰æ‘w0
100
AcDbPolyline
  6
BYLAYER
370
13
 90
     20
 70
     1
 10
85.6441549179412
  20
75.5008043742657
 10
86.4441549179412
  20
75.5008043742657
 10
86.4441549179412
  20
79.0008043742657
 10
85.6441549179412
  20
79.0008043742657
 10
85.6441549179412
  20
84.0008043742657
 10
86.4441549179412
  20
84.0008043742657
 10
86.4441549179412
  20
87.5008043742657
 10
85.6441549179412
  20
87.5008043742657
 10
85.6441549179412
  20
88.5008043742657
 10
71.6441549179412
  20
88.5008043742657
 10
71.6441549179412
  20
87.5008043742657
 10
70.8441549179412
  20
87.5008043742657
 10
70.8441549179412
  20
84.0008043742657
 10
71.6441549179412
  20
84.0008043742657
 10
71.6441549179412
  20
79.0008043742657
 10
70.8441549179412
  20
79.0008043742657
 10
70.8441549179412
  20
75.5008043742657
 10
71.6441549179412
  20
75.5008043742657
 10
71.6441549179412
  20
74.5008043742657
 10
85.6441549179412
  20
74.5008043742657
  0
LWPOLYLINE
  5
170
100
AcDbEntity
  8
‰æ‘w0
100
AcDbPolyline
  6
BYLAYER
370
13
 90
     20
 70
     1
 10
104.694154917941
  20
75.5008043742657
 10
105.494154917941
  20
75.5008043742657
 10
105.494154917941
  20
79.0008043742657
 10
104.694154917941
  20
79.0008043742657
 10
104.694154917941
  20
84.0008043742657
 10
105.494154917941
  20
84.0008043742657
 10
105.494154917941
  20
87.5008043742657
 10
104.694154917941
  20
87.5008043742657
 10
104.694154917941
  20
88.5008043742657
 10
90.6941549179412
  20
88.5008043742657
 10
90.6941549179412
  20
87.5008043742657
 10
89.8941549179412
  20
87.5008043742657
 10
89.8941549179412
  20
84.0008043742657
 10
90.6941549179412
  20
84.0008043742657
 10
90.6941549179412
  20
79.0008043742657
 10
89.8941549179412
  20
79.0008043742657
 10
89.8941549179412
  20
75.5008043742657
 10
90.6941549179412
  20
75.5008043742657
 10
90.6941549179412
  20
74.5008043742657
 10
104.694154917941
  20
74.5008043742657
  0
LWPOLYLINE
  5
171
100
AcDbEntity
  8
‰æ‘w0
100
AcDbPolyline
  6
BYLAYER
370
13
 90
     20
 70
     1
 10
123.744154917941
  20
75.5008043742657
 10
124.544154917941
  20
75.5008043742657
 10
124.544154917941
  20
79.0008043742657
 10
123.744154917941
  20
79.0008043742657
 10
123.744154917941
  20
84.0008043742657
 10
124.544154917941
  20
84.0008043742657
 10
124.544154917941
  20
87.5008043742657
 10
123.744154917941
  20
87.5008043742657
 10
123.744154917941
  20
88.5008043742657
 10
109.744154917941
  20
88.5008043742657
 10
109.744154917941
  20
87.5008043742657
 10
108.944154917941
  20
87.5008043742657
 10
108.944154917941
  20
84.0008043742657
 10
109.744154917941
  20
84.0008043742657
 10
109.744154917941
  20
79.0008043742657
 10
108.944154917941
  20
79.0008043742657
 10
108.944154917941
  20
75.5008043742657
 10
109.744154917941
  20
75.5008043742657
 10
109.744154917941
  20
74.5008043742657
 10
123.744154917941
  20
74.5008043742657
  0
LWPOLYLINE
  5
172
100
AcDbEntity
  8
‰æ‘w0
100
AcDbPolyline
  6
BYLAYER
370
13
 90
     20
 70
     1
 10
142.794154917941
  20
75.5008043742657
 10
143.594154917941
  20
75.5008043742657
 10
143.594154917941
  20
79.0008043742657
 10
142.794154917941
  20
79.0008043742657
 10
142.794154917941
  20
84.0008043742657
 10
143.594154917941
  20
84.0008043742657
 10
143.594154917941
  20
87.5008043742657
 10
142.794154917941
  20
87.5008043742657
 10
142.794154917941
  20
88.5008043742657
 10
128.794154917941
  20
88.5008043742657
 10
128.794154917941
  20
87.5008043742657
 10
127.994154917941
  20
87.5008043742657
 10
127.994154917941
  20
84.0008043742657
 10
128.794154917941
  20
84.0008043742657
 10
128.794154917941
  20
79.0008043742657
 10
127.994154917941
  20
79.0008043742657
 10
127.994154917941
  20
75.5008043742657
 10
128.794154917941
  20
75.5008043742657
 10
128.794154917941
  20
74.5008043742657
 10
142.794154917941
  20
74.5008043742657
  0
LWPOLYLINE
  5
173
100
AcDbEntity
  8
‰æ‘w0
100
AcDbPolyline
  6
BYLAYER
370
13
 90
     20
 70
     1
 10
161.844154917941
  20
75.5008043742657
 10
162.644154917941
  20
75.5008043742657
 10
162.644154917941
  20
79.0008043742657
 10
161.844154917941
  20
79.0008043742657
 10
161.844154917941
  20
84.0008043742657
 10
162.644154917941
  20
84.0008043742657
 10
162.644154917941
  20
87.5008043742657
 10
161.844154917941
  20
87.5008043742657
 10
161.844154917941
  20
88.5008043742657
 10
147.844154917941
  20
88.5008043742657
 10
147.844154917941
  20
87.5008043742657
 10
147.044154917941
  20
87.5008043742657
 10
147.044154917941
  20
84.0008043742657
 10
147.844154917941
  20
84.0008043742657
 10
147.844154917941
  20
79.0008043742657
 10
147.044154917941
  20
79.0008043742657
 10
147.044154917941
  20
75.5008043742657
 10
147.844154917941
  20
75.5008043742657
 10
147.844154917941
  20
74.5008043742657
 10
161.844154917941
  20
74.5008043742657
  0
LWPOLYLINE
  5
174
100
AcDbEntity
  8
‰æ‘w0
100
AcDbPolyline
  6
BYLAYER
370
13
 90
     20
 70
     1
 10
47.5441549179409
  20
56.4508043742657
 10
48.3441549179409
  20
56.4508043742657
 10
48.3441549179409
  20
59.9508043742657
 10
47.5441549179409
  20
59.9508043742657
 10
47.5441549179409
  20
64.9508043742657
 10
48.3441549179409
  20
64.9508043742657
 10
48.3441549179409
  20
68.4508043742657
 10
47.5441549179409
  20
68.4508043742657
 10
47.5441549179409
  20
69.4508043742657
 10
33.5441549179409
  20
69.4508043742657
 10
33.5441549179409
  20
68.4508043742657
 10
32.7441549179409
  20
68.4508043742657
 10
32.7441549179409
  20
64.9508043742657
 10
33.5441549179409
  20
64.9508043742657
 10
33.5441549179409
  20
59.9508043742657
 10
32.7441549179409
  20
59.9508043742657
 10
32.7441549179409
  20
56.4508043742657
 10
33.5441549179409
  20
56.4508043742657
 10
33.5441549179409
  20
55.4508043742657
 10
47.5441549179409
  20
55.4508043742657
  0
LWPOLYLINE
  5
175
100
AcDbEntity
  8
‰æ‘w0
100
AcDbPolyline
  6
BYLAYER
370
13
 90
     20
 70
     1
 10
66.5941549179412
  20
56.4508043742657
 10
67.3941549179412
  20
56.4508043742657
 10
67.3941549179412
  20
59.9508043742657
 10
66.5941549179412
  20
59.9508043742657
 10
66.5941549179412
  20
64.9508043742657
 10
67.3941549179412
  20
64.9508043742657
 10
67.3941549179412
  20
68.4508043742657
 10
66.5941549179412
  20
68.4508043742657
 10
66.5941549179412
  20
69.4508043742657
 10
52.5941549179409
  20
69.4508043742657
 10
52.5941549179409
  20
68.4508043742657
 10
51.7941549179409
  20
68.4508043742657
 10
51.7941549179409
  20
64.9508043742657
 10
52.5941549179409
  20
64.9508043742657
 10
52.5941549179409
  20
59.9508043742657
 10
51.7941549179409
  20
59.9508043742657
 10
51.7941549179409
  20
56.4508043742657
 10
52.5941549179409
  20
56.4508043742657
 10
52.5941549179409
  20
55.4508043742657
 10
66.5941549179412
  20
55.4508043742657
  0
LWPOLYLINE
  5
176
100
AcDbEntity
  8
‰æ‘w0
100
AcDbPolyline
  6
BYLAYER
370
13
 90
     20
 70
     1
 10
85.6441549179412
  20
56.4508043742657
 10
86.4441549179412
  20
56.4508043742657
 10
86.4441549179412
  20
59.9508043742657
 10
85.6441549179412
  20
59.9508043742657
 10
85.6441549179412
  20
64.9508043742657
 10
86.4441549179412
  20
64.9508043742657
 10
86.4441549179412
  20
68.4508043742657
 10
85.6441549179412
  20
68.4508043742657
 10
85.6441549179412
  20
69.4508043742657
 10
71.6441549179412
  20
69.4508043742657
 10
71.6441549179412
  20
68.4508043742657
 10
70.8441549179412
  20
68.4508043742657
 10
70.8441549179412
  20
64.9508043742657
 10
71.6441549179412
  20
64.9508043742657
 10
71.6441549179412
  20
59.9508043742657
 10
70.8441549179412
  20
59.9508043742657
 10
70.8441549179412
  20
56.4508043742657
 10
71.6441549179412
  20
56.4508043742657
 10
71.6441549179412
  20
55.4508043742657
 10
85.6441549179412
  20
55.4508043742657
  0
LWPOLYLINE
  5
177
100
AcDbEntity
  8
‰æ‘w0
100
AcDbPolyline
  6
BYLAYER
370
13
 90
     20
 70
     1
 10
104.694154917941
  20
56.4508043742657
 10
105.494154917941
  20
56.4508043742657
 10
105.494154917941
  20
59.9508043742657
 10
104.694154917941
  20
59.9508043742657
 10
104.694154917941
  20
64.9508043742657
 10
105.494154917941
  20
64.9508043742657
 10
105.494154917941
  20
68.4508043742657
 10
104.694154917941
  20
68.4508043742657
 10
104.694154917941
  20
69.4508043742657
 10
90.6941549179412
  20
69.4508043742657
 10
90.6941549179412
  20
68.4508043742657
 10
89.8941549179412
  20
68.4508043742657
 10
89.8941549179412
  20
64.9508043742657
 10
90.6941549179412
  20
64.9508043742657
 10
90.6941549179412
  20
59.9508043742657
 10
89.8941549179412
  20
59.9508043742657
 10
89.8941549179412
  20
56.4508043742657
 10
90.6941549179412
  20
56.4508043742657
 10
90.6941549179412
  20
55.4508043742657
 10
104.694154917941
  20
55.4508043742657
  0
LWPOLYLINE
  5
178
100
AcDbEntity
  8
‰æ‘w0
100
AcDbPolyline
  6
BYLAYER
370
13
 90
     20
 70
     1
 10
123.744154917941
  20
56.4508043742657
 10
124.544154917941
  20
56.4508043742657
 10
124.544154917941
  20
59.9508043742657
 10
123.744154917941
  20
59.9508043742657
 10
123.744154917941
  20
64.9508043742657
 10
124.544154917941
  20
64.9508043742657
 10
124.544154917941
  20
68.4508043742657
 10
123.744154917941
  20
68.4508043742657
 10
123.744154917941
  20
69.4508043742657
 10
109.744154917941
  20
69.4508043742657
 10
109.744154917941
  20
68.4508043742657
 10
108.944154917941
  20
68.4508043742657
 10
108.944154917941
  20
64.9508043742657
 10
109.744154917941
  20
64.9508043742657
 10
109.744154917941
  20
59.9508043742657
 10
108.944154917941
  20
59.9508043742657
 10
108.944154917941
  20
56.4508043742657
 10
109.744154917941
  20
56.4508043742657
 10
109.744154917941
  20
55.4508043742657
 10
123.744154917941
  20
55.4508043742657
  0
LWPOLYLINE
  5
179
100
AcDbEntity
  8
‰æ‘w0
100
AcDbPolyline
  6
BYLAYER
370
13
 90
     20
 70
     1
 10
142.794154917941
  20
56.4508043742657
 10
143.594154917941
  20
56.4508043742657
 10
143.594154917941
  20
59.9508043742657
 10
142.794154917941
  20
59.9508043742657
 10
142.794154917941
  20
64.9508043742657
 10
143.594154917941
  20
64.9508043742657
 10
143.594154917941
  20
68.4508043742657
 10
142.794154917941
  20
68.4508043742657
 10
142.794154917941
  20
69.4508043742657
 10
128.794154917941
  20
69.4508043742657
 10
128.794154917941
  20
68.4508043742657
 10
127.994154917941
  20
68.4508043742657
 10
127.994154917941
  20
64.9508043742657
 10
128.794154917941
  20
64.9508043742657
 10
128.794154917941
  20
59.9508043742657
 10
127.994154917941
  20
59.9508043742657
 10
127.994154917941
  20
56.4508043742657
 10
128.794154917941
  20
56.4508043742657
 10
128.794154917941
  20
55.4508043742657
 10
142.794154917941
  20
55.4508043742657
  0
LWPOLYLINE
  5
17A
100
AcDbEntity
  8
‰æ‘w0
100
AcDbPolyline
  6
BYLAYER
370
13
 90
     20
 70
     1
 10
118.982154917941
  20
37.4008043742656
 10
119.782154917941
  20
37.4008043742656
 10
119.782154917941
  20
40.9008043742656
 10
118.982154917941
  20
40.9008043742656
 10
118.982154917941
  20
45.9008043742656
 10
119.782154917941
  20
45.9008043742656
 10
119.782154917941
  20
49.4008043742656
 10
118.982154917941
  20
49.4008043742656
 10
118.982154917941
  20
50.4008043742656
 10
104.982154917941
  20
50.4008043742656
 10
104.982154917941
  20
49.4008043742656
 10
104.182154917941
  20
49.4008043742656
 10
104.182154917941
  20
45.9008043742656
 10
104.982154917941
  20
45.9008043742656
 10
104.982154917941
  20
40.9008043742656
 10
104.182154917941
  20
40.9008043742656
 10
104.182154917941
  20
37.4008043742656
 10
104.982154917941
  20
37.4008043742656
 10
104.982154917941
  20
36.4008043742656
 10
118.982154917941
  20
36.4008043742656
  0
LWPOLYLINE
  5
17B
100
AcDbEntity
  8
‰æ‘w0
100
AcDbPolyline
  6
BYLAYER
370
13
 90
     20
 70
     1
 10
138.414454917941
  20
33.3595043742655
 10
139.187154917941
  20
33.1524043742655
 10
140.093054917941
  20
36.5332043742655
 10
139.320354917941
  20
36.7402043742656
 10
140.614454917941
  20
41.5699043742655
 10
141.387154917941
  20
41.3628043742655
 10
142.293054917941
  20
44.7435043742656
 10
141.520254917941
  20
44.9506043742656
 10
141.779054917941
  20
45.9165043742656
 10
128.256154917941
  20
49.5400043742655
 10
127.997354917941
  20
48.5741043742656
 10
127.224554917941
  20
48.7811043742656
 10
126.318754917941
  20
45.4004043742655
 10
127.091454917941
  20
45.1933043742655
 10
125.797354917941
  20
40.3637043742655
 10
125.024654917941
  20
40.5707043742656
 10
124.118754917941
  20
37.1900043742655
 10
124.891454917941
  20
36.9830043742656
 10
124.632654917941
  20
36.0170043742655
 10
138.155654917941
  20
32.3936043742655
  0
LINE
  5
17C
100
AcDbEntity
  8
‰æ‘w0
100
AcDbLine
  6
CONTINUOUS
370
13
 10
102.457154917941
 20
33.8758043742655
 11
92.9321549179412
 21
43.4008043742656
  0
LINE
  5
17D
100
AcDbEntity
  8
‰æ‘w0
100
AcDbLine
  6
CONTINUOUS
370
13
 10
69.1191549179412
 20
33.8708043742656
 11
78.6491549179412
 21
43.4008043742656
  0
LINE
  5
17E
100
AcDbEntity
  8
‰æ‘w0
100
AcDbLine
  6
CONTINUOUS
370
13
 10
78.6491549179412
 20
43.4008043742656
 11
92.9321549179412
 21
43.4008043742656
  0
LINE
  5
17F
100
AcDbEntity
  8
‰æ‘w0
100
AcDbLine
  6
CONTINUOUS
370
13
 10
102.457154917941
 20
33.8758043742655
 11
122.886670165566
 21
33.8708043742656
  0
LINE
  5
180
100
AcDbEntity
  8
‰æ‘w0
100
AcDbLine
  6
CONTINUOUS
370
13
 10
122.886670165566
 20
33.8708043742656
 11
148.635010173038
 21
24.0544093691766
  0
LINE
  5
181
100
AcDbEntity
  8
‰æ‘w0
100
AcDbLine
  6
CONTINUOUS
370
13
 10
33.5441549179409
 20
41.9008043742656
 11
33.5441549179409
 21
44.9008043742656
  0
LINE
  5
182
100
AcDbEntity
  8
‰æ‘w0
100
AcDbLine
  6
CONTINUOUS
370
13
 10
66.5941549179412
 20
41.9008043742656
 11
66.5941549179412
 21
44.9008043742656
  0
LINE
  5
183
100
AcDbEntity
  8
‰æ‘w0
100
AcDbLine
  6
CONTINUOUS
370
13
 10
164.374154917941
 20
69.8574220016347
 11
164.374154917941
 21
129.130804374266
  0
LINE
  5
184
100
AcDbEntity
  8
‰æ‘w0
100
AcDbLine
  6
CONTINUOUS
370
13
 10
27.0141549179409
 20
129.130804374266
 11
27.0141549179409
 21
33.8708043742656
  0
LINE
  5
185
100
AcDbEntity
  8
‰æ‘w0
100
AcDbLine
  6
CONTINUOUS
370
13
 10
27.0141549179409
 20
33.8708043742656
 11
69.1191549179412
 21
33.8708043742656
  0
LINE
  5
186
100
AcDbEntity
  8
‰æ‘w0
100
AcDbLine
  6
CONTINUOUS
370
13
 10
148.632500562995
 20
24.0500626170265
 11
176.843264018372
 21
7.76257074201958
  0
LINE
  5
187
100
AcDbEntity
  8
‰æ‘w0
100
AcDbLine
  6
CONTINUOUS
370
13
 10
176.843264018372
 20
7.76257074201958
 11
195.898296196181
 21
40.7668546138456
  0
LINE
  5
188
100
AcDbEntity
  8
‰æ‘w0
100
AcDbLine
  6
CONTINUOUS
370
13
 10
66.5941549179412
 20
44.9008043742656
 11
66.5941549179412
 21
45.9008043742656
  0
LINE
  5
189
100
AcDbEntity
  8
‰æ‘w0
100
AcDbLine
  6
CONTINUOUS
370
13
 10
66.5941549179412
 20
41.9008043742656
 11
66.5941549179412
 21
40.9008043742656
  0
LINE
  5
18A
100
AcDbEntity
  8
‰æ‘w0
100
AcDbLine
  6
CONTINUOUS
370
13
 10
33.5441549179409
 20
40.9008043742656
 11
33.5441549179409
 21
41.9008043742656
  0
LINE
  5
18B
100
AcDbEntity
  8
‰æ‘w0
100
AcDbLine
  6
CONTINUOUS
370
13
 10
33.5441549179409
 20
44.9008043742656
 11
33.5441549179409
 21
45.9008043742656
  0
LINE
  5
18C
100
AcDbEntity
  8
‰æ‘w0
100
AcDbLine
  6
CONTINUOUS
370
13
 10
191.374154917941
 20
57.8574220016347
 11
191.374154917941
 21
48.7245442871166
  0
LINE
  5
18D
100
AcDbEntity
  8
‰æ‘w0
100
AcDbLine
  6
CONTINUOUS
370
13
 10
166.286416055316
 20
57.8574220016347
 11
191.374154917941
 21
57.8574220016347
  0
LINE
  5
18E
100
AcDbEntity
  8
‰æ‘w0
100
AcDbLine
  6
CONTINUOUS
370
13
 10
191.374154917941
 20
48.7245442871166
 11
195.898296196181
 21
40.7668546138456
  0
LWPOLYLINE
  5
18F
100
AcDbEntity
  8
‰æ‘w0
100
AcDbPolyline
  6
CONTINUOUS
370
13
 90
     4
 70
     1
 10
162.344154917941
  20
69.6798730536037
 10
147.344154917941
  20
69.6798730536037
 10
147.344154917941
  20
58.6798730536037
 10
162.344154917941
  20
58.6798730536037
  0
LINE
  5
190
100
AcDbEntity
  8
‰æ‘w0
100
AcDbLine
  6
CONTINUOUS
370
13
 10
164.374154917941
 20
69.8574220016347
 11
164.374154917941
 21
59.3574220016347
  0
LINE
  5
191
100
AcDbEntity
  8
‰æ‘w0
100
AcDbLine
  6
BYLAYER
370
13
 10
160.055331446396
 20
57.8350103057157
 11
160.921356850181
 21
57.3350103057157
  0
LINE
  5
192
100
AcDbEntity
  8
‰æ‘w0
100
AcDbLine
  6
BYLAYER
370
13
 10
160.921356850181
 20
57.3350103057157
 11
161.321356850181
 21
58.0278306287437
  0
LINE
  5
193
100
AcDbEntity
  8
‰æ‘w0
100
AcDbLine
  6
BYLAYER
370
13
 10
161.321356850181
 20
58.0278306287437
 11
164.352445763426
 21
56.2778306287437
  0
LINE
  5
194
100
AcDbEntity
  8
‰æ‘w0
100
AcDbLine
  6
BYLAYER
370
13
 10
164.352445763426
 20
56.2778306287437
 11
163.952445763426
 21
55.5850103057157
  0
LINE
  5
195
100
AcDbEntity
  8
‰æ‘w0
100
AcDbLine
  6
BYLAYER
370
13
 10
168.282572782348
 20
53.0850103057157
 11
168.682572782349
 21
53.7778306287437
  0
LINE
  5
196
100
AcDbEntity
  8
‰æ‘w0
100
AcDbLine
  6
BYLAYER
370
13
 10
168.682572782349
 20
53.7778306287437
 11
171.713661695594
 21
52.0278306287436
  0
LINE
  5
197
100
AcDbEntity
  8
‰æ‘w0
100
AcDbLine
  6
BYLAYER
370
13
 10
171.713661695594
 20
52.0278306287436
 11
171.313661695594
 21
51.3350103057156
  0
LINE
  5
198
100
AcDbEntity
  8
‰æ‘w0
100
AcDbLine
  6
BYLAYER
370
13
 10
171.313661695594
 20
51.3350103057156
 11
172.179687099378
 21
50.8350103057156
  0
LINE
  5
199
100
AcDbEntity
  8
‰æ‘w0
100
AcDbLine
  6
BYLAYER
370
13
 10
154.788661695594
 20
22.7128707106395
 11
154.388661695594
 21
22.0200503876126
  0
LINE
  5
19A
100
AcDbEntity
  8
‰æ‘w0
100
AcDbLine
  6
BYLAYER
370
13
 10
154.388661695594
 20
22.0200503876126
 11
151.357572782349
 21
23.7700503876126
  0
LINE
  5
19B
100
AcDbEntity
  8
‰æ‘w0
100
AcDbLine
  6
BYLAYER
370
13
 10
151.357572782349
 20
23.7700503876126
 11
151.757572782349
 21
24.4628707106395
  0
LINE
  5
19C
100
AcDbEntity
  8
‰æ‘w0
100
AcDbLine
  6
BYLAYER
370
13
 10
147.427445763426
 20
26.9628707106395
 11
147.027445763426
 21
26.2700503876126
  0
LINE
  5
19D
100
AcDbEntity
  8
‰æ‘w0
100
AcDbLine
  6
BYLAYER
370
13
 10
147.027445763426
 20
26.2700503876126
 11
143.996356850181
 21
28.0200503876126
  0
LINE
  5
19E
100
AcDbEntity
  8
‰æ‘w0
100
AcDbLine
  6
BYLAYER
370
13
 10
143.996356850181
 20
28.0200503876126
 11
144.396356850181
 21
28.7128707106395
  0
LINE
  5
19F
100
AcDbEntity
  8
‰æ‘w0
100
AcDbLine
  6
BYLAYER
370
13
 10
144.396356850181
 20
28.7128707106395
 11
143.530331446396
 21
29.2128707106395
  0
LINE
  5
1A0
100
AcDbEntity
  8
‰æ‘w0
100
AcDbLine
  6
BYLAYER
370
13
 10
155.654687099379
 20
22.2128707106395
 11
154.788661695594
 21
22.7128707106395
  0
LINE
  5
1A1
100
AcDbEntity
  8
‰æ‘w0
100
AcDbLine
  6
CONTINUOUS
370
13
 10
160.055331446396
 20
57.8350103057157
 11
143.530331446396
 21
29.2128707106395
  0
LINE
  5
1A2
100
AcDbEntity
  8
‰æ‘w0
100
AcDbLine
  6
CONTINUOUS
370
13
 10
172.179687099378
 20
50.8350103057156
 11
155.654687099379
 21
22.2128707106395
  0
LINE
  5
1A3
100
AcDbEntity
  8
‰æ‘w0
100
AcDbLine
  6
CONTINUOUS
370
13
 10
148.293471167211
 20
26.4628707106395
 11
147.427445763426
 21
26.9628707106395
  0
LINE
  5
1A4
100
AcDbEntity
  8
‰æ‘w0
100
AcDbLine
  6
CONTINUOUS
370
13
 10
150.891547378564
 20
24.9628707106395
 11
151.757572782349
 21
24.4628707106395
  0
LINE
  5
1A5
100
AcDbEntity
  8
‰æ‘w0
100
AcDbLine
  6
CONTINUOUS
370
13
 10
168.282572782348
 20
53.0850103057157
 11
167.416547378564
 21
53.5850103057157
  0
LINE
  5
1A6
100
AcDbEntity
  8
‰æ‘w0
100
AcDbLine
  6
CONTINUOUS
370
13
 10
164.818471167211
 20
55.0850103057157
 11
163.952445763426
 21
55.5850103057157
  0
LINE
  5
1A7
100
AcDbEntity
  8
‰æ‘w0
100
AcDbLine
  6
CONTINUOUS
370
13
 10
167.416547378564
 20
53.5850103057157
 11
164.818471167211
 21
55.0850103057157
  0
LINE
  5
1A8
100
AcDbEntity
  8
‰æ‘w0
100
AcDbLine
  6
CONTINUOUS
370
13
 10
150.891547378564
 20
24.9628707106395
 11
148.293471167211
 21
26.4628707106395
  0
LINE
  5
1A9
100
AcDbEntity
  8
‰æ‘w0
100
AcDbLine
  6
CONTINUOUS
370
13
 10
148.29347116721
 20
26.4628707106406
 11
147.427445763426
 21
26.9628707106406
  0
LINE
  5
1AA
100
AcDbEntity
  8
‰æ‘w0
100
AcDbLine
  6
CONTINUOUS
370
13
 10
150.891547378564
 20
24.9628707106406
 11
151.757572782348
 21
24.4628707106406
  0
LINE
  5
1AB
100
AcDbEntity
  8
‰æ‘w0
100
AcDbLine
  6
CONTINUOUS
370
13
 10
168.282572782348
 20
53.0850103057157
 11
167.416547378564
 21
53.5850103057157
  0
LINE
  5
1AC
100
AcDbEntity
  8
‰æ‘w0
100
AcDbLine
  6
CONTINUOUS
370
13
 10
164.81847116721
 20
55.0850103057157
 11
163.952445763426
 21
55.5850103057157
  0
LINE
  5
1AD
100
AcDbEntity
  8
‰æ‘w0
100
AcDbLine
  6
CONTINUOUS
370
13
 10
166.286416055316
 20
57.8574220016347
 11
164.374154917941
 21
58.9614664840587
  0
LINE
  5
1AE
100
AcDbEntity
  8
‰æ‘w0
100
AcDbLine
  6
CONTINUOUS
370
13
 10
164.374154917941
 20
59.3574220016347
 11
164.374154917941
 21
58.9614664840587
  0
LINE
  5
1AF
100
AcDbEntity
  8
‰æ‘w0
100
AcDbLine
  6
CONTINUOUS
370
13
 10
160.33310713894
 20
20.2161041252686
 11
161.199132542724
 21
19.7161041252686
  0
LINE
  5
1B0
100
AcDbEntity
  8
‰æ‘w0
100
AcDbLine
  6
CONTINUOUS
370
13
 10
161.199132542724
 20
19.7161041252686
 11
160.799132542724
 21
19.0232838022406
  0
LINE
  5
1B1
100
AcDbEntity
  8
‰æ‘w0
100
AcDbLine
  6
CONTINUOUS
370
13
 10
160.799132542724
 20
19.0232838022406
 11
163.83022145597
 21
17.2732838022406
  0
LINE
  5
1B2
100
AcDbEntity
  8
‰æ‘w0
100
AcDbLine
  6
CONTINUOUS
370
13
 10
163.83022145597
 20
17.2732838022406
 11
164.23022145597
 21
17.9661041252686
  0
LINE
  5
1B3
100
AcDbEntity
  8
‰æ‘w0
100
AcDbLine
  6
CONTINUOUS
370
13
 10
168.560348474892
 20
15.4661041252686
 11
168.160348474892
 21
14.7732838022406
  0
LINE
  5
1B4
100
AcDbEntity
  8
‰æ‘w0
100
AcDbLine
  6
CONTINUOUS
370
13
 10
168.160348474892
 20
14.7732838022406
 11
171.191437388138
 21
13.0232838022406
  0
LINE
  5
1B5
100
AcDbEntity
  8
‰æ‘w0
100
AcDbLine
  6
CONTINUOUS
370
13
 10
171.191437388138
 20
13.0232838022406
 11
171.591437388138
 21
13.7161041252686
  0
LINE
  5
1B6
100
AcDbEntity
  8
‰æ‘w0
100
AcDbLine
  6
CONTINUOUS
370
13
 10
171.591437388138
 20
13.7161041252686
 11
172.457462791922
 21
13.2161041252686
  0
LINE
  5
1B7
100
AcDbEntity
  8
‰æ‘w0
100
AcDbLine
  6
CONTINUOUS
370
13
 10
188.116437388138
 20
42.3382437203436
 11
188.516437388138
 21
43.0310640433716
  0
LINE
  5
1B8
100
AcDbEntity
  8
‰æ‘w0
100
AcDbLine
  6
CONTINUOUS
370
13
 10
188.516437388138
 20
43.0310640433716
 11
185.485348474892
 21
44.7810640433716
  0
LINE
  5
1B9
100
AcDbEntity
  8
‰æ‘w0
100
AcDbLine
  6
CONTINUOUS
370
13
 10
185.485348474892
 20
44.7810640433716
 11
185.085348474892
 21
44.0882437203436
  0
LINE
  5
1BA
100
AcDbEntity
  8
‰æ‘w0
100
AcDbLine
  6
CONTINUOUS
370
13
 10
180.75522145597
 20
46.5882437203436
 11
181.15522145597
 21
47.2810640433716
  0
LINE
  5
1BB
100
AcDbEntity
  8
‰æ‘w0
100
AcDbLine
  6
CONTINUOUS
370
13
 10
181.15522145597
 20
47.2810640433716
 11
178.124132542724
 21
49.0310640433716
  0
LINE
  5
1BC
100
AcDbEntity
  8
‰æ‘w0
100
AcDbLine
  6
CONTINUOUS
370
13
 10
178.124132542724
 20
49.0310640433716
 11
177.724132542724
 21
48.3382437203436
  0
LINE
  5
1BD
100
AcDbEntity
  8
‰æ‘w0
100
AcDbLine
  6
CONTINUOUS
370
13
 10
177.724132542724
 20
48.3382437203436
 11
176.85810713894
 21
48.8382437203436
  0
LINE
  5
1BE
100
AcDbEntity
  8
‰æ‘w0
100
AcDbLine
  6
CONTINUOUS
370
13
 10
188.982462791922
 20
41.8382437203436
 11
188.116437388138
 21
42.3382437203436
  0
LINE
  5
1BF
100
AcDbEntity
  8
‰æ‘w0
100
AcDbLine
  6
CONTINUOUS
370
13
 10
181.621246859754
 20
46.0882437203436
 11
180.75522145597
 21
46.5882437203436
  0
LINE
  5
1C0
100
AcDbEntity
  8
‰æ‘w0
100
AcDbLine
  6
CONTINUOUS
370
13
 10
184.219323071108
 20
44.5882437203436
 11
185.085348474892
 21
44.0882437203436
  0
LINE
  5
1C1
100
AcDbEntity
  8
‰æ‘w0
100
AcDbLine
  6
CONTINUOUS
370
13
 10
168.560348474892
 20
15.4661041252686
 11
167.694323071108
 21
15.9661041252686
  0
LINE
  5
1C2
100
AcDbEntity
  8
‰æ‘w0
100
AcDbLine
  6
CONTINUOUS
370
13
 10
165.096246859754
 20
17.4661041252686
 11
164.23022145597
 21
17.9661041252686
  0
LINE
  5
1C3
100
AcDbEntity
  8
‰æ‘w0
100
AcDbLine
  6
CONTINUOUS
370
13
 10
167.694323071108
 20
15.9661041252686
 11
165.096246859754
 21
17.4661041252686
  0
LINE
  5
1C4
100
AcDbEntity
  8
‰æ‘w0
100
AcDbLine
  6
CONTINUOUS
370
13
 10
184.219323071108
 20
44.5882437203436
 11
181.621246859754
 21
46.0882437203436
  0
LINE
  5
1C5
100
AcDbEntity
  8
‰æ‘w0
100
AcDbLine
  6
CONTINUOUS
370
13
 10
181.621246859754
 20
46.0882437203446
 11
180.75522145597
 21
46.5882437203446
  0
LINE
  5
1C6
100
AcDbEntity
  8
‰æ‘w0
100
AcDbLine
  6
CONTINUOUS
370
13
 10
184.219323071107
 20
44.5882437203446
 11
185.085348474892
 21
44.0882437203446
  0
LINE
  5
1C7
100
AcDbEntity
  8
‰æ‘w0
100
AcDbLine
  6
CONTINUOUS
370
13
 10
168.560348474892
 20
15.4661041252686
 11
167.694323071107
 21
15.9661041252686
  0
LINE
  5
1C8
100
AcDbEntity
  8
‰æ‘w0
100
AcDbLine
  6
CONTINUOUS
370
13
 10
165.096246859754
 20
17.4661041252686
 11
164.23022145597
 21
17.9661041252686
  0
LINE
  5
1C9
100
AcDbEntity
  8
‰æ‘w0
100
AcDbLine
  6
BYLAYER
370
13
 10
167.333107138938
 20
32.3404597782515
 11
168.199132542723
 21
31.8404597782515
  0
LINE
  5
1CA
100
AcDbEntity
  8
‰æ‘w0
100
AcDbLine
  6
BYLAYER
370
13
 10
168.199132542723
 20
31.8404597782515
 11
168.599132542723
 21
32.5332801012795
  0
LINE
  5
1CB
100
AcDbEntity
  8
‰æ‘w0
100
AcDbLine
  6
BYLAYER
370
13
 10
168.599132542723
 20
32.5332801012795
 11
171.630221455968
 21
30.7832801012795
  0
LINE
  5
1CC
100
AcDbEntity
  8
‰æ‘w0
100
AcDbLine
  6
BYLAYER
370
13
 10
171.630221455968
 20
30.7832801012795
 11
171.230221455968
 21
30.0904597782515
  0
LINE
  5
1CD
100
AcDbEntity
  8
‰æ‘w0
100
AcDbLine
  6
BYLAYER
370
13
 10
175.56034847489
 20
27.5904597782515
 11
175.960348474891
 21
28.2832801012795
  0
LINE
  5
1CE
100
AcDbEntity
  8
‰æ‘w0
100
AcDbLine
  6
BYLAYER
370
13
 10
175.960348474891
 20
28.2832801012795
 11
178.991437388136
 21
26.5332801012794
  0
LINE
  5
1CF
100
AcDbEntity
  8
‰æ‘w0
100
AcDbLine
  6
BYLAYER
370
13
 10
178.991437388136
 20
26.5332801012794
 11
178.591437388136
 21
25.8404597782514
  0
LINE
  5
1D0
100
AcDbEntity
  8
‰æ‘w0
100
AcDbLine
  6
BYLAYER
370
13
 10
178.591437388136
 20
25.8404597782514
 11
179.45746279192
 21
25.3404597782514
  0
LINE
  5
1D1
100
AcDbEntity
  8
‰æ‘w0
100
AcDbLine
  6
CONTINUOUS
370
13
 10
175.56034847489
 20
27.5904597782515
 11
174.694323071106
 21
28.0904597782515
  0
LINE
  5
1D2
100
AcDbEntity
  8
‰æ‘w0
100
AcDbLine
  6
CONTINUOUS
370
13
 10
172.096246859753
 20
29.5904597782515
 11
171.230221455968
 21
30.0904597782515
  0
LINE
  5
1D3
100
AcDbEntity
  8
‰æ‘w0
100
AcDbLine
  6
CONTINUOUS
370
13
 10
174.694323071106
 20
28.0904597782515
 11
172.096246859753
 21
29.5904597782515
  0
LINE
  5
1D4
100
AcDbEntity
  8
‰æ‘w0
100
AcDbLine
  6
CONTINUOUS
370
13
 10
175.56034847489
 20
27.5904597782515
 11
174.694323071106
 21
28.0904597782515
  0
LINE
  5
1D5
100
AcDbEntity
  8
‰æ‘w0
100
AcDbLine
  6
CONTINUOUS
370
13
 10
172.096246859752
 20
29.5904597782515
 11
171.230221455968
 21
30.0904597782515
  0
LINE
  5
1D6
100
AcDbEntity
  8
‰æ‘w0
100
AcDbLine
  6
BYLAYER
370
13
 10
181.982462791924
 20
29.7138880673606
 11
181.116437388139
 21
30.2138880673606
  0
LINE
  5
1D7
100
AcDbEntity
  8
‰æ‘w0
100
AcDbLine
  6
BYLAYER
370
13
 10
181.116437388139
 20
30.2138880673606
 11
180.716437388139
 21
29.5210677443326
  0
LINE
  5
1D8
100
AcDbEntity
  8
‰æ‘w0
100
AcDbLine
  6
BYLAYER
370
13
 10
180.716437388139
 20
29.5210677443326
 11
177.685348474894
 21
31.2710677443326
  0
LINE
  5
1D9
100
AcDbEntity
  8
‰æ‘w0
100
AcDbLine
  6
BYLAYER
370
13
 10
177.685348474894
 20
31.2710677443326
 11
178.085348474894
 21
31.9638880673606
  0
LINE
  5
1DA
100
AcDbEntity
  8
‰æ‘w0
100
AcDbLine
  6
BYLAYER
370
13
 10
173.755221455972
 20
34.4638880673606
 11
173.355221455971
 21
33.7710677443326
  0
LINE
  5
1DB
100
AcDbEntity
  8
‰æ‘w0
100
AcDbLine
  6
BYLAYER
370
13
 10
173.355221455971
 20
33.7710677443326
 11
170.324132542726
 21
35.5210677443327
  0
LINE
  5
1DC
100
AcDbEntity
  8
‰æ‘w0
100
AcDbLine
  6
BYLAYER
370
13
 10
170.324132542726
 20
35.5210677443327
 11
170.724132542726
 21
36.2138880673607
  0
LINE
  5
1DD
100
AcDbEntity
  8
‰æ‘w0
100
AcDbLine
  6
BYLAYER
370
13
 10
170.724132542726
 20
36.2138880673607
 11
169.858107138942
 21
36.7138880673607
  0
LINE
  5
1DE
100
AcDbEntity
  8
‰æ‘w0
100
AcDbLine
  6
CONTINUOUS
370
13
 10
173.755221455972
 20
34.4638880673606
 11
174.621246859756
 21
33.9638880673606
  0
LINE
  5
1DF
100
AcDbEntity
  8
‰æ‘w0
100
AcDbLine
  6
CONTINUOUS
370
13
 10
177.219323071109
 20
32.4638880673606
 11
178.085348474894
 21
31.9638880673606
  0
LINE
  5
1E0
100
AcDbEntity
  8
‰æ‘w0
100
AcDbLine
  6
CONTINUOUS
370
13
 10
174.621246859756
 20
33.9638880673606
 11
177.219323071109
 21
32.4638880673606
  0
LINE
  5
1E1
100
AcDbEntity
  8
‰æ‘w0
100
AcDbLine
  6
CONTINUOUS
370
13
 10
173.755221455972
 20
34.4638880673606
 11
174.621246859756
 21
33.9638880673606
  0
LINE
  5
1E2
100
AcDbEntity
  8
‰æ‘w0
100
AcDbLine
  6
CONTINUOUS
370
13
 10
177.21932307111
 20
32.4638880673606
 11
178.085348474894
 21
31.9638880673606
  0
LINE
  5
1E3
100
AcDbEntity
  8
‰æ‘w0
100
AcDbLine
  6
CONTINUOUS
370
13
 10
160.33310713894
 20
20.2161041252686
 11
167.33310713894
 21
32.3404597782504
  0
LINE
  5
1E4
100
AcDbEntity
  8
‰æ‘w0
100
AcDbLine
  6
CONTINUOUS
370
13
 10
169.85810713894
 20
36.7138880673618
 11
176.85810713894
 21
48.8382437203436
  0
LINE
  5
1E5
100
AcDbEntity
  8
‰æ‘w0
100
AcDbLine
  6
CONTINUOUS
370
13
 10
172.457462791922
 20
13.2161041252686
 11
179.457462791922
 21
25.3404597782503
  0
LINE
  5
1E6
100
AcDbEntity
  8
‰æ‘w0
100
AcDbLine
  6
CONTINUOUS
370
13
 10
181.982462791922
 20
29.7138880673617
 11
188.982462791922
 21
41.8382437203436
  0
LINE
  5
1E7
100
AcDbEntity
  8
‰æ‘w5
100
AcDbLine
  6
CONTINUOUS
 10
27.0141549179409
 20
33.8708043742656
 11
27.0141549179409
 21
-1.7673892768199
  0
LINE
  5
1E8
100
AcDbEntity
  8
‰æ‘w5
100
AcDbLine
  6
CONTINUOUS
 10
175.510181138568
 20
11.4536052452396
 11
27.0141549179409
 21
11.4536052452396
  0
LINE
  5
1E9
100
AcDbEntity
  8
‰æ‘w5
100
AcDbLine
  6
CONTINUOUS
 10
192.035222318059
 20
40.0757804414516
 11
27.0141549179409
 21
40.0757804414516
  0
LINE
  5
1EA
100
AcDbEntity
  8
‰æ‘w5
100
AcDbLine
  6
CONTINUOUS
 10
147.615133932418
 20
46.6402465052806
 11
27.0141549179409
 21
46.6402465052806
  0
LINE
  5
1EB
100
AcDbEntity
  8
‰æ‘w5
100
AcDbLine
  6
CONTINUOUS
 10
126.269154917941
 20
71.9758043742657
 11
27.8099590172441
 21
71.9758043742657
  0
LINE
  5
1EC
100
AcDbEntity
  8
‰æ‘w5
100
AcDbLine
  6
CONTINUOUS
 10
126.269154917941
 20
110.075804374266
 11
27.0141549179409
 21
110.075804374266
  0
LINE
  5
1ED
100
AcDbEntity
  8
‰æ‘w5
100
AcDbLine
  6
CONTINUOUS
 10
69.1191549179412
 20
71.9758043742657
 11
69.1191549179412
 21
129.130804374266
  0
LINE
  5
1EE
100
AcDbEntity
  8
‰æ‘w5
100
AcDbLine
  6
CONTINUOUS
 10
126.269154917941
 20
71.9758043742657
 11
126.269154917941
 21
129.130804374266
  0
LINE
  5
1EF
100
AcDbEntity
  8
‰æ‘w5
100
AcDbLine
  6
CONTINUOUS
 10
147.615133932418
 20
46.6402465052806
 11
147.615133932418
 21
129.130804374266
  0
LINE
  5
1F0
100
AcDbEntity
  8
‰æ‘w5
100
AcDbLine
  6
CONTINUOUS
 10
164.374154917941
 20
129.130804374266
 11
206.891415727591
 21
129.130804374266
  0
LINE
  5
1F1
100
AcDbEntity
  8
‰æ‘w5
100
AcDbLine
  6
CONTINUOUS
 10
192.035222318059
 20
40.0757804414516
 11
192.035222318059
 21
129.130804374266
  0
LINE
  5
1F2
100
AcDbEntity
  8
‰æ‘w5
100
AcDbLine
  6
CONTINUOUS
 10
175.510181138568
 20
11.4536052452396
 11
175.510181138568
 21
129.130804374266
  0
LINE
  5
1F3
100
AcDbEntity
  8
‰æ‘w5
100
AcDbLine
  6
CONTINUOUS
 10
30.0141549179409
 20
43.4008043742656
 11
30.0141549179409
 21
129.130804374266
  0
LINE
  5
1F4
100
AcDbEntity
  8
‰æ‘w5
100
AcDbLine
  6
CONTINUOUS
 10
27.0141549179409
 20
127.032652854752
 11
27.0141549179409
 21
132.532652854752
  0
LINE
  5
1F5
100
AcDbEntity
  8
‰æ‘w5
100
AcDbLine
  6
CONTINUOUS
 10
27.0141549179409
 20
132.032652854752
 11
30.0141549179409
 21
132.032652854752
  0
CIRCLE
  5
1F6
100
AcDbEntity
  8
‰æ‘w5
100
AcDbCircle
  6
CONTINUOUS
 10
27.0141549179409
 20
132.032652854752
 40
0.25
  0
CIRCLE
  5
1F7
100
AcDbEntity
  8
‰æ‘w5
100
AcDbCircle
  6
CONTINUOUS
 10
30.0141549179409
 20
132.032652854752
 40
0.25
  0
TEXT
  5
1F8
100
AcDbEntity
  8
‰æ‘w5
100
AcDbText
  6
CONTINUOUS
 10
27.5141549179409
 20
132.282652854752
 40
4
  1
3
  7
Font_0
 72
1
 11
28.5141549179409
 21
132.282652854752
100
AcDbText
  0
LINE
  5
1F9
100
AcDbEntity
  8
‰æ‘w5
100
AcDbLine
  6
CONTINUOUS
 10
30.0141549179409
 20
127.032652854752
 11
30.0141549179409
 21
132.532652854752
  0
LINE
  5
1FA
100
AcDbEntity
  8
‰æ‘w5
100
AcDbLine
  6
CONTINUOUS
 10
27.0141549179409
 20
134.25299388747
 11
27.0141549179409
 21
139.75299388747
  0
LINE
  5
1FB
100
AcDbEntity
  8
‰æ‘w5
100
AcDbLine
  6
CONTINUOUS
 10
27.0141549179409
 20
139.25299388747
 11
69.1191549179412
 21
139.25299388747
  0
CIRCLE
  5
1FC
100
AcDbEntity
  8
‰æ‘w5
100
AcDbCircle
  6
CONTINUOUS
 10
27.0141549179409
 20
139.25299388747
 40
0.25
  0
CIRCLE
  5
1FD
100
AcDbEntity
  8
‰æ‘w5
100
AcDbCircle
  6
CONTINUOUS
 10
69.1191549179412
 20
139.25299388747
 40
0.25
  0
TEXT
  5
1FE
100
AcDbEntity
  8
‰æ‘w5
100
AcDbText
  6
CONTINUOUS
 10
43.066654917941
 20
139.50299388747
 40
4
  1
42.11
  7
Font_0
 72
1
 11
48.066654917941
 21
139.50299388747
100
AcDbText
  0
LINE
  5
1FF
100
AcDbEntity
  8
‰æ‘w5
100
AcDbLine
  6
CONTINUOUS
 10
69.1191549179412
 20
134.25299388747
 11
69.1191549179412
 21
139.75299388747
  0
LINE
  5
200
100
AcDbEntity
  8
‰æ‘w5
100
AcDbLine
  6
CONTINUOUS
 10
27.0141549179409
 20
138.716477434968
 11
27.0141549179409
 21
144.216477434968
  0
LINE
  5
201
100
AcDbEntity
  8
‰æ‘w5
100
AcDbLine
  6
CONTINUOUS
 10
27.0141549179409
 20
143.716477434968
 11
126.269154917941
 21
143.716477434968
  0
CIRCLE
  5
202
100
AcDbEntity
  8
‰æ‘w5
100
AcDbCircle
  6
CONTINUOUS
 10
27.0141549179409
 20
143.716477434968
 40
0.25
  0
CIRCLE
  5
203
100
AcDbEntity
  8
‰æ‘w5
100
AcDbCircle
  6
CONTINUOUS
 10
126.269154917941
 20
143.716477434968
 40
0.25
  0
TEXT
  5
204
100
AcDbEntity
  8
‰æ‘w5
100
AcDbText
  6
CONTINUOUS
 10
54.0447824237457
 20
216.545918660937
 40
4
  1
99.26
  7
Font_0
 72
1
 11
59.0447824237457
 21
216.545918660937
100
AcDbText
  0
LINE
  5
205
100
AcDbEntity
  8
‰æ‘w5
100
AcDbLine
  6
CONTINUOUS
 10
126.269154917941
 20
138.716477434968
 11
126.269154917941
 21
144.216477434968
  0
LINE
  5
206
100
AcDbEntity
  8
‰æ‘w5
100
AcDbLine
  6
CONTINUOUS
 10
9.41728242374551
 20
215.956320600237
 11
9.41728242374551
 21
221.456320600237
  0
LINE
  5
207
100
AcDbEntity
  8
‰æ‘w5
100
AcDbLine
  6
CONTINUOUS
 10
9.41728242374551
 20
220.956320600237
 11
130.018261438223
 21
220.956320600237
  0
CIRCLE
  5
208
100
AcDbEntity
  8
‰æ‘w5
100
AcDbCircle
  6
CONTINUOUS
 10
9.41728242374551
 20
220.956320600237
 40
0.25
  0
CIRCLE
  5
209
100
AcDbEntity
  8
‰æ‘w5
100
AcDbCircle
  6
CONTINUOUS
 10
130.018261438223
 20
220.956320600237
 40
0.25
  0
TEXT
  5
20A
100
AcDbEntity
  8
‰æ‘w5
100
AcDbText
  6
CONTINUOUS
 10
64.7177719309842
 20
221.206320600237
 40
4
  1
120.6
  7
Font_0
 72
1
 11
69.7177719309842
 21
221.206320600237
100
AcDbText
  0
LINE
  5
20B
100
AcDbEntity
  8
‰æ‘w5
100
AcDbLine
  6
CONTINUOUS
 10
130.018261438223
 20
215.956320600237
 11
130.018261438223
 21
221.456320600237
  0
LINE
  5
20C
100
AcDbEntity
  8
‰æ‘w5
100
AcDbLine
  6
CONTINUOUS
 10
9.41728242374551
 20
220.940123060205
 11
9.41728242374551
 21
226.440123060205
  0
LINE
  5
20D
100
AcDbEntity
  8
‰æ‘w5
100
AcDbLine
  6
CONTINUOUS
 10
9.41728242374551
 20
225.940123060205
 11
146.777282423746
 21
225.940123060205
  0
CIRCLE
  5
20E
100
AcDbEntity
  8
‰æ‘w5
100
AcDbCircle
  6
CONTINUOUS
 10
9.41728242374551
 20
225.940123060205
 40
0.25
  0
CIRCLE
  5
20F
100
AcDbEntity
  8
‰æ‘w5
100
AcDbCircle
  6
CONTINUOUS
 10
146.777282423746
 20
225.940123060205
 40
0.25
  0
TEXT
  5
210
100
AcDbEntity
  8
‰æ‘w5
100
AcDbText
  6
CONTINUOUS
 10
72.0972824237457
 20
226.190123060205
 40
4
  1
137.36
  7
Font_0
 72
1
 11
78.0972824237457
 21
226.190123060205
100
AcDbText
  0
LINE
  5
211
100
AcDbEntity
  8
‰æ‘w5
100
AcDbLine
  6
CONTINUOUS
 10
146.777282423746
 20
220.940123060205
 11
146.777282423746
 21
226.440123060205
  0
LINE
  5
212
100
AcDbEntity
  8
‰æ‘w5
100
AcDbLine
  6
CONTINUOUS
 10
9.41728242374551
 20
230.182159582084
 11
9.41728242374551
 21
235.682159582084
  0
LINE
  5
213
100
AcDbEntity
  8
‰æ‘w5
100
AcDbLine
  6
CONTINUOUS
 10
9.41728242374551
 20
235.182159582084
 11
157.913308644373
 21
235.182159582084
  0
CIRCLE
  5
214
100
AcDbEntity
  8
‰æ‘w5
100
AcDbCircle
  6
CONTINUOUS
 10
9.41728242374551
 20
235.182159582084
 40
0.25
  0
CIRCLE
  5
215
100
AcDbEntity
  8
‰æ‘w5
100
AcDbCircle
  6
CONTINUOUS
 10
157.913308644373
 20
235.182159582084
 40
0.25
  0
TEXT
  5
216
100
AcDbEntity
  8
‰æ‘w5
100
AcDbText
  6
CONTINUOUS
 10
78.6652955340591
 20
235.432159582084
 40
4
  1
148.5
  7
Font_0
 72
1
 11
83.6652955340591
 21
235.432159582084
100
AcDbText
  0
LINE
  5
217
100
AcDbEntity
  8
‰æ‘w5
100
AcDbLine
  6
CONTINUOUS
 10
157.913308644373
 20
230.182159582084
 11
157.913308644373
 21
235.682159582084
  0
LINE
  5
218
100
AcDbEntity
  8
‰æ‘w5
100
AcDbLine
  6
CONTINUOUS
 10
9.41728242374551
 20
237.835721076765
 11
9.41728242374551
 21
243.335721076765
  0
LINE
  5
219
100
AcDbEntity
  8
‰æ‘w5
100
AcDbLine
  6
CONTINUOUS
 10
9.41728242374551
 20
242.835721076765
 11
174.438349823864
 21
242.835721076765
  0
CIRCLE
  5
21A
100
AcDbEntity
  8
‰æ‘w5
100
AcDbCircle
  6
CONTINUOUS
 10
9.41728242374551
 20
242.835721076765
 40
0.25
  0
CIRCLE
  5
21B
100
AcDbEntity
  8
‰æ‘w5
100
AcDbCircle
  6
CONTINUOUS
 10
174.438349823864
 20
242.835721076765
 40
0.25
  0
TEXT
  5
21C
100
AcDbEntity
  8
‰æ‘w5
100
AcDbText
  6
CONTINUOUS
 10
85.9278161238047
 20
243.085721076765
 40
4
  1
165.02
  7
Font_0
 72
1
 11
91.9278161238047
 21
243.085721076765
100
AcDbText
  0
LINE
  5
21D
100
AcDbEntity
  8
‰æ‘w5
100
AcDbLine
  6
CONTINUOUS
 10
174.438349823864
 20
237.835721076765
 11
174.438349823864
 21
243.335721076765
  0
LINE
  5
21E
100
AcDbEntity
  8
‰æ‘w5
100
AcDbLine
  6
CONTINUOUS
 10
26.6575212670417
 20
129.130804374266
 11
21.1575212670417
 21
129.130804374266
  0
LINE
  5
21F
100
AcDbEntity
  8
‰æ‘w5
100
AcDbLine
  6
CONTINUOUS
 10
21.6575212670417
 20
129.130804374266
 11
21.6575212670417
 21
119.600804374266
  0
CIRCLE
  5
220
100
AcDbEntity
  8
‰æ‘w5
100
AcDbCircle
  6
CONTINUOUS
 10
21.6575212670417
 20
129.130804374266
 40
0.25
  0
CIRCLE
  5
221
100
AcDbEntity
  8
‰æ‘w5
100
AcDbCircle
  6
CONTINUOUS
 10
21.6575212670417
 20
119.600804374266
 40
0.25
  0
TEXT
  5
222
100
AcDbEntity
  8
‰æ‘w5
100
AcDbText
  6
CONTINUOUS
 10
21.4075212670417
 20
120.365804374266
 40
4
  1
9.53
  7
Font_0
 50
90
 72
1
 11
21.4075212670417
 21
124.365804374266
100
AcDbText
  0
LINE
  5
223
100
AcDbEntity
  8
‰æ‘w5
100
AcDbLine
  6
CONTINUOUS
 10
26.6575212670417
 20
119.600804374266
 11
21.1575212670417
 21
119.600804374266
  0
LINE
  5
224
100
AcDbEntity
  8
‰æ‘w5
100
AcDbLine
  6
CONTINUOUS
 10
19.5815870549782
 20
129.130804374266
 11
14.0815870549782
 21
129.130804374266
  0
LINE
  5
225
100
AcDbEntity
  8
‰æ‘w5
100
AcDbLine
  6
CONTINUOUS
 10
14.5815870549782
 20
129.130804374266
 11
14.5815870549782
 21
110.075804374266
  0
CIRCLE
  5
226
100
AcDbEntity
  8
‰æ‘w5
100
AcDbCircle
  6
CONTINUOUS
 10
14.5815870549782
 20
129.130804374266
 40
0.25
  0
CIRCLE
  5
227
100
AcDbEntity
  8
‰æ‘w5
100
AcDbCircle
  6
CONTINUOUS
 10
14.5815870549782
 20
110.075804374266
 40
0.25
  0
TEXT
  5
228
100
AcDbEntity
  8
‰æ‘w5
100
AcDbText
  6
CONTINUOUS
 10
14.3315870549782
 20
114.603304374266
 40
4
  1
19.05
  7
Font_0
 50
90
 72
1
 11
14.3315870549782
 21
119.603304374266
100
AcDbText
  0
LINE
  5
229
100
AcDbEntity
  8
‰æ‘w5
100
AcDbLine
  6
CONTINUOUS
 10
19.5815870549782
 20
110.075804374266
 11
14.0815870549782
 21
110.075804374266
  0
LINE
  5
22A
100
AcDbEntity
  8
‰æ‘w5
100
AcDbLine
  6
CONTINUOUS
 10
30.0141549179409
 20
71.9758043742657
 11
27.0141549179409
 21
71.9758043742657
  0
LINE
  5
22B
100
AcDbEntity
  8
‰æ‘w5
100
AcDbLine
  6
CONTINUOUS
 10
14.8229676757473
 20
129.130804374266
 11
9.32296767574726
 21
129.130804374266
  0
LINE
  5
22C
100
AcDbEntity
  8
‰æ‘w5
100
AcDbLine
  6
CONTINUOUS
 10
9.82296767574726
 20
129.130804374266
 11
9.82296767574726
 21
71.9758043742657
  0
CIRCLE
  5
22D
100
AcDbEntity
  8
‰æ‘w5
100
AcDbCircle
  6
CONTINUOUS
 10
9.82296767574726
 20
129.130804374266
 40
0.25
  0
CIRCLE
  5
22E
100
AcDbEntity
  8
‰æ‘w5
100
AcDbCircle
  6
CONTINUOUS
 10
9.82296767574726
 20
71.9758043742657
 40
0.25
  0
TEXT
  5
22F
100
AcDbEntity
  8
‰æ‘w5
100
AcDbText
  6
CONTINUOUS
 10
-8.02390481844813
 20
168.132745600235
 40
4
  1
57.15
  7
Font_0
 50
90
 72
1
 11
-8.02390481844813
 21
173.132745600235
100
AcDbText
  0
LINE
  5
230
100
AcDbEntity
  8
‰æ‘w5
100
AcDbLine
  6
CONTINUOUS
 10
14.8229676757473
 20
71.9758043742657
 11
9.32296767574726
 21
71.9758043742657
  0
LINE
  5
231
100
AcDbEntity
  8
‰æ‘w5
100
AcDbLine
  6
CONTINUOUS
 10
-9.26962522285861
 20
201.710245600235
 11
-14.7696252228586
 21
201.710245600235
  0
LINE
  5
232
100
AcDbEntity
  8
‰æ‘w5
100
AcDbLine
  6
CONTINUOUS
 10
-14.2696252228586
 20
201.710245600235
 11
-14.2696252228586
 21
119.21968773125
  0
CIRCLE
  5
233
100
AcDbEntity
  8
‰æ‘w5
100
AcDbCircle
  6
CONTINUOUS
 10
-14.2696252228586
 20
201.710245600235
 40
0.25
  0
CIRCLE
  5
234
100
AcDbEntity
  8
‰æ‘w5
100
AcDbCircle
  6
CONTINUOUS
 10
-14.2696252228586
 20
119.21968773125
 40
0.25
  0
TEXT
  5
235
100
AcDbEntity
  8
‰æ‘w5
100
AcDbText
  6
CONTINUOUS
 10
-14.5196252228586
 20
155.464966665742
 40
4
  1
82.49
  7
Font_0
 50
90
 72
1
 11
-14.5196252228586
 21
160.464966665742
100
AcDbText
  0
LINE
  5
236
100
AcDbEntity
  8
‰æ‘w5
100
AcDbLine
  6
CONTINUOUS
 10
-9.2696252228586
 20
119.21968773125
 11
-14.7696252228586
 21
119.21968773125
  0
LINE
  5
237
100
AcDbEntity
  8
‰æ‘w5
100
AcDbLine
  6
CONTINUOUS
 10
-17.8027555342526
 20
201.710245600235
 11
-23.3027555342526
 21
201.710245600235
  0
LINE
  5
238
100
AcDbEntity
  8
‰æ‘w5
100
AcDbLine
  6
CONTINUOUS
 10
-22.8027555342526
 20
201.710245600235
 11
-22.8027555342526
 21
115.980245600235
  0
CIRCLE
  5
239
100
AcDbEntity
  8
‰æ‘w5
100
AcDbCircle
  6
CONTINUOUS
 10
-22.8027555342526
 20
201.710245600235
 40
0.25
  0
CIRCLE
  5
23A
100
AcDbEntity
  8
‰æ‘w5
100
AcDbCircle
  6
CONTINUOUS
 10
-22.8027555342526
 20
115.980245600235
 40
0.25
  0
TEXT
  5
23B
100
AcDbEntity
  8
‰æ‘w5
100
AcDbText
  6
CONTINUOUS
 10
-23.0527555342526
 20
153.845245600235
 40
4
  1
85.73
  7
Font_0
 50
90
 72
1
 11
-23.0527555342526
 21
158.845245600235
100
AcDbText
  0
LINE
  5
23C
100
AcDbEntity
  8
‰æ‘w5
100
AcDbLine
  6
CONTINUOUS
 10
-17.8027555342526
 20
115.980245600235
 11
-23.3027555342526
 21
115.980245600235
  0
LINE
  5
23D
100
AcDbEntity
  8
‰æ‘w5
100
AcDbLine
  6
CONTINUOUS
 10
-23.0539126489565
 20
201.710245600235
 11
-28.5539126489565
 21
201.710245600235
  0
LINE
  5
23E
100
AcDbEntity
  8
‰æ‘w5
100
AcDbLine
  6
CONTINUOUS
 10
-28.0539126489565
 20
201.710245600235
 11
-28.0539126489565
 21
112.655221667421
  0
CIRCLE
  5
23F
100
AcDbEntity
  8
‰æ‘w5
100
AcDbCircle
  6
CONTINUOUS
 10
-28.0539126489565
 20
201.710245600235
 40
0.25
  0
CIRCLE
  5
240
100
AcDbEntity
  8
‰æ‘w5
100
AcDbCircle
  6
CONTINUOUS
 10
-28.0539126489565
 20
112.655221667421
 40
0.25
  0
TEXT
  5
241
100
AcDbEntity
  8
‰æ‘w5
100
AcDbText
  6
CONTINUOUS
 10
-28.3039126489565
 20
152.182733633828
 40
4
  1
89.06
  7
Font_0
 50
90
 72
1
 11
-28.3039126489565
 21
157.182733633828
100
AcDbText
  0
LINE
  5
242
100
AcDbEntity
  8
‰æ‘w5
100
AcDbLine
  6
CONTINUOUS
 10
-23.0539126489565
 20
112.655221667421
 11
-28.5539126489565
 21
112.655221667421
  0
LINE
  5
243
100
AcDbEntity
  8
‰æ‘w5
100
AcDbLine
  6
CONTINUOUS
 10
-30.6961305940385
 20
201.710245600235
 11
-36.1961305940385
 21
201.710245600235
  0
LINE
  5
244
100
AcDbEntity
  8
‰æ‘w5
100
AcDbLine
  6
CONTINUOUS
 10
-35.6961305940385
 20
201.710245600235
 11
-35.6961305940385
 21
84.0330464712085
  0
CIRCLE
  5
245
100
AcDbEntity
  8
‰æ‘w5
100
AcDbCircle
  6
CONTINUOUS
 10
-35.6961305940385
 20
201.710245600235
 40
0.25
  0
CIRCLE
  5
246
100
AcDbEntity
  8
‰æ‘w5
100
AcDbCircle
  6
CONTINUOUS
 10
-35.6961305940385
 20
84.0330464712085
 40
0.25
  0
TEXT
  5
247
100
AcDbEntity
  8
‰æ‘w5
100
AcDbText
  6
CONTINUOUS
 10
-35.9461305940385
 20
136.871646035722
 40
4
  1
117.68
  7
Font_0
 50
90
 72
1
 11
-35.9461305940385
 21
142.871646035722
100
AcDbText
  0
LINE
  5
248
100
AcDbEntity
  8
‰æ‘w5
100
AcDbLine
  6
CONTINUOUS
 10
-30.6961305940385
 20
84.0330464712085
 11
-36.1961305940385
 21
84.0330464712085
  0
CIRCLE
  5
249
100
AcDbEntity
  8
‰æ‘w5
100
AcDbCircle
  6
CONTINUOUS
 10
69.1191549179412
 20
71.9758043742657
 40
1.1
  0
CIRCLE
  5
24A
100
AcDbEntity
  8
‰æ‘w0
100
AcDbCircle
  6
CONTINUOUS
 10
126.269154917941
 20
71.9758043742657
 40
1.1
  0
CIRCLE
  5
24B
100
AcDbEntity
  8
‰æ‘w0
100
AcDbCircle
  6
CONTINUOUS
 10
147.615133932418
 20
46.6402465052806
 40
1.1
  0
CIRCLE
  5
24C
100
AcDbEntity
  8
‰æ‘w0
100
AcDbCircle
  6
CONTINUOUS
 10
192.035222318059
 20
40.0757804414516
 40
1.1
  0
CIRCLE
  5
24D
100
AcDbEntity
  8
‰æ‘w0
100
AcDbCircle
  6
CONTINUOUS
 10
175.510181138568
 20
11.4536052452396
 40
1.1
  0
CIRCLE
  5
24E
100
AcDbEntity
  8
‰æ‘w0
100
AcDbCircle
  6
CONTINUOUS
 10
69.1191549179412
 20
71.9758043742657
 40
1.1
  0
CIRCLE
  5
24F
100
AcDbEntity
  8
‰æ‘w0
100
AcDbCircle
  6
CONTINUOUS
 10
30.0141549179409
 20
43.4008043742656
 40
1.1
  0
CIRCLE
  5
250
100
AcDbEntity
  8
‰æ‘w0
100
AcDbCircle
  6
CONTINUOUS
 10
69.1191549179412
 20
110.075804374266
 40
1.1
  0
CIRCLE
  5
251
100
AcDbEntity
  8
‰æ‘w0
100
AcDbCircle
  6
CONTINUOUS
 10
30.0141549179409
 20
119.600804374266
 40
1.1
  0
CIRCLE
  5
252
100
AcDbEntity
  8
‰æ‘w0
100
AcDbCircle
  6
CONTINUOUS
 10
126.269154917941
 20
110.075804374266
 40
1.1
  0
ENDSEC
  0
SECTION
  2
OBJECTS
  0
DICTIONARY
  5
253
100
AcDbDictionary
  3
ACAD_GROUP
350
254
  3
ACAD_MLINESTYLE
350
255
  0
DICTIONARY
  5
254
102
{ACAD_REACTORS
330
253
102
}
100
AcDbDictionary
  0
DICTIONARY
  5
255
102
{ACAD_REACTORS
330
253
102
}
100
AcDbDictionary
  3
STANDARD
350
256
  0
MLINESTYLE
  5
256
102
{ACAD_REACTORS
330
255
102
}
100
AcDbMlineStyle
  2
Standard
 70
     0
  3

 62
     0
 51
90.0
 52
90.0
 71
     2
 49
0.5
 62
   256
  6
ByLayer
 49
-0.5
 62
   256
  6
ByLayer
  0
ENDSEC
  0
EOF
